<svg xmlns="http://www.w3.org/2000/svg" width="189.999" height="108.075" viewBox="0 0 189.999 108.075">
  <g id="_026" data-name="026" transform="translate(-11.1 -115.4)">
    <path id="Trazado_720478" data-name="Trazado 720478" d="M403.273,213.707s-.6,2.165.08,2.525c0,0,.842,1,.762,1.644s-.08,1.563-.842,1.884-1.6.8-2.526.281l.2,1.8.4,5.732L405,230.343l-1.724,9.14-2.044,7.7s-2.686,3.488-2.766,3.608c-.12.12-3.047,1.684-3.047,1.684s-5.251-5.933-5.492-6.254c-.2-.321-1.724-4.77-1.724-4.931s2.245-10.984,2.245-10.984l2.525-2.2a2.1,2.1,0,0,0,.762-.922c.08-.481,0-2.606,0-2.606a2.671,2.671,0,0,1-2.085-.882c-.762-.962-.762-3.648-.762-3.648l.16-6.895,2.445-.04,1.724-.561,1.363-.842.4-.361,1.082-.641,2.966.641Z" transform="translate(-225.931 -57.097)" fill="#fff"/>
    <g id="Grupo_1082793" data-name="Grupo 1082793" transform="translate(11.1 115.4)">
      <path id="Trazado_720479" data-name="Trazado 720479" d="M396.109,220.351s4.49.2,5.452-.922.682-3.808.521-4.49a14.953,14.953,0,0,1-.2-2.125s1.162-2.2,3.247-1.243a10.924,10.924,0,0,0,.16-4.329c-.441-1.964-1.884-3.488-4.53-2.606a7.805,7.805,0,0,0-4.169-.962c-2.325.16-4.69,2.846-4.69,5.251,0,0,1.163,2.886,1.122,2.806,0-.08.08-2.846.08-2.846a6.341,6.341,0,0,0,2.966-.08,12.888,12.888,0,0,0,3.327-1.884s.2,3.127,1.884,4.37a4.889,4.889,0,0,0-.2.681c0,.12-.12,2.526-.681,2.726s-2.405-.241-3.207.2c-.762.481-.882.842-1.443.722a10.32,10.32,0,0,0-1.6-.321,1.621,1.621,0,0,0-1.042.321S392.7,220.552,396.109,220.351Z" transform="translate(-239.248 -168.278)" fill="#ffce26"/>
      <path id="Trazado_720480" data-name="Trazado 720480" d="M359.2,265.033s5.973-6.173,13.87-5.973l2.325,11.385.682-1.163,2,9.541,1.4,1.4,5.292-12.307.521.241,1.884-9.26a27.987,27.987,0,0,1,7.937,1.563c3.287,1.363,5.492,3.728,8.017,10.783,2.485,7.055,5.091,14.071,6.013,16.476s1.082,10.7-3.929,13.469c-4.971,2.766-6.815.882-6.815.882v7.055H366.456Z" transform="translate(-219.657 -201.375)" fill="#1a1a1a"/>
      <path id="Trazado_720481" data-name="Trazado 720481" d="M52.1,201.863v28.1a55.2,55.2,0,0,1,15.794-7.576c9.42-2.806,13.429-3.007,13.429-3.007V191.4a76.278,76.278,0,0,0-15.353,3.608A59.884,59.884,0,0,0,52.1,201.863Z" transform="translate(-35.664 -160.934)" fill="#fff"/>
      <path id="Trazado_720482" data-name="Trazado 720482" d="M94.334,280.25s-6.414-.681-10.1-4.45l-4.37,9.461s-1.323-6.173-1.644-7.657-.4-4.45-8.539-4.41H63.266S55.609,272.914,53,277.2s-2.726,6.494-2.726,6.494l-6.414,25.3L42.1,317.651H82.027l-.441-12.066a6.744,6.744,0,0,0,5.692-2.966,34.081,34.081,0,0,0,4.77-9.461c.681-2.2,2.2-7.9,2.2-7.9Z" transform="translate(-29.673 -209.937)" fill="#1a1a1a"/>
      <path id="Trazado_720483" data-name="Trazado 720483" d="M268.626,229.79l-.842-2.806-1.323-1.443-1.283-.441H222.966l-1.163.361-1.363,1.4L220,228.147l.321,1.644,7.216,26.137.561,1.2.922.882,1,.521,26.337-.12,16.877-9.861Z" transform="translate(-136.258 -181.124)" fill="#fff"/>
      <path id="Trazado_720484" data-name="Trazado 720484" d="M270.511,233.243l-.762-.922L268.707,232H230.263l-1,.521-.361,1.122,6.855,24.654.681.922,1.363.641h25.7S276.8,250,276.8,249.879C276.8,249.8,270.511,233.243,270.511,233.243Z" transform="translate(-141.59 -185.258)" fill="#fff"/>
      <path id="Trazado_720485" data-name="Trazado 720485" d="M286.188,278.734a9.117,9.117,0,0,0-5.933,4.41c-1.8,3.608-3.768,8.1-4.45,9.42-.722,1.283-3.367,1.724-4.129.441s-4.971-14.431-4.971-14.431-1.363-1.6-6.214-1.323S255,280.338,255,280.338s1.563,10.022,3.127,14.03,4.53,12.708,13.229,12.708c0,0,3.728.16,5.091-.441,0,0-.682,11.345-1.483,13.429h29.023s-.361-10.062-.361-13.109.481-8.338.2-11.505a32.405,32.405,0,0,1,0-5.732l-12.467-12.267Z" transform="translate(-157.227 -212.35)" fill="#33ece0"/>
      <g id="Grupo_1082656" data-name="Grupo 1082656" transform="translate(117.375 25.415)">
        <g id="Grupo_1082655" data-name="Grupo 1082655">
          <path id="Trazado_720486" data-name="Trazado 720486" d="M304.842,180.584a.842.842,0,1,0-.842-.842A.847.847,0,0,0,304.842,180.584Z" transform="translate(-303.96 -178.86)" fill="#1a1a1a"/>
          <path id="Trazado_720487" data-name="Trazado 720487" d="M320.982,180.564a.882.882,0,1,0-.882-.882A.89.89,0,0,0,320.982,180.564Z" transform="translate(-313.606 -178.8)" fill="#1a1a1a"/>
          <path id="Trazado_720488" data-name="Trazado 720488" d="M337.4,180.7a.8.8,0,1,0-.8-.8A.757.757,0,0,0,337.4,180.7Z" transform="translate(-323.487 -178.98)" fill="#1a1a1a"/>
          <path id="Trazado_720489" data-name="Trazado 720489" d="M304.782,196.764a.882.882,0,1,0-.882-.882A.864.864,0,0,0,304.782,196.764Z" transform="translate(-303.9 -188.506)" fill="#1a1a1a"/>
          <path id="Trazado_720490" data-name="Trazado 720490" d="M320.922,196.844a.922.922,0,1,0-.922-.922A.961.961,0,0,0,320.922,196.844Z" transform="translate(-313.546 -188.506)" fill="#1a1a1a"/>
          <path id="Trazado_720491" data-name="Trazado 720491" d="M337.338,196.884a.842.842,0,1,0-.842-.842A.821.821,0,0,0,337.338,196.884Z" transform="translate(-323.427 -188.626)" fill="#1a1a1a"/>
          <circle id="Elipse_6590" data-name="Elipse 6590" cx="0.802" cy="0.802" r="0.802" transform="translate(0.08 13.109)" fill="#1a1a1a"/>
          <circle id="Elipse_6591" data-name="Elipse 6591" cx="0.842" cy="0.842" r="0.842" transform="translate(6.534 13.068)" fill="#1a1a1a"/>
          <path id="Trazado_720492" data-name="Trazado 720492" d="M337.4,213.1a.8.8,0,1,0-.8-.8A.8.8,0,0,0,337.4,213.1Z" transform="translate(-323.492 -198.392)" fill="#1a1a1a"/>
        </g>
      </g>
      <path id="Trazado_720493" data-name="Trazado 720493" d="M264.669,260.177l.922-3.127s.762-2.045-.321-2.405-1.724.842-1.924,1.483-.441,1.724-1.764,1.163c0,0-.722-.521-1.243-2.726a35.214,35.214,0,0,0-1.764-5.011s-.521-1.4-1.523-1.042-.762,1.6-.481,2.566c.321.922,1.122,3.488,1.122,3.488s-1.644-.16-1.724,1.243c0,0-1.4.441-1.483,1.483a9.449,9.449,0,0,0,.681,3.488c.281.561.521,1,.521,1a7.839,7.839,0,0,1,3.928-1.724A25.428,25.428,0,0,1,264.669,260.177Z" transform="translate(-156.915 -195.115)" fill="#fff"/>
      <path id="Trazado_720494" data-name="Trazado 720494" d="M91.625,251.032l-.08-5.412s-1.684.521-2.405-1.563c-.762-2.085,2.766-2.445,3.127-2.285,0,0,2.2-1.042,3.127-1.6,1.684-1.042,3.007-3.969,3.007-3.969l1.042,1.483.922,5.412s.321,3.608-.521,4.45a3.25,3.25,0,0,1-2.405,1l.2,2.526s.641,2.085.722,2.405c.08.361.561,2.044-.962,2.485a3.452,3.452,0,0,1-3.568-1.4A38.3,38.3,0,0,1,91.625,251.032Z" transform="translate(-57.791 -187.775)" fill="#fff"/>
      <path id="Trazado_720495" data-name="Trazado 720495" d="M151.5,266.053l1.283-2.2a30.52,30.52,0,0,1,1.042-4.209,2.5,2.5,0,0,1,2.365-1.082s.321-.2.361-.24c.04-.08,3.047-3.448,3.047-3.448a1.252,1.252,0,0,1,1.2.16,1.394,1.394,0,0,1,.12,1.724c-.281.481-1.8,2.526-1.8,2.526s1.563,0,1.724.722l-.641.681-.2,6.173s-1.523,1.844-2.285,2C157.714,268.779,152.823,267.376,151.5,266.053Z" transform="translate(-95.218 -198.907)" fill="#fff"/>
      <path id="Trazado_720496" data-name="Trazado 720496" d="M91.3,225.429a4.375,4.375,0,0,0-1-3.808c-1.563-1.844-6.494-.08-6.494-.08a5.189,5.189,0,0,0-.321-3.888,4.031,4.031,0,0,0-5.332-1.363,5.1,5.1,0,0,0-2.405,5.452,3.379,3.379,0,0,0,2.806,2.926,10.915,10.915,0,0,0,.08,4.81c.681,2.566,2.285,4.61,4.931,4.77v-.882s-2,.281-2.285-1.4a2.08,2.08,0,0,1,1.4-2.485,5.354,5.354,0,0,1,1.323.08,11.309,11.309,0,0,0,2.325-.922,10.268,10.268,0,0,0,2.686-2.285c.321-.441,1.443-2.285,1.443-2.285A4.742,4.742,0,0,1,91.3,225.429Z" transform="translate(-49.769 -175.561)" fill="#ffce26"/>
      <path id="Trazado_720497" data-name="Trazado 720497" d="M326.547,240.241s-.321-2.966.962-4.169a6.749,6.749,0,0,1,4.41.2,23.835,23.835,0,0,1,3.969-.361c1.042.12,3.488,1.684,3.808,3.688a12.1,12.1,0,0,1-.16,5.051c-.321,1.283-.922,3.327-.722,4.57a4.932,4.932,0,0,0,3.007,3.648,11.14,11.14,0,0,1,4.41,3.327,14.15,14.15,0,0,1,2.285,5.773c.12,2-.6,5.251-2.405,6.334a7.772,7.772,0,0,1-7.216.6c-2.926-1.2-3.528-2.686-3.568-3.688-.08-.962.882-5.853.722-6.935a3.3,3.3,0,0,0-2.926-2.606c-1.724-.2-4.37-.8-4.851-3.127-.481-2.285-.641-3.488-.641-3.488Z" transform="translate(-200.072 -187.527)" fill="#fff"/>
      <path id="Trazado_720498" data-name="Trazado 720498" d="M325.952,250.147a2.753,2.753,0,0,1,1.884-.04,2.1,2.1,0,0,1-1.443,3.929s-2.165,1.443-2.285,3.047a2.4,2.4,0,0,1-2.445-1.2,4.582,4.582,0,0,1-.361-2.646c.12-.6.2-1.363.2-1.363l-.722-.16-.281-.521,1.122-3.728.361-.361.682.321.2-.321C322.865,247.18,324.268,249.866,325.952,250.147Z" transform="translate(-196.47 -194.305)" fill="#fff"/>
      <path id="Trazado_720499" data-name="Trazado 720499" d="M172.062,225.624l-.762,28.542s11.024-6.695,12.627-16.4V210.15a11.1,11.1,0,0,0-1.6-7.7c-2.445-3.888-8.058-6.053-8.058-6.053l-.12,27.58Z" transform="translate(-107.08 -163.929)" fill="#fff"/>
      <path id="Trazado_720500" data-name="Trazado 720500" d="M62.515,274.025l-.361,28.141s-10.824,3.127-19.8,2.485c-9.02-.6-15.153-2.846-18.48-6.133a11.941,11.941,0,0,1-3.608-6.975l-.08-29.143s-.722,7.817,9.26,11.625,21.206,2.365,22.208,2.245C53.616,276.07,62.515,274.025,62.515,274.025Z" transform="translate(-16.535 -203.472)" fill="#fff"/>
      <path id="Trazado_720501" data-name="Trazado 720501" d="M101.7,322.848s13.189-1.163,17.157-3.848v9.741a48.45,48.45,0,0,1-17.157,3.808Z" transform="translate(-65.381 -237.382)" fill="#33ece0"/>
      <path id="Trazado_720502" data-name="Trazado 720502" d="M149.021,280.491l.762-1.323s-2.2-.561-2.405-.12S149.021,280.491,149.021,280.491Z" transform="translate(-92.738 -213.345)" fill="#1a1a1a"/>
      <path id="Trazado_720503" data-name="Trazado 720503" d="M169.4,285s-1.443,1.764-2,1.884a9.064,9.064,0,0,0,2,.361Z" transform="translate(-104.744 -217.012)" fill="#1a1a1a"/>
      <path id="Trazado_720504" data-name="Trazado 720504" d="M419.229,300.261l4.931-11.705L407.2,281.3l-10.5,24.493,16.8,7.336.481-.521s-6.214-3.728-7.657-5.572a20.688,20.688,0,0,0-3.207-3.207,19.806,19.806,0,0,1,3.047-5.332,37.357,37.357,0,0,1,3.287-3.768Z" transform="translate(-242.124 -214.795)" fill="#fff"/>
      <path id="Trazado_720505" data-name="Trazado 720505" d="M410.091,271.11c-.08.08-.8,2.2-.8,2.2l.561,4.81-2.926,6.614-1.283-1.323-.441-2.2,1.2-7.7-1.122-2.606,2.365-4.209Z" transform="translate(-247.216 -206.048)" fill="#ffce26"/>
      <path id="Trazado_720506" data-name="Trazado 720506" d="M404.091,236.743a1.992,1.992,0,0,1,.521-1.523,3.252,3.252,0,0,1,1.042-.6s-.241-.561-.682-.521c-.481.04-.441.842-1.042,1s-1.042-.281-1.483,0-.641.321-.4.722a1.734,1.734,0,0,0,1.283.962C403.97,236.863,404.091,236.743,404.091,236.743Z" transform="translate(-245.265 -186.513)" fill="#1a1a1a"/>
      <path id="Trazado_720646" data-name="Trazado 720646" d="M19.763,0A19.763,19.763,0,1,1,0,19.763,19.763,19.763,0,0,1,19.763,0Z" transform="translate(73.801 0)" fill="#33ece0"/>
      <path id="Trazado_720507" data-name="Trazado 720507" d="M222.17,155.934a2.13,2.13,0,0,0-2.966,0l-.8.8a2.13,2.13,0,0,0,0,2.966l5.893,5.893a2.13,2.13,0,0,0,2.966,0l12.146-11.826a2.13,2.13,0,0,0,0-2.966l-.8-.8a2.13,2.13,0,0,0-2.966,0l-9.861,9.541Z" transform="translate(-134.94 -135.77)" fill="#fff"/>
      <path id="Trazado_720508" data-name="Trazado 720508" d="M45.39,248.6v8.418l-4.69,2.245v-8.378Z" transform="translate(-28.834 -195.204)" fill="#33ece0"/>
      <path id="Trazado_720509" data-name="Trazado 720509" d="M164.081,199.962v7.1a20.452,20.452,0,0,0-5.211-1.684c-2.525-.361-4.37-.481-4.37-.481v-7.1a19.329,19.329,0,0,1,5.572.762A24.929,24.929,0,0,1,164.081,199.962Z" transform="translate(-97.015 -164.765)" fill="#1a1a1a"/>
      <path id="Trazado_720510" data-name="Trazado 720510" d="M178.52,196.4l-.12,27.58a26.743,26.743,0,0,0,6.414-6.374,24.253,24.253,0,0,0,3.327-7.416c.12-1,.4-4.891-1.243-7.136C185.215,200.77,184.533,199.326,178.52,196.4Z" transform="translate(-111.334 -163.929)" fill="#33ece0"/>
      <path id="Trazado_720511" data-name="Trazado 720511" d="M320.787,319.9S317.9,330.964,308.2,335.614l.08-3.367a23.417,23.417,0,0,0,6.975-3.808A21.3,21.3,0,0,0,320.787,319.9Z" transform="translate(-189.101 -237.922)" fill="#1a1a1a"/>
      <path id="Trazado_720512" data-name="Trazado 720512" d="M404.888,321.4s-1.042.16-2.085.361l-1.6,3.768s5.853,7.1,11.585,10.142l3.407,1.483.481-.521s-6.214-3.728-7.657-5.572a20.686,20.686,0,0,0-3.207-3.207,20.813,20.813,0,0,1,1.644-3.367Z" transform="translate(-244.82 -238.82)" fill="#b5b5b5"/>
      <path id="Trazado_720513" data-name="Trazado 720513" d="M407.59,308.942s-.682-1.644-.882-2.245c-.2-.641-.6-2.526-1.483-2.405-.882.08-1.243.962-1,1.884.241.882,1,2.966.12,3.167s-2.325-.722-3.327-1.644c-1-.882-3.528-2.846-3.528-2.846s-.8.321-1,.721a1.34,1.34,0,0,0,.16,1.042,1,1,0,0,0-1,.241c-.361.441-.521,1.2-.281,1.443,0,0-1.2.842-.441,1.924a19.214,19.214,0,0,0,3.287,3.728c1.4,1.163,2.365,2.165,4.129,2.606,0,0,1.483-2.886,2.2-3.928C405.3,311.508,407.59,308.942,407.59,308.942Z" transform="translate(-240.907 -228.567)" fill="#fff"/>
      <path id="Trazado_720514" data-name="Trazado 720514" d="M218.259,274.4l3.047,11.064.561,1.2,1.283,1.082.641.321,5.652-.04,2.165,6.695h-16.4L209.6,274.48Z" transform="translate(-130.027 -210.661)" fill="#1a1a1a"/>
      <path id="Trazado_720515" data-name="Trazado 720515" d="M84.95,218.995c.561,2.726.16,2.846.16,2.846h1.122l.481-.241a5.029,5.029,0,0,0-.361-3.848,4.031,4.031,0,0,0-5.332-1.363,2.271,2.271,0,0,0-.521.321C81.222,216.67,84.469,216.63,84.95,218.995Z" transform="translate(-52.679 -175.621)" fill="#fff"/>
      <path id="Trazado_720516" data-name="Trazado 720516" d="M99.88,228.536c.842.08,4.089.441,3.969,2.365-.12,2.2-4.049,5.652-4.049,5.692a8.38,8.38,0,0,0,3.648-2.726c.321-.441,1.443-2.285,1.443-2.285a4.066,4.066,0,0,1,.882,1.323,4.375,4.375,0,0,0-1-3.808C103.769,227.895,101.444,228.175,99.88,228.536Z" transform="translate(-64.243 -182.997)" fill="#fff"/>
      <path id="Trazado_720517" data-name="Trazado 720517" d="M408.728,235.4s-2.285.842-1.483,2.044a2.068,2.068,0,0,0,1.082-.641A2.334,2.334,0,0,0,408.728,235.4Z" transform="translate(-248.339 -187.295)" fill="#fff"/>
      <path id="Trazado_720518" data-name="Trazado 720518" d="M393.143,208.951a6.341,6.341,0,0,0,2.966-.08,8.967,8.967,0,0,0,1.163-.481c-1.4.441-3.768-.8-3.768-.8.16-1.964,3.127-3.688,3.488-3.888h-.4c-2.325.16-4.69,2.846-4.69,5.251,0,0,1.163,2.886,1.122,2.806C393.063,211.717,393.143,208.951,393.143,208.951Z" transform="translate(-239.248 -168.303)" fill="#fff"/>
      <path id="Trazado_720519" data-name="Trazado 720519" d="M400.023,237.61c-4.851.321-4.089-4.81-4.089-4.81s-.2.04-.521.08a1.094,1.094,0,0,0-.441.241s-.441,4.891,2.966,4.69a20.519,20.519,0,0,0,3.407-.16A3.861,3.861,0,0,0,400.023,237.61Z" transform="translate(-241.077 -185.738)" fill="#fff"/>
      <path id="Trazado_720520" data-name="Trazado 720520" d="M408.387,267.983l-1.684,2.926.962,2.405-1.443,10.7-.361-.321-.561-2.445,1.163-7.777-.962-2.566,2.285-4.209Z" transform="translate(-247.276 -206.048)" fill="#fff"/>
      <path id="Trazado_720521" data-name="Trazado 720521" d="M294.788,341.957a6.377,6.377,0,0,0-6.414-4.57c-5.091.241-6.574,4.009-6.574,4.009a11.571,11.571,0,0,0,6.654,1.8C292.744,343.16,294.788,341.957,294.788,341.957Z" transform="translate(-173.284 -248.393)" fill="#1a1a1a"/>
      <g id="Grupo_1082663" data-name="Grupo 1082663" transform="translate(56.282 55.531)">
        <g id="Grupo_1082657" data-name="Grupo 1082657" transform="translate(0 3.918)">
          <path id="Trazado_720522" data-name="Trazado 720522" d="M151.5,271.758a21.546,21.546,0,0,1,1.163-2.726l.641-2.485c.04-.12.04-.24.08-.361a3.24,3.24,0,0,1,1.243-2.2,2.466,2.466,0,0,1,1.323-.281,8.427,8.427,0,0,1,1.724.2,2.136,2.136,0,0,1,.8.281,1.349,1.349,0,0,1,.681,1.724,1.683,1.683,0,0,1-.962.842,4.434,4.434,0,0,1-1.523.241,5.248,5.248,0,0,1-2.245-.481c.762-.04,1.443.12,2.125.12a4.979,4.979,0,0,0,1.523-.2,1.239,1.239,0,0,0,.762-.641.97.97,0,0,0-.521-1.2,2.549,2.549,0,0,0-.722-.241,11.511,11.511,0,0,0-1.644-.2,2.02,2.02,0,0,0-1.122.2,3.393,3.393,0,0,0-1.082,2c-.04.12-.04.241-.08.361l-.641,2.526c-.04.12-1,1.924-1.363,2.485C151.62,271.717,151.54,271.758,151.5,271.758Z" transform="translate(-151.5 -263.7)" fill="#1a1a1a"/>
        </g>
        <g id="Grupo_1082658" data-name="Grupo 1082658" transform="translate(7.389 7.806)">
          <path id="Trazado_720523" data-name="Trazado 720523" d="M171.081,276.968a1.219,1.219,0,0,1-1.082-.962,1.81,1.81,0,0,1,.12-1.283A4.769,4.769,0,0,1,171,273.4a3.611,3.611,0,0,1-.521,1.443,1.366,1.366,0,0,0-.08,1.042.846.846,0,0,0,.722.722C171.282,276.888,171.2,276.968,171.081,276.968Z" transform="translate(-169.931 -273.4)" fill="#1a1a1a"/>
        </g>
        <g id="Grupo_1082659" data-name="Grupo 1082659" transform="translate(5.051)">
          <path id="Trazado_720524" data-name="Trazado 720524" d="M166.505,259.007a4.2,4.2,0,0,1,.922-1.684c.641-.842,1.163-1.443.962-2.325a.724.724,0,0,0-.8-.641,1.239,1.239,0,0,0-.641.4,17.96,17.96,0,0,0-2.846,3.327,9.463,9.463,0,0,1,2.606-3.648,2.045,2.045,0,0,1,.8-.481c.641-.16,1.082.361,1.243.922a2.844,2.844,0,0,1-.922,2.525c-.481.6-.842,1.042-1.2,1.523C166.626,259.007,166.585,259.007,166.505,259.007Z" transform="translate(-164.1 -253.927)" fill="#1a1a1a"/>
        </g>
        <g id="Grupo_1082660" data-name="Grupo 1082660" transform="translate(7.574 4.638)">
          <path id="Trazado_720525" data-name="Trazado 720525" d="M172.16,266.66a1.32,1.32,0,0,0-.882-.762.788.788,0,0,0-.882.241c-.04-.6.441-.722.962-.6a1.267,1.267,0,0,1,.962.882C172.2,266.66,172.2,266.66,172.16,266.66Z" transform="translate(-170.394 -265.495)" fill="#1a1a1a"/>
        </g>
        <g id="Grupo_1082661" data-name="Grupo 1082661" transform="translate(5.044 6.844)">
          <path id="Trazado_720526" data-name="Trazado 720526" d="M165.733,273.606a1.717,1.717,0,0,1-1.483-.8,1.65,1.65,0,0,1,.241-1.8,3.147,3.147,0,0,0,.12,1.6,1.339,1.339,0,0,0,1.122.6,1.479,1.479,0,0,0,.962-.481,3,3,0,0,0,.481-.561,2.591,2.591,0,0,1,.321-.361c.16.4.08.481,0,.6-.16.2-.321.361-.521.6a1.834,1.834,0,0,1-1.243.6Z" transform="translate(-164.083 -271)" fill="#1a1a1a"/>
        </g>
        <g id="Grupo_1082662" data-name="Grupo 1082662" transform="translate(5.131 9.049)">
          <path id="Trazado_720527" data-name="Trazado 720527" d="M164.3,278.945a5.293,5.293,0,0,0,.561-2.445c.4,0,.481,1.243-.4,2.405C164.42,278.905,164.34,278.945,164.3,278.945Z" transform="translate(-164.3 -276.5)" fill="#1a1a1a"/>
        </g>
      </g>
      <g id="Grupo_1082664" data-name="Grupo 1082664" transform="translate(160.829 57.589)">
        <path id="Trazado_720528" data-name="Trazado 720528" d="M432.783,302.65c-6.735,0-15.634-6.815-20.484-12.066a17.792,17.792,0,0,1,2.846-5.412,33.25,33.25,0,0,1,3.367-3.929,77.412,77.412,0,0,1,15.915,9.7,112.758,112.758,0,0,0-15.754-9.34,37.108,37.108,0,0,0-3.207,3.768,26.313,26.313,0,0,0-2.806,5.011c7.336,7.9,18.159,14.391,23.932,10.9,8.178-4.971,3.367-16.8-.521-26.3-.682-1.644-1.323-3.207-1.844-4.69a4.522,4.522,0,0,0-.2-.521c-.762-2.165-2.245-6.214-5.692-8.3a18.58,18.58,0,0,0-9.38-2.325,15.467,15.467,0,0,1,9.581,2c3.568,2.165,5.051,6.294,5.853,8.5.08.2.12.361.2.521.521,1.443,1.163,3.007,1.844,4.65,3.929,9.661,8.819,21.647.361,26.778A7.678,7.678,0,0,1,432.783,302.65Z" transform="translate(-412.297 -259.059)" fill="#1a1a1a"/>
      </g>
      <g id="Grupo_1082669" data-name="Grupo 1082669" transform="translate(153.626 75.425)">
        <g id="Grupo_1082668" data-name="Grupo 1082668">
          <g id="Grupo_1082665" data-name="Grupo 1082665" transform="translate(0 2.357)">
            <path id="Trazado_720529" data-name="Trazado 720529" d="M402.134,319.721c-2.686-.4-7.3-5.211-7.737-6.815a1.433,1.433,0,0,1,.561-1.643,1.111,1.111,0,0,1,.2-1.4,1.885,1.885,0,0,1,.481-.361,1.237,1.237,0,0,1,1.042.12,5.04,5.04,0,0,1-.882.241.946.946,0,0,0-.361.241.762.762,0,0,0-.04,1.082c-.12.321-.922.681-.641,1.6.441,1.523,4.931,6.173,7.416,6.574C402.295,319.681,402.214,319.721,402.134,319.721Z" transform="translate(-394.329 -309.431)" fill="#1a1a1a"/>
          </g>
          <g id="Grupo_1082666" data-name="Grupo 1082666" transform="translate(1.672)">
            <path id="Trazado_720530" data-name="Trazado 720530" d="M403.19,309.985a31.642,31.642,0,0,1-3.448-2.806c-.682-.6-1.243-1.163-1.243-1.8a1.25,1.25,0,0,1,.441-.882c.962-.882,1.884,0,2.445.521l.481.481c.6.6,1.523,1.523,2.085,1.964.481.4,2,1.523,2.606,1.243.441-.2.561-.6.04-2.085a3.266,3.266,0,0,1-.08-2.606.923.923,0,0,1,.6-.441c1.163-.16,1.443.722,1.684,1.443.04.16.12.321.16.481a4.273,4.273,0,0,1,.321,1.082,5.157,5.157,0,0,0,.762,1.844,2.229,2.229,0,0,1-1.122-1.724,5.893,5.893,0,0,0-.321-1c-.08-.16-.12-.321-.2-.481-.281-.8-.521-1.283-1.283-1.163a.5.5,0,0,0-.321.241,3.275,3.275,0,0,0,.12,2.285c.481,1.323.6,2.165-.241,2.566-.722.361-1.924-.481-3.006-1.283-.561-.441-1.523-1.363-2.125-1.964l-.481-.481c-.8-.762-1.323-1.082-1.924-.521a.9.9,0,0,0-.321.6c0,.441.521.922.882,1.283a31.509,31.509,0,0,0,3.528,2.966C403.31,309.985,403.23,309.985,403.19,309.985Z" transform="translate(-398.5 -303.552)" fill="#1a1a1a"/>
          </g>
          <g id="Grupo_1082667" data-name="Grupo 1082667" transform="translate(0.83 4.42)">
            <path id="Trazado_720531" data-name="Trazado 720531" d="M400.609,318.435c-.12-.04-1.122-.842-2.245-1.764a14.478,14.478,0,0,1-1.964-2.044c.2-.321,1.323,1,2.245,1.764,1.122.922,2.125,1.724,2.125,1.724C400.729,318.395,400.689,318.435,400.609,318.435Z" transform="translate(-396.4 -314.577)" fill="#1a1a1a"/>
          </g>
        </g>
      </g>
      <g id="Grupo_1082670" data-name="Grupo 1082670" transform="translate(54.447 65.261)">
        <path id="Trazado_720532" data-name="Trazado 720532" d="M157.136,283.45a17.2,17.2,0,0,1-5.091-1.363c-1.924-.762-5.492-2.526-5.091-3.488.16-.441.681-.4.962-.4a4.956,4.956,0,0,1,1.6.321,4.315,4.315,0,0,1-1.6.04c-.321,0-.561,0-.641.16-.12.281,1.483,1.643,4.891,3.007a16.379,16.379,0,0,0,4.971,1.363C157.336,283.37,157.256,283.45,157.136,283.45Z" transform="translate(-146.922 -278.198)" fill="#1a1a1a"/>
      </g>
      <g id="Grupo_1082675" data-name="Grupo 1082675" transform="translate(97.372 53.346)">
        <g id="Grupo_1082671" data-name="Grupo 1082671" transform="translate(0.157)">
          <path id="Trazado_720533" data-name="Trazado 720533" d="M264.578,260.511a8.794,8.794,0,0,1,.361-2c.12-.441.241-.842.321-1.122a3.409,3.409,0,0,0,.321-1.964.778.778,0,0,0-1.243-.441,2.079,2.079,0,0,0-.641.762,1.6,1.6,0,0,0-.16.521c-.16.561-.361,1.323-1,1.483-.962.241-1.684-.561-2.165-2.325-.2-.722-.361-1.363-.521-1.924a24.4,24.4,0,0,0-1.4-3.728,2.044,2.044,0,0,0-.561-.842.727.727,0,0,0-.521-.12.779.779,0,0,0-.641.321,1.448,1.448,0,0,0-.16,1.243c.24.922,1.443,4.209,1.443,4.249-.24.241-.882.08-1.363.4a1.166,1.166,0,0,0-.481.922c-.2.16-.8.2-1.163.681a1.788,1.788,0,0,0-.321,1.363,1.205,1.205,0,0,1,.04-1.6,1.735,1.735,0,0,1,1.122-.6,1.567,1.567,0,0,1,.641-1.042,1.632,1.632,0,0,1,1.082-.241c-.321-.842-1.122-3.167-1.323-3.969a1.9,1.9,0,0,1,.241-1.563,1.177,1.177,0,0,1,.922-.481,1,1,0,0,1,.762.2,2.274,2.274,0,0,1,.641.882,22.326,22.326,0,0,1,1.483,3.928c.16.561.361,1.2.561,1.964.4,1.523.962,2.245,1.684,2.044.441-.12.6-.722.722-1.2a5.243,5.243,0,0,1,.2-.6,2.816,2.816,0,0,1,.762-.882,1.3,1.3,0,0,1,1.2-.12,1.167,1.167,0,0,1,.6.762,3.6,3.6,0,0,1-.321,2.165,10.231,10.231,0,0,0-.321,1.122,10.784,10.784,0,0,1-.561,1.8C264.7,260.471,264.658,260.511,264.578,260.511Z" transform="translate(-254.393 -248.475)" fill="#1a1a1a"/>
        </g>
        <g id="Grupo_1082672" data-name="Grupo 1082672" transform="translate(1.523 7.346)">
          <path id="Trazado_720534" data-name="Trazado 720534" d="M258.963,269.566A5.248,5.248,0,0,1,257.8,266.8c.4,0,.361,1.042,1.323,2.485C259.043,269.566,259,269.566,258.963,269.566Z" transform="translate(-257.8 -266.8)" fill="#1a1a1a"/>
        </g>
        <g id="Grupo_1082673" data-name="Grupo 1082673" transform="translate(3.367 6.182)">
          <path id="Trazado_720535" data-name="Trazado 720535" d="M263.442,266.3A10.936,10.936,0,0,1,262.4,263.9c.4-.04.481.481,1.243,2.165C263.522,266.3,263.482,266.3,263.442,266.3Z" transform="translate(-262.4 -263.895)" fill="#1a1a1a"/>
        </g>
        <g id="Grupo_1082674" data-name="Grupo 1082674" transform="translate(0 9.15)">
          <path id="Trazado_720536" data-name="Trazado 720536" d="M255.4,275.67a8.292,8.292,0,0,1-1.4-4.37c.4.04.4,2.245,1.563,4.089C255.483,275.67,255.443,275.67,255.4,275.67Z" transform="translate(-254 -271.3)" fill="#1a1a1a"/>
        </g>
      </g>
      <g id="Grupo_1082679" data-name="Grupo 1082679" transform="translate(156.533 47.375)">
        <g id="Grupo_1082677" data-name="Grupo 1082677">
          <g id="Grupo_1082676" data-name="Grupo 1082676">
            <path id="Trazado_720537" data-name="Trazado 720537" d="M403.433,236.675a2.155,2.155,0,0,1-1.122-.321,1.483,1.483,0,0,1-.722-.962.725.725,0,0,1,.281-.681,1.063,1.063,0,0,1,1.042-.08c.481.2.521.16.641.12s.16-.08.4-.521a1.065,1.065,0,0,1,.8-.641.677.677,0,0,1,.682.321,1.185,1.185,0,0,1,.08,1.122,2.347,2.347,0,0,1-1.283,1.523A2.586,2.586,0,0,1,403.433,236.675Zm-1-1.764a.755.755,0,0,0-.321.08.3.3,0,0,0-.12.361c0,.16.2.441.561.681a1.684,1.684,0,0,0,1.6.12,1.874,1.874,0,0,0,1.082-1.243c.12-.4.08-.681-.04-.8a.391.391,0,0,0-.361-.16.793.793,0,0,0-.521.441c-.241.561-.361.641-.6.722s-.361.12-.922-.12A1.171,1.171,0,0,0,402.43,234.912Z" transform="translate(-401.581 -233.581)" fill="#1a1a1a"/>
          </g>
        </g>
        <g id="Grupo_1082678" data-name="Grupo 1082678" transform="translate(2.235 0.569)">
          <path id="Trazado_720538" data-name="Trazado 720538" d="M407.294,237.485A1.837,1.837,0,0,1,408.737,235c.04.4-1.6.842-1.283,2.245C407.334,237.485,407.294,237.485,407.294,237.485Z" transform="translate(-407.155 -235)" fill="#1a1a1a"/>
        </g>
      </g>
      <g id="Grupo_1082680" data-name="Grupo 1082680" transform="translate(154.164 43.254)">
        <path id="Trazado_720539" data-name="Trazado 720539" d="M396.365,225.184c-.321-.04-.641-.241-.681-1.042a3.73,3.73,0,0,1,.04-.842c.281.6.321,1.443.641,1.483.4-.241.521-.962.561-1.4.361.16.24,1.283-.2,1.644A.435.435,0,0,1,396.365,225.184Z" transform="translate(-395.672 -223.3)" fill="#1a1a1a"/>
      </g>
      <g id="Grupo_1082681" data-name="Grupo 1082681" transform="translate(158.766 43.294)">
        <path id="Trazado_720540" data-name="Trazado 720540" d="M407.812,225.284c-.882-.16-.641-1.724-.6-1.884.281.6.281,1.443.6,1.523.4-.241.561-1,.6-1.443.361.16.2,1.363-.241,1.684A.761.761,0,0,1,407.812,225.284Z" transform="translate(-407.15 -223.4)" fill="#1a1a1a"/>
      </g>
      <g id="Grupo_1082682" data-name="Grupo 1082682" transform="translate(37.321 50.229)">
        <path id="Trazado_720541" data-name="Trazado 720541" d="M105.363,251.4c-.361,0-.762,0-1.163-.04a3.852,3.852,0,0,1,1.764-.361,3.384,3.384,0,0,0,2.525-.641,2.1,2.1,0,0,0,.481-.681,5.75,5.75,0,0,0,.281-1.122,8.243,8.243,0,0,0,.08-1.443c-.04-.882-.16-1.8-.281-2.646-.2-1.283-.762-3.728-.762-3.768.4,0,.962,2.405,1.122,3.488a28.263,28.263,0,0,1,.321,2.926,8.486,8.486,0,0,1-.08,1.483,4.633,4.633,0,0,1-.281,1.243,2.648,2.648,0,0,1-.561.8,3.516,3.516,0,0,1-2.566.722A8.158,8.158,0,0,1,105.363,251.4Z" transform="translate(-104.2 -240.7)" fill="#1a1a1a"/>
      </g>
      <path id="Trazado_720542" data-name="Trazado 720542" d="M103.555,247.383c.16-.04.241,0,.361.561.12.6,0,.722-.16.762-.12,0-.281-.16-.361-.6C103.4,247.664,103.355,247.423,103.555,247.383Z" transform="translate(-66.395 -194.468)" fill="#1a1a1a"/>
      <path id="Trazado_720543" data-name="Trazado 720543" d="M113.3,245.283c.16-.04.241,0,.4.521.16.6,0,.722-.12.762-.12,0-.321-.16-.361-.6C113.141,245.563,113.141,245.363,113.3,245.283Z" transform="translate(-72.252 -193.209)" fill="#1a1a1a"/>
      <g id="Grupo_1082683" data-name="Grupo 1082683" transform="translate(40.568 50.597)">
        <path id="Trazado_720544" data-name="Trazado 720544" d="M113.5,242.132a1.225,1.225,0,0,0-1.2-.04c.6-.641,1-.521,1.283-.281C113.623,242.092,113.583,242.132,113.5,242.132Z" transform="translate(-112.3 -241.618)" fill="#1a1a1a"/>
      </g>
      <g id="Grupo_1082684" data-name="Grupo 1082684" transform="translate(31.181 53.715)">
        <path id="Trazado_720545" data-name="Trazado 720545" d="M91.055,253.767a2.145,2.145,0,0,1-2.125-1.724,2.344,2.344,0,0,1,.281-1.644,2.222,2.222,0,0,1,1.363-.962,2.623,2.623,0,0,1,1.243.08,1.052,1.052,0,0,1,.722.481c-.561-.08-.762-.12-.762-.12a1.823,1.823,0,0,0-1.122-.08,1.791,1.791,0,0,0-1.122.8,1.639,1.639,0,0,0-.241,1.363,1.8,1.8,0,0,0,2.165,1.363,2.121,2.121,0,0,0,.842-.441c-.04.561-.4.722-.762.842A1.952,1.952,0,0,1,91.055,253.767Z" transform="translate(-88.884 -249.396)" fill="#1a1a1a"/>
      </g>
      <g id="Grupo_1082685" data-name="Grupo 1082685" transform="translate(32.551 54.932)">
        <path id="Trazado_720546" data-name="Trazado 720546" d="M92.741,254.623c-.12-.321.922-1.323.922-1.323l-1.363-.8c.2-.321,1.8.6,1.8.6.04.321-1.2,1.483-1.2,1.483C92.821,254.583,92.781,254.623,92.741,254.623Z" transform="translate(-92.3 -252.431)" fill="#1a1a1a"/>
      </g>
      <g id="Grupo_1082686" data-name="Grupo 1082686" transform="translate(33.713 60.772)">
        <path id="Trazado_720547" data-name="Trazado 720547" d="M100.492,274.856a2.994,2.994,0,0,1-.8-.12,5.913,5.913,0,0,1-2.405-1.724,12.551,12.551,0,0,1-2.085-3.247c.922,1.082,1.563,2.125,2.365,3.007a5.4,5.4,0,0,0,2.245,1.6,1.784,1.784,0,0,0,1.443-.08c1.243-.722.8-1.924.321-3.207a6.637,6.637,0,0,1-.441-1.563s0-.08-.2-2.525c.4-.04.561,2.445.561,2.485a6.363,6.363,0,0,0,.4,1.483c.441,1.243,1,2.766-.481,3.648A1.661,1.661,0,0,1,100.492,274.856Z" transform="translate(-95.2 -266.999)" fill="#1a1a1a"/>
      </g>
      <g id="Grupo_1082687" data-name="Grupo 1082687" transform="translate(33.593 57.886)">
        <path id="Trazado_720548" data-name="Trazado 720548" d="M95.141,265.372a54.108,54.108,0,0,1-.24-5.572c.4,0,.441,5.412.441,5.412Z" transform="translate(-94.9 -259.8)" fill="#1a1a1a"/>
      </g>
      <g id="Grupo_1082688" data-name="Grupo 1082688" transform="translate(51.472 90.757)">
        <path id="Trazado_720549" data-name="Trazado 720549" d="M140.342,358.957c-.281-2.525-.361-4.851-.441-7.1-.12-3.247-.2-6.614-.4-10.062a72.257,72.257,0,0,1,.8,10.022c.08,2.245.16,4.57.241,6.895Z" transform="translate(-139.5 -341.8)" fill="#1a1a1a"/>
      </g>
      <g id="Grupo_1082689" data-name="Grupo 1082689" transform="translate(39.847 63.137)">
        <path id="Trazado_720550" data-name="Trazado 720550" d="M121.6,291.26a108.491,108.491,0,0,0-2.365-12.908,11.215,11.215,0,0,0-.962-2.686c-1.4-2.405-4.329-2.405-6.9-2.405H110.5a.928.928,0,0,1,.882-.361c2.686,0,5.692.04,7.216,2.606a10.669,10.669,0,0,1,1.042,2.806A82.954,82.954,0,0,1,121.8,291.14Z" transform="translate(-110.5 -272.9)" fill="#1a1a1a"/>
      </g>
      <g id="Grupo_1082690" data-name="Grupo 1082690" transform="translate(39.205 51.991)">
        <path id="Trazado_720551" data-name="Trazado 720551" d="M110.7,249.226a6.313,6.313,0,0,0-.12-1.684,2.218,2.218,0,0,0-.922.321c-.281-.12-.762-2.766-.762-2.766.361-.08.8,2.325.8,2.325.361-.16.842-.321,1.082-.16.361.281.16,1.363.08,1.8A.147.147,0,0,1,110.7,249.226Z" transform="translate(-108.9 -245.095)" fill="#1a1a1a"/>
      </g>
      <g id="Grupo_1082691" data-name="Grupo 1082691" transform="translate(20.645 63.097)">
        <path id="Trazado_720552" data-name="Trazado 720552" d="M62.8,282.461a.243.243,0,0,1-.2-.241c1.283-3.848,2.806-6.334,4.57-7.376,2.085-1.243,4.169-2.044,8.338-2.044-4.089.4-6.133,1.163-8.138,2.365-1.684,1-3.167,3.448-4.41,7.176C62.961,282.421,62.881,282.461,62.8,282.461Z" transform="translate(-62.6 -272.8)" fill="#1a1a1a"/>
      </g>
      <g id="Grupo_1082692" data-name="Grupo 1082692" transform="translate(12.427 99.176)">
        <path id="Trazado_720553" data-name="Trazado 720553" d="M42.1,371.539c.4-3.207,1-6.053,1.6-8.739a69.369,69.369,0,0,1-1.4,8.579A.2.2,0,0,1,42.1,371.539Z" transform="translate(-42.1 -362.8)" fill="#1a1a1a"/>
      </g>
      <g id="Grupo_1082693" data-name="Grupo 1082693" transform="translate(27.981 101.18)">
        <path id="Trazado_720554" data-name="Trazado 720554" d="M80.9,374.535c.241-2.325.641-4.41,1-6.735a30.745,30.745,0,0,1-.8,6.574A.2.2,0,0,1,80.9,374.535Z" transform="translate(-80.9 -367.8)" fill="#1a1a1a"/>
      </g>
      <g id="Grupo_1082694" data-name="Grupo 1082694" transform="translate(28.293 44.96)">
        <path id="Trazado_720555" data-name="Trazado 720555" d="M86.979,241.524c-3.247-.321-5.452-3.768-5.291-8.218a4.985,4.985,0,0,1,1.523-3.688,5.208,5.208,0,0,1,3.728-1.082c.561-.241,5.652-2.285,7.376.361a4.985,4.985,0,0,1,.842,3.969,13.592,13.592,0,0,0-1.122-1.523,9.882,9.882,0,0,1-6.294,5.452,10.559,10.559,0,0,0,6.013-5.853c.321-.08.762.281,1.082.962a5.069,5.069,0,0,0-.882-2.806c-1.6-2.485-6.9-.2-6.975-.2a5.267,5.267,0,0,0-3.568,1,4.413,4.413,0,0,0-1.4,3.407c-.16,4.249,1.924,7.536,4.931,7.817C87.18,241.443,87.059,241.524,86.979,241.524Z" transform="translate(-81.68 -227.555)" fill="#1a1a1a"/>
      </g>
      <g id="Grupo_1082695" data-name="Grupo 1082695" transform="translate(139.824 57.405)">
        <path id="Trazado_720556" data-name="Trazado 720556" d="M359.9,265.014a2.62,2.62,0,0,1,.922-1.4c4.289-3.688,8.218-4.289,11.745-4.851a5.749,5.749,0,0,0,.882-.16.916.916,0,0,1-.842.521c-3.448.521-7.336,1.162-11.545,4.73a8.539,8.539,0,0,0-1.042,1.042C360.02,265.014,359.98,265.014,359.9,265.014Z" transform="translate(-359.9 -258.6)" fill="#1a1a1a"/>
      </g>
      <g id="Grupo_1082696" data-name="Grupo 1082696" transform="translate(153.253 54.839)">
        <path id="Trazado_720557" data-name="Trazado 720557" d="M395.885,266.591c-.2-.16-2.485-11.385-2.485-11.385.08-.2,3.327-3.007,3.327-3.007.281.04,3.969,5.452,3.969,5.452l3.528-5.412a32.523,32.523,0,0,1,3.568,2.445c.08.2-1.844,9.461-1.844,9.461-.361-.08,1.483-9.22,1.483-9.22l-3.047-2.285-3.528,5.412,3.929,7.1c-.321.2-4.129-6.735-4.129-6.735l-4.61,8.057A.215.215,0,0,1,395.885,266.591Zm-2.125-11.385,2.2,10.623,4.45-7.817-3.648-5.412Z" transform="translate(-393.4 -252.2)" fill="#1a1a1a"/>
      </g>
      <g id="Grupo_1082697" data-name="Grupo 1082697" transform="translate(157.944 64.901)">
        <path id="Trazado_720558" data-name="Trazado 720558" d="M406.343,280.026c-.16-.12-1.243-2.686-1.243-2.686.361-.16,1.363,2.285,1.363,2.285h2.606l.762-2.325c.361.12-.441,2.566-.441,2.566a27.765,27.765,0,0,1-3.047.16Z" transform="translate(-405.1 -277.3)" fill="#1a1a1a"/>
      </g>
      <g id="Grupo_1082698" data-name="Grupo 1082698" transform="translate(163.636 47.584)">
        <path id="Trazado_720559" data-name="Trazado 720559" d="M419.861,241.676c-.2-.2-.561-7.576-.561-7.576.4,0,.762,7.376.762,7.376Z" transform="translate(-419.3 -234.1)" fill="#1a1a1a"/>
      </g>
      <g id="Grupo_1082699" data-name="Grupo 1082699" transform="translate(156.497 52.033)">
        <path id="Trazado_720560" data-name="Trazado 720560" d="M401.656,248.327a17.2,17.2,0,0,1-.16-3.127c.4,0,.361,2.926.361,2.926A.189.189,0,0,1,401.656,248.327Z" transform="translate(-401.492 -245.2)" fill="#1a1a1a"/>
      </g>
      <g id="Grupo_1082700" data-name="Grupo 1082700" transform="translate(158 67.427)">
        <path id="Trazado_720561" data-name="Trazado 720561" d="M405.265,291.577c-.2-.2.962-7.977.962-7.977.361.04-.762,7.817-.762,7.817A.266.266,0,0,1,405.265,291.577Z" transform="translate(-405.242 -283.6)" fill="#1a1a1a"/>
      </g>
      <g id="Grupo_1082701" data-name="Grupo 1082701" transform="translate(161.872 67.426)">
        <path id="Trazado_720562" data-name="Trazado 720562" d="M415.662,288.57a48.5,48.5,0,0,1-.762-4.971c.361-.04.962,4.73.962,4.73Z" transform="translate(-414.9 -283.599)" fill="#1a1a1a"/>
      </g>
      <g id="Grupo_1082702" data-name="Grupo 1082702" transform="translate(156.22 67.867)">
        <path id="Trazado_720563" data-name="Trazado 720563" d="M402.965,294.4c-.2-.16-2.165-9.7-2.165-9.7.361-.08,2.365,9.461,2.365,9.461C403,294.4,402.965,294.4,402.965,294.4Z" transform="translate(-400.8 -284.699)" fill="#1a1a1a"/>
      </g>
      <g id="Grupo_1082703" data-name="Grupo 1082703" transform="translate(160.309 93.564)">
        <path id="Trazado_720564" data-name="Trazado 720564" d="M411.281,363.312c-.2-.2-.281-14.512-.281-14.512.4,0,.481,14.311.481,14.311Z" transform="translate(-411 -348.8)" fill="#1a1a1a"/>
      </g>
      <g id="Grupo_1082704" data-name="Grupo 1082704" transform="translate(117.496 94.646)">
        <path id="Trazado_720565" data-name="Trazado 720565" d="M304.4,364.769a.242.242,0,0,1-.2-.241c.882-2.606,1.283-9.42,1.523-13.028.16,3.688-.241,10.5-1.122,13.189A.306.306,0,0,1,304.4,364.769Z" transform="translate(-304.2 -351.5)" fill="#1a1a1a"/>
      </g>
      <g id="Grupo_1082705" data-name="Grupo 1082705" transform="translate(38.323 56.756)">
        <path id="Trazado_720566" data-name="Trazado 720566" d="M108.143,258.272a1.131,1.131,0,0,1-.6-.16,1.964,1.964,0,0,1-.842-1.122c.361-.08.521.521,1,.8a1.2,1.2,0,0,0,1.042-.04C108.664,258.232,108.384,258.272,108.143,258.272Z" transform="translate(-106.7 -256.982)" fill="#1a1a1a"/>
      </g>
      <g id="Grupo_1082706" data-name="Grupo 1082706" transform="translate(153.686 40.809)">
        <path id="Trazado_720567" data-name="Trazado 720567" d="M397.935,228.625a2.99,2.99,0,0,1-2.766-1.122,6.418,6.418,0,0,1-.681-3.568v-.762c-.04-.8.08-5.773.12-5.973.4.08.24,5.171.281,5.973v.762a5.925,5.925,0,0,0,.641,3.367c.641,1,1.8.962,2.926.962h.441a10.976,10.976,0,0,0,2.445-.24,2.767,2.767,0,0,0,1.724-.882,3.724,3.724,0,0,0,.521-2.125,6.649,6.649,0,0,0-.04-1.283c-.12-1.042-.321-2.686-.321-2.686a2.469,2.469,0,0,1,2.606-1.684,2.453,2.453,0,0,1,1.684.922,2.511,2.511,0,0,1-3.488,3.568,3.16,3.16,0,0,0,2.886-.361,2.135,2.135,0,0,0-2.726-3.287,2.047,2.047,0,0,0-.6.842c.04.281.2,1.684.321,2.606.04.4.04.882.04,1.363a4.578,4.578,0,0,1-.6,2.325,2.983,2.983,0,0,1-1.964,1.042,11.485,11.485,0,0,1-2.526.241h-.922Z" transform="translate(-394.48 -217.2)" fill="#1a1a1a"/>
      </g>
      <g id="Grupo_1082707" data-name="Grupo 1082707" transform="translate(153.984 41.611)">
        <path id="Trazado_720568" data-name="Trazado 720568" d="M395.253,220.163c-.16-.281.281-1.243,1.644-.882a1.683,1.683,0,0,0-1.483.762C395.414,220.122,395.333,220.163,395.253,220.163Z" transform="translate(-395.222 -219.201)" fill="#1a1a1a"/>
      </g>
      <g id="Grupo_1082708" data-name="Grupo 1082708" transform="translate(158.643 41.562)">
        <path id="Trazado_720569" data-name="Trazado 720569" d="M408.831,220.21c-1.042-1.2-1.924-.681-1.964-.641-.2-.321,1-1.082,2.125.361C408.911,220.21,408.871,220.21,408.831,220.21Z" transform="translate(-406.845 -219.08)" fill="#1a1a1a"/>
      </g>
      <g id="Grupo_1082709" data-name="Grupo 1082709" transform="translate(163.595 43.976)">
        <path id="Trazado_720570" data-name="Trazado 720570" d="M421.083,227.986l-1.884-.922c-.04-.321,1.563-1.964,1.563-1.964.281.281-1.162,1.764-1.162,1.764l1.563.762C421.243,227.946,421.163,227.986,421.083,227.986Z" transform="translate(-419.198 -225.1)" fill="#1a1a1a"/>
      </g>
      <g id="Grupo_1082710" data-name="Grupo 1082710" transform="translate(160.571 36.159)">
        <path id="Trazado_720571" data-name="Trazado 720571" d="M411.673,207.083c-.16-.321.8-1.483.8-1.483.281.241-.641,1.4-.641,1.4C411.753,207.043,411.713,207.083,411.673,207.083Z" transform="translate(-411.655 -205.6)" fill="#1a1a1a"/>
      </g>
      <g id="Grupo_1082711" data-name="Grupo 1082711" transform="translate(153.574 38.604)">
        <path id="Trazado_720572" data-name="Trazado 720572" d="M398.57,220.078c.441-.882,1.443-.762,2.285-.681a3.261,3.261,0,0,0,.842.04c.241-.04.521-1.323.641-2.646l.16-.561a7.249,7.249,0,0,1-1.8-4.009A7.29,7.29,0,0,1,394.2,213.9a7.728,7.728,0,0,0,6.494-2.2c.321.16.441,2.566,2.165,4.37a3.806,3.806,0,0,1-.12.842c-.08.8-.281,2.766-.922,2.926a3.769,3.769,0,0,1-.962,0c-.722-.08-1.684-.16-2.125.241C398.65,220.038,398.61,220.078,398.57,220.078Z" transform="translate(-394.2 -211.7)" fill="#1a1a1a"/>
      </g>
      <g id="Grupo_1082712" data-name="Grupo 1082712" transform="translate(153.895 46.917)">
        <path id="Trazado_720573" data-name="Trazado 720573" d="M395,233.024a1.2,1.2,0,0,1,1.4-.521c-.12.361-.762.16-1.283.481C395.08,232.984,395.04,233.024,395,233.024Z" transform="translate(-395 -232.438)" fill="#1a1a1a"/>
      </g>
      <g id="Grupo_1082713" data-name="Grupo 1082713" transform="translate(0 107.514)">
        <path id="Trazado_720574" data-name="Trazado 720574" d="M199.39,384H11.1c0-.4,188.29-.4,188.29-.4C199.59,383.921,199.51,384,199.39,384Z" transform="translate(-11.1 -383.6)" fill="#1a1a1a"/>
      </g>
      <g id="Grupo_1082714" data-name="Grupo 1082714" transform="translate(128.6 55.424)">
        <path id="Trazado_720575" data-name="Trazado 720575" d="M333.784,258.245a1.911,1.911,0,0,1-.8-.16,2.228,2.228,0,0,1-1.082-.842,9.325,9.325,0,0,1,1.2.481,1.9,1.9,0,0,0,2.445-1.122,1.987,1.987,0,0,0-.04-1.443,1.957,1.957,0,0,0-1.042-1,1.931,1.931,0,0,0-1.844.281,1.461,1.461,0,0,1,1.964-.641,2.3,2.3,0,0,1-.8,4.45Z" transform="translate(-331.9 -253.658)" fill="#1a1a1a"/>
      </g>
      <g id="Grupo_1082715" data-name="Grupo 1082715" transform="translate(129.482 56.723)">
        <path id="Trazado_720576" data-name="Trazado 720576" d="M335.263,259.185A15.379,15.379,0,0,1,334.1,257.7c.12-.281,1.844-.8,1.844-.8.12.361-1.363.8-1.363.8l.842,1.163C335.343,259.145,335.3,259.185,335.263,259.185Z" transform="translate(-334.1 -256.9)" fill="#1a1a1a"/>
      </g>
      <g id="Grupo_1082716" data-name="Grupo 1082716" transform="translate(146.183 80.214)">
        <path id="Trazado_720577" data-name="Trazado 720577" d="M376.3,343.2c-.2-.241-.842-7.015-.361-14.191.241-3.407.241-7.817.08-13.509a79.99,79.99,0,0,1,.281,13.549,99.433,99.433,0,0,0,.16,13.99Z" transform="translate(-375.763 -315.5)" fill="#1a1a1a"/>
      </g>
      <g id="Grupo_1082717" data-name="Grupo 1082717" transform="translate(124.602 52.474)">
        <path id="Trazado_720578" data-name="Trazado 720578" d="M324.923,256.963a3.257,3.257,0,0,1-2.485-1.243,4.22,4.22,0,0,1-.321-3.247l1.523-6.173c.361.08-1.122,6.254-1.122,6.254a4.039,4.039,0,0,0,.281,2.966,2.72,2.72,0,0,0,2.165,1.082C325.124,256.883,325,256.963,324.923,256.963Z" transform="translate(-321.928 -246.3)" fill="#1a1a1a"/>
      </g>
      <g id="Grupo_1082718" data-name="Grupo 1082718" transform="translate(123.893 52.684)">
        <path id="Trazado_720579" data-name="Trazado 720579" d="M321.057,251.9c-.762-.2-.962-.6-.882-1l1-3.528a.743.743,0,0,1,.922-.521,1,1,0,0,1,.6.4.882.882,0,0,1,.08.561l-1,3.528A.725.725,0,0,1,321.057,251.9Zm-.12-.4a.346.346,0,0,0,.441-.241l1-3.528c-.6-.561-.8-.441-.842-.241l-1,3.528a.346.346,0,0,0,.241.441Z" transform="translate(-320.159 -246.823)" fill="#1a1a1a"/>
      </g>
      <g id="Grupo_1082719" data-name="Grupo 1082719" transform="translate(126.157 47.918)">
        <path id="Trazado_720580" data-name="Trazado 720580" d="M341.919,269.195a12.022,12.022,0,0,1-3.488-.6,5.776,5.776,0,0,1-2.806-1.563c-.922-1.042-1.243-2.606-.962-4.65.08-.521.16-1,.24-1.523a18.812,18.812,0,0,0,.361-2.565,3.1,3.1,0,0,0-.281-1.563,3.781,3.781,0,0,0-2.445-1.363l-.6-.12a8.822,8.822,0,0,1-1.764-.481,5.409,5.409,0,0,1-3.127-4.77c-.04-1.483,1.2-2.686,2.405-3.367-.882.922-2.044,2.044-2,3.367a5,5,0,0,0,2.886,4.41,11.516,11.516,0,0,0,1.684.441l.6.12a4.2,4.2,0,0,1,2.726,1.523,3.14,3.14,0,0,1,.321,1.764,19.952,19.952,0,0,1-.361,2.646c-.08.481-.2,1-.241,1.483-.281,1.924,0,3.407.842,4.369a5.393,5.393,0,0,0,2.646,1.443,11.124,11.124,0,0,0,3.367.561,5.892,5.892,0,0,0,5.933-6.133,10.983,10.983,0,0,0-4.61-9.06,10.771,10.771,0,0,0-1.323-.722,7.847,7.847,0,0,1-3.047-2.285c-1.2-1.764-.681-3.728-.2-5.612a19.429,19.429,0,0,0,.441-1.964c.8-5.612-1.924-7.055-3.608-7.416a26.627,26.627,0,0,0-4.009.361c-2.726-1.082-4.089-.4-4.289-.281a5.826,5.826,0,0,0-.882,4.169,4.6,4.6,0,0,0,2.886,2.846,3.931,3.931,0,0,1-3.247-2.766,5.933,5.933,0,0,1,.922-4.49c.12-.08,1.563-1.082,4.57.12a27.2,27.2,0,0,1,4.089-.361c1.8.4,4.73,1.924,3.888,7.857a17.925,17.925,0,0,1-.441,2c-.481,1.8-.962,3.688.16,5.292a7.519,7.519,0,0,0,2.886,2.165c.441.241.922.481,1.363.762,2.846,1.764,4.77,5.532,4.81,9.38a6.3,6.3,0,0,1-6.254,6.534C342,269.195,341.96,269.195,341.919,269.195Z" transform="translate(-325.807 -234.934)" fill="#1a1a1a"/>
      </g>
      <g id="Grupo_1082720" data-name="Grupo 1082720" transform="translate(83.619 43.775)">
        <path id="Trazado_720581" data-name="Trazado 720581" d="M235.611,258.394H230.56a3.44,3.44,0,0,1-3.327-2.525l-7.416-26.9a3.373,3.373,0,0,1,.6-3.007,3.455,3.455,0,0,1,2.766-1.363h41.49A3.44,3.44,0,0,1,268,227.125l.641,2.285c-.361.12-1-2.165-1-2.165A3.091,3.091,0,0,0,264.674,225h-41.53a3.038,3.038,0,0,0-2.445,1.2,3.072,3.072,0,0,0-.521,2.686l7.456,26.9a3.091,3.091,0,0,0,2.966,2.245h5.051C235.811,258.313,235.731,258.394,235.611,258.394Z" transform="translate(-219.694 -224.6)" fill="#1a1a1a"/>
      </g>
      <g id="Grupo_1082721" data-name="Grupo 1082721" transform="translate(113.126 77.168)">
        <path id="Trazado_720582" data-name="Trazado 720582" d="M300.2,308.3h-6.9c0-.4,6.9-.4,6.9-.4C300.4,308.221,300.315,308.3,300.2,308.3Z" transform="translate(-293.3 -307.9)" fill="#1a1a1a"/>
      </g>
      <g id="Grupo_1082722" data-name="Grupo 1082722" transform="translate(124.791 46.541)">
        <path id="Trazado_720583" data-name="Trazado 720583" d="M326.529,233.264a2,2,0,0,0-1.964-1.363H322.4c0-.4,2.165-.4,2.165-.4a2.027,2.027,0,0,1,2.125,1.523C326.569,233.264,326.529,233.264,326.529,233.264Z" transform="translate(-322.4 -231.5)" fill="#1a1a1a"/>
      </g>
      <g id="Grupo_1082723" data-name="Grupo 1082723" transform="translate(87.039 46.501)">
        <path id="Trazado_720584" data-name="Trazado 720584" d="M240.12,259.7h-2.365a2.959,2.959,0,0,1-2.806-2.125l-6.654-24.012a1.708,1.708,0,0,1,1.644-2.165h29.384c0,.4-29.384.4-29.384.4a1.3,1.3,0,0,0-1.243,1.684L235.35,257.5a2.526,2.526,0,0,0,2.405,1.844h2.365C240.32,259.621,240.24,259.7,240.12,259.7Z" transform="translate(-228.224 -231.4)" fill="#1a1a1a"/>
      </g>
      <g id="Grupo_1082724" data-name="Grupo 1082724" transform="translate(112.124 74.402)">
        <path id="Trazado_720585" data-name="Trazado 720585" d="M299.82,301.4H290.8c0-.4,9.02-.4,9.02-.4C300.02,301.321,299.94,301.4,299.82,301.4Z" transform="translate(-290.8 -301)" fill="#1a1a1a"/>
      </g>
      <g id="Grupo_1082728" data-name="Grupo 1082728" transform="translate(94.165 51.432)">
        <g id="Grupo_1082725" data-name="Grupo 1082725">
          <path id="Trazado_720586" data-name="Trazado 720586" d="M257.1,244.1H246c0-.4,11.144-.4,11.144-.4C257.3,244.021,257.225,244.1,257.1,244.1Z" transform="translate(-246 -243.7)" fill="#1a1a1a"/>
        </g>
        <g id="Grupo_1082726" data-name="Grupo 1082726" transform="translate(7.416 2.405)">
          <path id="Trazado_720587" data-name="Trazado 720587" d="M268.91,250.1H264.5c0-.4,4.41-.4,4.41-.4C269.11,250.021,269.03,250.1,268.91,250.1Z" transform="translate(-264.5 -249.7)" fill="#1a1a1a"/>
        </g>
        <g id="Grupo_1082727" data-name="Grupo 1082727" transform="translate(0.681 2.405)">
          <path id="Trazado_720588" data-name="Trazado 720588" d="M252.27,250.1H247.7c0-.4,4.57-.4,4.57-.4C252.47,250.021,252.39,250.1,252.27,250.1Z" transform="translate(-247.7 -249.7)" fill="#1a1a1a"/>
        </g>
      </g>
      <g id="Grupo_1082731" data-name="Grupo 1082731" transform="translate(113.687 51.432)">
        <g id="Grupo_1082729" data-name="Grupo 1082729">
          <path id="Trazado_720589" data-name="Trazado 720589" d="M305.844,244.1H294.7c0-.4,11.144-.4,11.144-.4C306.045,244.021,305.924,244.1,305.844,244.1Z" transform="translate(-294.7 -243.7)" fill="#1a1a1a"/>
        </g>
        <g id="Grupo_1082730" data-name="Grupo 1082730" transform="translate(0.722 2.405)">
          <path id="Trazado_720590" data-name="Trazado 720590" d="M306.963,250.1H296.5c0-.4,10.463-.4,10.463-.4C307.163,250.021,307.083,250.1,306.963,250.1Z" transform="translate(-296.5 -249.7)" fill="#1a1a1a"/>
        </g>
      </g>
      <g id="Grupo_1082736" data-name="Grupo 1082736" transform="translate(96.771 58.728)">
        <g id="Grupo_1082732" data-name="Grupo 1082732" transform="translate(6.574)">
          <path id="Trazado_720591" data-name="Trazado 720591" d="M273.43,262.3H268.9c0-.4,4.53-.4,4.53-.4C273.63,262.221,273.55,262.3,273.43,262.3Z" transform="translate(-268.9 -261.9)" fill="#1a1a1a"/>
        </g>
        <g id="Grupo_1082733" data-name="Grupo 1082733">
          <path id="Trazado_720592" data-name="Trazado 720592" d="M256.469,262.3H252.5c0-.4,3.969-.4,3.969-.4C256.629,262.221,256.549,262.3,256.469,262.3Z" transform="translate(-252.5 -261.9)" fill="#1a1a1a"/>
        </g>
        <g id="Grupo_1082734" data-name="Grupo 1082734" transform="translate(7.456 2.405)">
          <path id="Trazado_720593" data-name="Trazado 720593" d="M273.265,268.3H271.1c0-.4,2.165-.4,2.165-.4C273.465,268.221,273.385,268.3,273.265,268.3Z" transform="translate(-271.1 -267.9)" fill="#1a1a1a"/>
        </g>
        <g id="Grupo_1082735" data-name="Grupo 1082735" transform="translate(0.681 2.405)">
          <path id="Trazado_720594" data-name="Trazado 720594" d="M254.6,268.3h-.4a.393.393,0,0,1,.4-.4C254.8,268.221,254.681,268.3,254.6,268.3Z" transform="translate(-254.2 -267.9)" fill="#1a1a1a"/>
        </g>
      </g>
      <g id="Grupo_1082739" data-name="Grupo 1082739" transform="translate(116.293 58.728)">
        <g id="Grupo_1082737" data-name="Grupo 1082737">
          <path id="Trazado_720595" data-name="Trazado 720595" d="M309.739,262.3H301.2c0-.4,8.539-.4,8.539-.4C309.939,262.221,309.819,262.3,309.739,262.3Z" transform="translate(-301.2 -261.9)" fill="#1a1a1a"/>
        </g>
        <g id="Grupo_1082738" data-name="Grupo 1082738" transform="translate(0.722 2.405)">
          <path id="Trazado_720596" data-name="Trazado 720596" d="M311.017,268.3H303c0-.4,8.017-.4,8.017-.4C311.218,268.221,311.1,268.3,311.017,268.3Z" transform="translate(-303 -267.9)" fill="#1a1a1a"/>
        </g>
      </g>
      <g id="Grupo_1082742" data-name="Grupo 1082742" transform="translate(109.478 66.024)">
        <g id="Grupo_1082740" data-name="Grupo 1082740">
          <path id="Trazado_720597" data-name="Trazado 720597" d="M285.162,280.5H284.2c0-.4.962-.4.962-.4C285.322,280.421,285.242,280.5,285.162,280.5Z" transform="translate(-284.2 -280.1)" fill="#1a1a1a"/>
        </g>
        <g id="Grupo_1082741" data-name="Grupo 1082741" transform="translate(0.762 2.405)">
          <path id="Trazado_720598" data-name="Trazado 720598" d="M286.982,286.5H286.1c0-.4.882-.4.882-.4C287.182,286.421,287.1,286.5,286.982,286.5Z" transform="translate(-286.1 -286.1)" fill="#1a1a1a"/>
        </g>
      </g>
      <g id="Grupo_1082745" data-name="Grupo 1082745" transform="translate(118.818 66.024)">
        <g id="Grupo_1082743" data-name="Grupo 1082743">
          <path id="Trazado_720599" data-name="Trazado 720599" d="M317.442,280.5H307.5c0-.4,9.942-.4,9.942-.4C317.642,280.421,317.562,280.5,317.442,280.5Z" transform="translate(-307.5 -280.1)" fill="#1a1a1a"/>
        </g>
        <g id="Grupo_1082744" data-name="Grupo 1082744" transform="translate(0.722 2.405)">
          <path id="Trazado_720600" data-name="Trazado 720600" d="M314.511,286.5H309.3c0-.4,5.211-.4,5.211-.4C314.712,286.421,314.632,286.5,314.511,286.5Z" transform="translate(-309.3 -286.1)" fill="#1a1a1a"/>
        </g>
      </g>
      <g id="Grupo_1082746" data-name="Grupo 1082746" transform="translate(25.665 40.125)">
        <path id="Trazado_720601" data-name="Trazado 720601" d="M77.96,224.716c-2.245-.561-3.007-2.926-2.806-4.891a4.564,4.564,0,0,1,4.41-4.329,3.958,3.958,0,0,1,3.327,1.243c1.443,1.684.882,4.49.842,4.61-.361-.12.16-2.806-1.122-4.37a3.583,3.583,0,0,0-3.007-1.122,4.177,4.177,0,0,0-4.049,3.969c-.2,1.8.481,3.929,2.485,4.45C78.12,224.676,78.04,224.716,77.96,224.716Z" transform="translate(-75.123 -215.493)" fill="#1a1a1a"/>
      </g>
      <g id="Grupo_1082747" data-name="Grupo 1082747" transform="translate(16.315 60.772)">
        <path id="Trazado_720602" data-name="Trazado 720602" d="M51.8,275.458A53.475,53.475,0,0,1,69.158,267a76.608,76.608,0,0,0-17.237,8.418C51.88,275.418,51.84,275.458,51.8,275.458Z" transform="translate(-51.8 -267)" fill="#1a1a1a"/>
      </g>
      <g id="Grupo_1082748" data-name="Grupo 1082748" transform="translate(42.573 58.247)">
        <path id="Trazado_720603" data-name="Trazado 720603" d="M117.3,261.542a8.685,8.685,0,0,1,3.047-.842,10.14,10.14,0,0,1-3.047.842Z" transform="translate(-117.3 -260.7)" fill="#1a1a1a"/>
      </g>
      <g id="Grupo_1082749" data-name="Grupo 1082749" transform="translate(16.436 32.19)">
        <path id="Trazado_720604" data-name="Trazado 720604" d="M52.1,204.639A53.688,53.688,0,0,1,70.58,195.9c.241-.08.481-.12.722-.2a.731.731,0,0,1-.641.561A62.983,62.983,0,0,0,52.18,204.6C52.18,204.639,52.14,204.639,52.1,204.639Z" transform="translate(-52.1 -195.7)" fill="#1a1a1a"/>
      </g>
      <g id="Grupo_1082750" data-name="Grupo 1082750" transform="translate(41.53 30.226)">
        <path id="Trazado_720605" data-name="Trazado 720605" d="M114.7,191.8a12.479,12.479,0,0,1,4.089-1,18.46,18.46,0,0,1-4.089,1Z" transform="translate(-114.7 -190.8)" fill="#1a1a1a"/>
      </g>
      <g id="Grupo_1082751" data-name="Grupo 1082751" transform="translate(64.692 32.442)">
        <path id="Trazado_720606" data-name="Trazado 720606" d="M172.567,233.117c-.2-.2,0-7.536,0-7.536.762-.641,1.443-1.163,2.085-1.644l.12-27.58c.281-.16,1.563.4,1.964.6,4.049,1.884,6.735,4.77,7.737,8.338,1.644,5.893-1.884,12.828-9.5,18.881-.722.561-1.363,1.042-2.044,1.563l-.2,7.216A.172.172,0,0,1,172.567,233.117Zm2.606-36.479-.12,26.979c7.3-5.893,10.663-12.587,9.06-18.24-.962-3.448-3.568-6.254-7.536-8.1C176.295,197.159,175.573,196.839,175.173,196.638Z" transform="translate(-172.478 -196.329)" fill="#1a1a1a"/>
      </g>
      <g id="Grupo_1082752" data-name="Grupo 1082752" transform="translate(64.139 69.07)">
        <path id="Trazado_720607" data-name="Trazado 720607" d="M171.139,309.107c-.2-.2.4-21.407.4-21.407.4,0-.2,21.246-.2,21.246A.22.22,0,0,1,171.139,309.107Z" transform="translate(-171.098 -287.7)" fill="#1a1a1a"/>
      </g>
      <g id="Grupo_1082753" data-name="Grupo 1082753" transform="translate(64.18 65.182)">
        <path id="Trazado_720608" data-name="Trazado 720608" d="M171.2,303.3c7.576-5.532,12.146-11.746,12.507-17.4V278c.4,0,.4,7.657.4,7.657-.361,6.013-5.011,12.347-12.788,17.6C171.28,303.255,171.24,303.3,171.2,303.3Z" transform="translate(-171.2 -278)" fill="#1a1a1a"/>
      </g>
      <g id="Grupo_1082754" data-name="Grupo 1082754" transform="translate(76.687 43.695)">
        <path id="Trazado_720609" data-name="Trazado 720609" d="M202.6,241.638c-.2-.2-.2-17.238-.2-17.238.4,0,.4,17.037.4,17.037A.189.189,0,0,1,202.6,241.638Z" transform="translate(-202.4 -224.4)" fill="#1a1a1a"/>
      </g>
      <g id="Grupo_1082755" data-name="Grupo 1082755" transform="translate(45.483 92.561)">
        <path id="Trazado_720610" data-name="Trazado 720610" d="M124.7,352.594c-.2-.2-.12-6.294-.12-6.294.4,0,.321,6.133.321,6.133A.183.183,0,0,1,124.7,352.594Z" transform="translate(-124.561 -346.3)" fill="#1a1a1a"/>
      </g>
      <g id="Grupo_1082756" data-name="Grupo 1082756" transform="translate(45.719 70.513)">
        <path id="Trazado_720611" data-name="Trazado 720611" d="M125.249,303.527c-.2-.2-.04-12.227-.04-12.227.4,0,.241,12.026.241,12.026A.189.189,0,0,1,125.249,303.527Z" transform="translate(-125.149 -291.3)" fill="#1a1a1a"/>
      </g>
      <g id="Grupo_1082757" data-name="Grupo 1082757" transform="translate(11.786 70.233)">
        <path id="Trazado_720612" data-name="Trazado 720612" d="M56.7,293.727c-6.254,0-11.866-1.042-16.2-3.127,8.258,3.568,21.126,3.768,33.794.2l.361-.12a.373.373,0,0,1-.241.481A65.516,65.516,0,0,1,56.7,293.727Z" transform="translate(-40.5 -290.6)" fill="#1a1a1a"/>
      </g>
      <g id="Grupo_1082758" data-name="Grupo 1082758" transform="translate(3.488 58.888)">
        <path id="Trazado_720613" data-name="Trazado 720613" d="M22.847,269.8a10.677,10.677,0,0,1-3.047-7.5,21.074,21.074,0,0,1,.762,2.806,11.041,11.041,0,0,0,2.445,4.37C22.927,269.8,22.887,269.8,22.847,269.8Z" transform="translate(-19.8 -262.3)" fill="#1a1a1a"/>
      </g>
      <g id="Grupo_1082759" data-name="Grupo 1082759" transform="translate(21.407 80.615)">
        <path id="Trazado_720614" data-name="Trazado 720614" d="M71.074,317.342A49.355,49.355,0,0,1,64.5,316.9a79.135,79.135,0,0,0,13.63-.4A25.693,25.693,0,0,1,71.074,317.342Z" transform="translate(-64.5 -316.5)" fill="#1a1a1a"/>
      </g>
      <g id="Grupo_1082760" data-name="Grupo 1082760" transform="translate(21.046 83.943)">
        <path id="Trazado_720615" data-name="Trazado 720615" d="M70.535,325.6a48.307,48.307,0,0,1-6.935-.481,82.449,82.449,0,0,0,13.95-.321A26.754,26.754,0,0,1,70.535,325.6Z" transform="translate(-63.6 -324.8)" fill="#1a1a1a"/>
      </g>
      <g id="Grupo_1082761" data-name="Grupo 1082761" transform="translate(3.488 67.988)">
        <path id="Trazado_720616" data-name="Trazado 720616" d="M44.293,318.433a45.663,45.663,0,0,1-9.581-.962c-7.937-1.684-13.068-5.452-14.512-10.623a11.394,11.394,0,0,1-.4-2.646V285c.4,0,.4,19.2.4,19.2a10.39,10.39,0,0,0,.4,2.525c1.4,5.011,6.454,8.7,14.231,10.343,7.817,1.684,17.438,1.082,27.1-1.6A53.759,53.759,0,0,1,44.293,318.433Z" transform="translate(-19.8 -285)" fill="#1a1a1a"/>
      </g>
      <g id="Grupo_1082762" data-name="Grupo 1082762" transform="translate(3.488 59.249)">
        <path id="Trazado_720617" data-name="Trazado 720617" d="M20,272.139c-.2-.2-.2-8.939-.2-8.939.4,0,.4,8.739.4,8.739C20.161,272.059,20.081,272.139,20,272.139Z" transform="translate(-19.8 -263.2)" fill="#1a1a1a"/>
      </g>
      <g id="Grupo_1082763" data-name="Grupo 1082763" transform="translate(16.235 40.969)">
        <path id="Trazado_720618" data-name="Trazado 720618" d="M51.8,245.861c-.2-.2-.2-28.261-.2-28.261.4,0,.4,28.1.4,28.1A.282.282,0,0,1,51.8,245.861Z" transform="translate(-51.6 -217.6)" fill="#1a1a1a"/>
      </g>
      <g id="Grupo_1082764" data-name="Grupo 1082764" transform="translate(45.419 30.426)">
        <path id="Trazado_720619" data-name="Trazado 720619" d="M124.6,219.481c-.2-.2-.2-28.181-.2-28.181.4,0,.4,27.981.4,27.981A.189.189,0,0,1,124.6,219.481Z" transform="translate(-124.4 -191.3)" fill="#1a1a1a"/>
      </g>
      <g id="Grupo_1082765" data-name="Grupo 1082765" transform="translate(67.707 67.026)">
        <path id="Trazado_720620" data-name="Trazado 720620" d="M180,288.453c1.483-1.563,3.808-3.528,5.813-5.853a26.191,26.191,0,0,1-5.692,5.813C180.08,288.413,180.04,288.453,180,288.453Z" transform="translate(-180 -282.6)" fill="#1a1a1a"/>
      </g>
      <g id="Grupo_1082766" data-name="Grupo 1082766" transform="translate(52.194 74.843)">
        <path id="Trazado_720621" data-name="Trazado 720621" d="M141.3,323.106c6.855-.4,10.583-13.269,12.227-21.006C152.244,310.037,148.4,323.106,141.3,323.106Z" transform="translate(-141.3 -302.1)" fill="#1a1a1a"/>
      </g>
      <g id="Grupo_1082767" data-name="Grupo 1082767" transform="translate(50.185 65.663)">
        <path id="Trazado_720622" data-name="Trazado 720622" d="M136.294,289.061c-.16-.281,4.249-9.862,4.249-9.862.361.16-4.089,9.741-4.089,9.741C136.454,289.021,136.374,289.061,136.294,289.061Z" transform="translate(-136.289 -279.2)" fill="#1a1a1a"/>
      </g>
      <g id="Grupo_1082768" data-name="Grupo 1082768" transform="translate(62.656 67.587)">
        <path id="Trazado_720623" data-name="Trazado 720623" d="M167.4,286.485A13.313,13.313,0,0,0,169.364,284a3.482,3.482,0,0,1-1.844,2.445C167.48,286.445,167.44,286.485,167.4,286.485Z" transform="translate(-167.4 -284)" fill="#1a1a1a"/>
      </g>
      <g id="Grupo_1082769" data-name="Grupo 1082769" transform="translate(36.319 80.054)">
        <path id="Trazado_720624" data-name="Trazado 720624" d="M101.7,319.309c.12-.4,11.986-1.4,17.077-4.209-4.971,3.167-16.957,4.209-17.077,4.209Z" transform="translate(-101.7 -315.1)" fill="#1a1a1a"/>
      </g>
      <g id="Grupo_1082770" data-name="Grupo 1082770" transform="translate(36.319 89.755)">
        <path id="Trazado_720625" data-name="Trazado 720625" d="M101.7,343.509c.12-.4,11.986-1.4,17.077-4.209-4.971,3.207-16.957,4.209-17.077,4.209Z" transform="translate(-101.7 -339.3)" fill="#1a1a1a"/>
      </g>
      <g id="Grupo_1082771" data-name="Grupo 1082771" transform="translate(36.119 84.063)">
        <path id="Trazado_720626" data-name="Trazado 720626" d="M101.4,335.042c-.2-.2-.2-9.942-.2-9.942.4,0,.4,9.741.4,9.741C101.561,334.962,101.481,335.042,101.4,335.042Z" transform="translate(-101.2 -325.1)" fill="#1a1a1a"/>
      </g>
      <g id="Grupo_1082772" data-name="Grupo 1082772" transform="translate(53.276 80.214)">
        <path id="Trazado_720627" data-name="Trazado 720627" d="M144.2,325.442c-.2-.2-.2-9.942-.2-9.942.4,0,.4,9.741.4,9.741C144.361,325.362,144.281,325.442,144.2,325.442Z" transform="translate(-144 -315.5)" fill="#1a1a1a"/>
      </g>
      <g id="Grupo_1082773" data-name="Grupo 1082773" transform="translate(152.491 35.198)">
        <path id="Trazado_720628" data-name="Trazado 720628" d="M392.9,211.9a9.922,9.922,0,0,1-1.4-3.327c0-.16.281-3.848,3.528-5.011a6.481,6.481,0,0,1,5.412.561c.561-.16,3.327-.842,4.41,1.523a9.552,9.552,0,0,1,.321,5.652c-.361-.12.441-3.087-.641-5.492-1.042-2.325-3.888-1.323-4.009-1.283a6.563,6.563,0,0,0-5.291-.6c-3.047,1.082-3.287,4.53-3.287,4.69a12.549,12.549,0,0,0,1.2,3.047Z" transform="translate(-391.497 -203.203)" fill="#1a1a1a"/>
      </g>
      <g id="Grupo_1082774" data-name="Grupo 1082774" transform="translate(11.465 51.472)">
        <path id="Trazado_720629" data-name="Trazado 720629" d="M39.9,254.824c-.2-.2-.2-8.579-.2-8.579a31.435,31.435,0,0,1,4.77-2.445c.12.361-2.926,1.644-4.41,2.566V254.3a37.582,37.582,0,0,1,4.41-2.085c.12.361-3.087,1.684-4.49,2.606C39.981,254.784,39.941,254.824,39.9,254.824Z" transform="translate(-39.7 -243.8)" fill="#33ece0"/>
      </g>
      <g id="Grupo_1082775" data-name="Grupo 1082775" transform="translate(57.325 34.916)">
        <path id="Trazado_720630" data-name="Trazado 720630" d="M154.3,209.8c-.2-.2-.2-7.3-.2-7.3,6.855.16,9.741,1.924,9.861,2-.241.321-3.087-1.443-9.461-1.8V209.6A.189.189,0,0,1,154.3,209.8Z" transform="translate(-154.1 -202.5)" fill="#1a1a1a"/>
      </g>
      <g id="Grupo_1082776" data-name="Grupo 1082776" transform="translate(57.525 42.211)">
        <path id="Trazado_720631" data-name="Trazado 720631" d="M164.141,222.864c-.12-.04-3.047-1.844-9.541-2.165,6.654-.04,9.541,1.764,9.661,1.844C164.261,222.824,164.221,222.864,164.141,222.864Z" transform="translate(-154.6 -220.698)" fill="#1a1a1a"/>
      </g>
      <g id="Grupo_1082777" data-name="Grupo 1082777" transform="translate(155.292 42.343)">
        <path id="Trazado_720632" data-name="Trazado 720632" d="M400.054,226.267a1.762,1.762,0,0,1-1.082-.281,1.068,1.068,0,0,1-.481-.722,2.017,2.017,0,0,1,.441-1.323,4.933,4.933,0,0,0,.762-1.243,1.855,1.855,0,0,0-.16-1.644c.321-.2.962.641.521,1.8a5.2,5.2,0,0,1-.842,1.363,1.354,1.354,0,0,0-.361,1,.659.659,0,0,0,.321.481,1.541,1.541,0,0,0,.842.2C400.255,226.187,400.135,226.267,400.054,226.267Z" transform="translate(-398.485 -221.026)" fill="#1a1a1a"/>
      </g>
      <g id="Grupo_1082781" data-name="Grupo 1082781" transform="translate(76.366 2.285)">
        <g id="Grupo_1082780" data-name="Grupo 1082780">
          <g id="Grupo_1082779" data-name="Grupo 1082779">
            <g id="Grupo_1082778" data-name="Grupo 1082778">
              <path id="Trazado_720633" data-name="Trazado 720633" d="M218.958,156.657a17.918,17.918,0,0,1-17.358-13.87A18.358,18.358,0,0,0,218.958,156.3a17.4,17.4,0,1,0-14.912-26.377,16.589,16.589,0,0,1,14.912-8.819,17.779,17.779,0,1,1,0,35.557Z" transform="translate(-201.6 -121.1)" fill="#1a1a1a"/>
            </g>
          </g>
        </g>
      </g>
      <g id="Grupo_1082782" data-name="Grupo 1082782" transform="translate(82.259 11.184)">
        <path id="Trazado_720634" data-name="Trazado 720634" d="M224.478,160.5a2.18,2.18,0,0,1-1.6-.682l-5.893-5.893a2.247,2.247,0,0,1-.681-1.6,2.181,2.181,0,0,1,.681-1.6l.8-.8a2.247,2.247,0,0,1,1.6-.681,2.18,2.18,0,0,1,1.6.681l3.488,3.488,9.7-9.421a2.247,2.247,0,0,1,1.6-.681,2.18,2.18,0,0,1,1.6.681l.8.8a2.323,2.323,0,0,1,0,3.247l-12.146,11.826A2.144,2.144,0,0,1,224.478,160.5Zm-5.091-10.864a1.909,1.909,0,0,0-1.363.561l-.8.8a1.909,1.909,0,0,0-.561,1.363,1.753,1.753,0,0,0,.561,1.323l5.893,5.893a1.936,1.936,0,0,0,2.726,0l12.146-11.826a1.937,1.937,0,0,0,0-2.686l-.8-.8a1.936,1.936,0,0,0-2.726,0L224.6,153.8a49.135,49.135,0,0,1-3.888-3.608A1.753,1.753,0,0,0,219.387,149.634Z" transform="translate(-216.3 -143.3)" fill="#1a1a1a"/>
      </g>
      <g id="Grupo_1082783" data-name="Grupo 1082783" transform="translate(28.662 3.311)">
        <path id="Trazado_720635" data-name="Trazado 720635" d="M83.081,151.737a4.818,4.818,0,0,1-.481-2.365c.441,1.323.641,2.125.641,2.125C83.121,151.737,83.121,151.737,83.081,151.737Zm-.241-4.41a6.713,6.713,0,0,1,.08-2.405,6.15,6.15,0,0,1,.12,2.245A.183.183,0,0,1,82.841,147.327Zm.8-4.329a.242.242,0,0,1-.2-.241,18.444,18.444,0,0,1,.762-2.085,5.678,5.678,0,0,1-.4,2.2A.179.179,0,0,1,83.642,143Zm1.724-4.049a6.025,6.025,0,0,1,1-2.165,5.7,5.7,0,0,1-.842,2.085A.3.3,0,0,1,85.366,138.949Zm2.525-3.648a5.2,5.2,0,0,1,1.363-1.964,5.632,5.632,0,0,1-1.2,1.884C87.972,135.3,87.932,135.3,87.892,135.3Zm3.127-3.087a5.237,5.237,0,0,1,1.644-1.724,5.017,5.017,0,0,1-1.523,1.644C91.1,132.174,91.058,132.214,91.018,132.214Zm3.568-2.606a5.177,5.177,0,0,1,1.8-1.483,5.147,5.147,0,0,1-1.684,1.443A.311.311,0,0,1,94.586,129.608Zm35.4-.241c-.681-.441-1.323-.8-1.964-1.2a4.044,4.044,0,0,1,2.085.842C130.1,129.328,130.023,129.368,129.983,129.368Zm-31.549-1.884a5.059,5.059,0,0,1,1.924-1.283,5.007,5.007,0,0,1-1.844,1.243C98.475,127.444,98.475,127.484,98.434,127.484Zm27.7-.321c-.722-.321-1.4-.641-2.085-.882a3.862,3.862,0,0,1,2.165.521C126.3,127.123,126.215,127.163,126.135,127.163Zm-23.611-1.4a4.737,4.737,0,0,1,2.044-1.042,4.977,4.977,0,0,1-2,1A.039.039,0,0,1,102.523,125.76Zm19.522-.241q-1.142-.361-2.165-.6a3.885,3.885,0,0,1,2.245.241C122.206,125.479,122.126,125.519,122.046,125.519Zm-15.273-.882a4.1,4.1,0,0,1,2.165-.722,6.007,6.007,0,0,1-2.165.722Zm10.984-.16a22.12,22.12,0,0,0-2.2-.281,3.91,3.91,0,0,1,2.245-.08C117.917,124.4,117.837,124.477,117.756,124.477Zm-6.614-.4a3.623,3.623,0,0,1,2.2-.4,5.248,5.248,0,0,1-2.2.4Z" transform="translate(-82.6 -123.659)" fill="#1a1a1a"/>
      </g>
      <g id="Grupo_1082784" data-name="Grupo 1082784" transform="translate(113.681 2.325)">
        <path id="Trazado_720636" data-name="Trazado 720636" d="M359.792,175c-.16-.321.281-.882.842-1.884a5.38,5.38,0,0,1-.681,1.8A.16.16,0,0,1,359.792,175Zm2.044-3.568a10.228,10.228,0,0,1,.722-2.285,3.862,3.862,0,0,1-.521,2.165C361.957,171.389,361.917,171.429,361.837,171.429Zm1.6-4.089a.242.242,0,0,1-.2-.241c.2-.722.4-1.4.561-2.125a4.241,4.241,0,0,1-.2,2.245C363.6,167.3,363.52,167.34,363.44,167.34Zm1-4.329a15.465,15.465,0,0,1,.04-2.405,3.92,3.92,0,0,1,.16,2.245A.2.2,0,0,1,364.442,163.011Zm.24-4.37a20.488,20.488,0,0,1-.321-2.365,3.552,3.552,0,0,1,.521,2.165Zm-.481-4.41c-.321-.882-.521-1.563-.722-2.285a4.118,4.118,0,0,1,.922,2.044C364.242,154.232,364.2,154.232,364.2,154.232ZM327,150.744a2.5,2.5,0,0,1-1.363-.441,4.663,4.663,0,0,0,2.125-.08A.731.731,0,0,1,327,150.744Zm35.958-.722c-.441-.8-.722-1.483-1.042-2.125a4.091,4.091,0,0,1,1.243,1.884C363,149.983,363,150.023,362.959,150.023Zm-33.433-.842a18.379,18.379,0,0,1,.962-2.165,3.048,3.048,0,0,1-.8,2.085A.3.3,0,0,1,329.526,149.181Zm-5.131-.561a6.334,6.334,0,0,1-.842-2.285,11.665,11.665,0,0,1,1,2C324.435,148.62,324.4,148.62,324.4,148.62Zm36.64-2.566c-.521-.722-.922-1.323-1.323-1.964a4.246,4.246,0,0,1,1.523,1.644C361.115,146.014,361.075,146.054,361.035,146.054Zm-29.7-.882a22.574,22.574,0,0,1,.08-2.405,3.346,3.346,0,0,1,.12,2.245A.2.2,0,0,1,331.33,145.172Zm-7.657-.882a5.049,5.049,0,0,1,.281-2.405,10.333,10.333,0,0,1-.08,2.245A.183.183,0,0,1,323.674,144.29Zm34.876-1.884c-.6-.641-1.082-1.2-1.6-1.724a4,4,0,0,1,1.724,1.4C358.63,142.366,358.59,142.406,358.549,142.406Zm-27.059-1.6c-.281-.882-.4-1.6-.6-2.325a3.566,3.566,0,0,1,.8,2.085C331.531,140.8,331.491,140.8,331.491,140.8Zm-6.334-.6a3.572,3.572,0,0,1,1.4-1.924,9.251,9.251,0,0,1-1.243,1.844A.208.208,0,0,1,325.157,140.2Zm30.346-1c-.682-.521-1.243-.962-1.844-1.4a3.9,3.9,0,0,1,1.964,1.042C355.583,139.2,355.543,139.2,355.5,139.2Zm-26.939-1.764a3.374,3.374,0,0,1,1.6-1.163,15.006,15.006,0,0,0-.882-1.8,3.222,3.222,0,0,1,1.243,1.684,5.492,5.492,0,0,1-1.844,1.283Zm23.331-.762q-1.082-.541-2.044-.962a3.6,3.6,0,0,1,2.165.6C352.015,136.634,351.935,136.674,351.895,136.674Zm-19.282-.962a4.2,4.2,0,0,1,2.085-1,5.245,5.245,0,0,1-2,1Zm15.193-.722c-.762-.2-1.443-.361-2.165-.521a3.871,3.871,0,0,1,2.245.12C347.966,134.95,347.886,134.99,347.806,134.99Zm-10.944-.4a3.819,3.819,0,0,1,2.165-.681,5.085,5.085,0,0,1-2.165.681Zm6.614-.4c-.722-.04-1.483-.08-2.2-.08a3.872,3.872,0,0,1,2.2-.321C343.677,134.108,343.557,134.188,343.477,134.188Zm-15.233-1.483c-.561-.681-1.042-1.243-1.523-1.8a3.819,3.819,0,0,1,1.684,1.483C328.324,132.665,328.284,132.705,328.243,132.705Zm-2.926-3.327c-.641-.521-1.2-1-1.8-1.483a3.848,3.848,0,0,1,1.924,1.122C325.437,129.378,325.357,129.378,325.317,129.378Zm-3.488-2.726c-.722-.441-1.323-.8-1.964-1.163a4.005,4.005,0,0,1,2.085.8C321.95,126.652,321.91,126.652,321.83,126.652Zm-27.139-2.044c-.08-.361.6-.842,1.844-1.443-1.042.922-1.724,1.4-1.724,1.4A.147.147,0,0,1,294.69,124.607Zm23.291-.08c-.762-.321-1.443-.641-2.085-.882a3.946,3.946,0,0,1,2.165.521C318.142,124.487,318.061,124.527,317.981,124.527Zm-4.089-1.6q-1.142-.361-2.165-.6a4.242,4.242,0,0,1,2.245.2C314.013,122.844,313.972,122.924,313.892,122.924Zm-15.233-.2a4.125,4.125,0,0,1,2.085-.962,6.327,6.327,0,0,1-2.044.962Zm10.9-.842a21.779,21.779,0,0,0-2.2-.24,3.908,3.908,0,0,1,2.245-.12C309.763,121.841,309.683,121.881,309.563,121.881Zm-6.574-.12a4.026,4.026,0,0,1,2.2-.561,5.132,5.132,0,0,1-2.2.561Z" transform="translate(-294.684 -121.2)" fill="#1a1a1a"/>
      </g>
      <g id="Grupo_1082785" data-name="Grupo 1082785" transform="translate(160.509 34.515)">
        <path id="Trazado_720637" data-name="Trazado 720637" d="M412.382,203.224c-.16-.04-.2-.12-.2-.241a1.636,1.636,0,0,0-.681-1.483c1.323.6,1.082,1.523,1.042,1.563A.172.172,0,0,1,412.382,203.224Z" transform="translate(-411.5 -201.5)" fill="#1a1a1a"/>
      </g>
      <g id="Grupo_1082786" data-name="Grupo 1082786" transform="translate(161.754 34.916)">
        <path id="Trazado_720638" data-name="Trazado 720638" d="M414.724,203.943a1.36,1.36,0,0,1,.24-1.443c0,.641-.04,1.283-.04,1.283A.266.266,0,0,1,414.724,203.943Z" transform="translate(-414.606 -202.5)" fill="#1a1a1a"/>
      </g>
      <g id="Grupo_1082787" data-name="Grupo 1082787" transform="translate(154.492 85.105)">
        <path id="Trazado_720639" data-name="Trazado 720639" d="M413.611,341.129c-.08,0-17.117-7.336-17.117-7.336-.12-.241,2.405-6.093,2.405-6.093.361.16-2.085,5.813-2.085,5.813l16.676,7.176.16-.361c.361.16.12.681.12.681C413.731,341.089,413.691,341.129,413.611,341.129Z" transform="translate(-396.49 -327.7)" fill="#1a1a1a"/>
      </g>
      <g id="Grupo_1082788" data-name="Grupo 1082788" transform="translate(159.93 66.463)">
        <path id="Trazado_720640" data-name="Trazado 720640" d="M427.231,300.4c-.16-.281,4.73-11.746,4.73-11.746l-16.676-7.136-5.211,12.106C409.713,293.465,415,281.2,415,281.2c.241-.12,17.278,7.216,17.278,7.216.12.241-4.891,11.906-4.891,11.906C427.391,300.36,427.311,300.4,427.231,300.4Z" transform="translate(-410.056 -281.196)" fill="#1a1a1a"/>
      </g>
      <g id="Grupo_1082789" data-name="Grupo 1082789" transform="translate(178.508 100.659)">
        <path id="Trazado_720641" data-name="Trazado 720641" d="M456.6,373.756c0-2.926-.2-7.216-.2-7.256.4.04.6,4.329.4,7.055C456.761,373.676,456.681,373.756,456.6,373.756Z" transform="translate(-456.4 -366.5)" fill="#1a1a1a"/>
      </g>
      <g id="Grupo_1082790" data-name="Grupo 1082790" transform="translate(92.962 89.956)">
        <path id="Trazado_720642" data-name="Trazado 720642" d="M251.819,348.5h-6.334c-.2-.16-2.485-8.458-2.485-8.458.2-.241,9.06-.241,9.06-.241.2.16,1.8,5.893,1.8,5.893-.361.12-1.924-5.532-1.924-5.532h-8.458l2.2,7.937h6.133C251.98,348.419,251.9,348.5,251.819,348.5Z" transform="translate(-243 -339.8)" fill="#1a1a1a"/>
      </g>
      <path id="Trazado_720643" data-name="Trazado 720643" d="M47.435,308.564v6.374s-4.049.04-6.735-2.165V306.2C40.7,306.159,42.624,308.043,47.435,308.564Z" transform="translate(-28.834 -229.713)" fill="#1a1a1a"/>
      <g id="Grupo_1082791" data-name="Grupo 1082791" transform="translate(67.868 73.44)">
        <path id="Trazado_720644" data-name="Trazado 720644" d="M180.4,301.887c1.2-1.283,2.405-2.285,3.528-3.287a13.193,13.193,0,0,1-3.407,3.247A.147.147,0,0,1,180.4,301.887Z" transform="translate(-180.4 -298.6)" fill="#1a1a1a"/>
      </g>
      <g id="Grupo_1082792" data-name="Grupo 1082792" transform="translate(108.596 88.793)">
        <path id="Trazado_720645" data-name="Trazado 720645" d="M294.908,341.67c-.8-2.686-3.367-4.41-6.574-4.41A6.626,6.626,0,0,0,282,341.27c.521-2.686,3.207-4.37,6.334-4.37,3.407,0,6.133,1.844,6.775,4.57C294.948,341.67,294.948,341.67,294.908,341.67Z" transform="translate(-282 -336.9)" fill="#1a1a1a"/>
      </g>
    </g>
  </g>
</svg>
