<svg xmlns="http://www.w3.org/2000/svg" xmlns:xlink="http://www.w3.org/1999/xlink" width="1240" height="768" viewBox="0 0 1240 768">
  <defs>
    <linearGradient id="linear-gradient" x1="0.5" x2="0.5" y2="1" gradientUnits="objectBoundingBox">
      <stop offset="0" stop-color="#e4fdfb"/>
      <stop offset="1" stop-color="#edf2fa"/>
    </linearGradient>
  </defs>
  <g id="Grupo_1082902" data-name="Grupo 1082902" transform="translate(-180 -10542)">
    <rect id="Rectángulo_380114" data-name="Rectángulo 380114" width="1240" height="768" transform="translate(180 10542)" fill="url(#linear-gradient)"/>
    <g id="_027" data-name="027" transform="translate(244.76 10647.937)">
      <path id="Trazado_720647" data-name="Trazado 720647" d="M531.884,413.02,581.276,491a19.2,19.2,0,0,1-16.267,29.477H431.72a19.182,19.182,0,0,1-16.267-8.971l-56-88.53A19.2,19.2,0,0,1,375.724,393.5H509.012a19.182,19.182,0,0,1,16.267,8.971l6.605,10.549Z" transform="translate(-2.986 -5.357)" fill="#ffce26"/>
      <path id="Trazado_720648" data-name="Trazado 720648" d="M460,418.14s5.127-8.577,15.084-1.282l55.5,49.983s5.225,7.394-5.521,8.38H451.619s-15.872.789-12.028-10.845Z" transform="translate(-4.154 -5.646)" fill="#fff"/>
      <path id="Trazado_720649" data-name="Trazado 720649" d="M785.869,206.22,906.144,396.294c19.717,31.153-2.662,71.869-39.632,71.869H541.868a46.934,46.934,0,0,1-39.632-21.788L365.695,230.669c-19.717-31.153,2.662-71.869,39.632-71.869H730.069A46.809,46.809,0,0,1,769.7,180.588l16.168,25.632Z" transform="translate(-3.014 -2.039)" fill="#fff"/>
      <path id="Trazado_720650" data-name="Trazado 720650" d="M691.661,318.979,670.07,284.77l-2.958-4.634a9.471,9.471,0,0,0-7.985-4.436H600.764a9.31,9.31,0,0,0-8.281,4.929,9.438,9.438,0,0,0,.3,9.661l24.548,38.843a9.471,9.471,0,0,0,7.985,4.436h58.363a9.31,9.31,0,0,0,8.281-4.929A9.43,9.43,0,0,0,691.661,318.979Z" transform="translate(-6.307 -3.692)" fill="#ffce26"/>
      <path id="Trazado_720651" data-name="Trazado 720651" d="M829.863,218.576a20.511,20.511,0,0,1,11.042,0c6.112,1.676,8.183,5.915,8.676,12.126.493,6.309-4.831,14.591-17.253,11.535,0,0-19.027,2.563-23.858,11.83-4.831,9.366-4.831,10.844-4.831,10.844s-3.648,14.1,1.676,21.1c0,0-21.492,2.958-24.942,10.845,0,0-12.126-4.042-16.464-5.324s-9.859-7.69-14-12.126-11.83-11.337-11.929-13.7.591-6.211,3.451-6.9,8.478-.394,14.591,6.7c6.014,7,9.957,8.971,10.154,7.591s-8.084-11.14-15.675-17.055c-7.492-5.915-18.633-14.591-20.309-16.562-1.676-1.873.789-7.2,3.056-8.281,2.366-1.084,5.915-1.873,12.323,2.76,6.408,4.732,11.535,8.774,11.535,8.774s8.676-7.2,18.436-1.38a9.7,9.7,0,0,1,9.267-.887l.69-3.648s-9.07-8.084-8.676-11.14,15.182-13.506,15.182-13.506L795.062,189s4.831,14,17.45,22.182C825.328,219.365,829.863,218.576,829.863,218.576Z" transform="translate(-8.263 -2.466)" fill="#fff"/>
      <path id="Trazado_720652" data-name="Trazado 720652" d="M594.66,314.1s-7.493,4.732-4.929,13.013c0,0-7.3,4.239-3.943,16.562s7.788,22.478,16.07,30.759c8.38,8.281,21.1,15.084,21.985,18.041a133.278,133.278,0,0,1,17.253-15.084,122.994,122.994,0,0,1,18.633-11.732s-16.168-25.83-19.126-32.829c-3.056-7-7.788-17.154-14.886-15.281s-5.817,9.464-3.648,15.182c2.07,5.718,8.084,16.858,1.774,18.14C617.532,352.056,613,340.225,613,340.225s-2.366-.986-7.394-9.661a109.7,109.7,0,0,0-10.943-15.577Z" transform="translate(-6.217 -4.235)" fill="#fff"/>
      <path id="Trazado_720653" data-name="Trazado 720653" d="M803.291,168.9c11.436-10.943,27.111-7.1,35.59-3.746s14.886,5.915,18.534,10.45c0,0,13.506,4.535,20.013,8.577s11.239,12.323,9.168,23.759c-1.972,11.337-9.168,21.393-9.168,21.393s-3.451,6.605,1.282,9.859c4.732,3.155,17.745,11.83,18.633,32.139s-12.718,31.35-26.717,31.843c-14,.394-31.646-4.436-32.632-7.2,0,0-18.633,8.478-30.167-6.605s.1-36.871,7-40.519a31.455,31.455,0,0,1,14.3-3.352,29.954,29.954,0,0,0,6.605-10.647c1.38-3.845-2.267-10.844-7.3-13.211a22.543,22.543,0,0,0-7.394-1.775s-16.07-3.845-24.351-25.238C796.686,194.331,791.855,179.839,803.291,168.9Z" transform="translate(-9.197 -2.079)" fill="#ffce26"/>
      <path id="Trazado_720654" data-name="Trazado 720654" d="M883.223,299.722s8.281,7.493,13.506,25.83c0,0,20.7,36.477,28.294,58.067,7.591,21.689,20.6,52.053,8.971,72.559s-32.829,18.83-37.364,17.351a177.042,177.042,0,0,0-.493,31.942c1.38,16.661,5.225,41.7,5.225,41.7H736.626s3.845-17.253,4.929-24.252,2.465-18.929,2.465-18.929-14.1,9.07-43.674-5.028-56.49-56.391-62.6-67.137-17.844-34.8-17.844-34.8,27.111-29.379,52.152-37.561l46.335,51.462s12.52-27.506,21.59-48.011c9.168-20.506,21.59-50.673,35-61.222s18.83-13.211,28.787-14.394c0,0,5.619,10.844,15.281,12.323a28.372,28.372,0,0,0,16.464-2.169s15.379,7.887,28.2,7.394C876.618,304.454,883.223,299.722,883.223,299.722Z" transform="translate(-6.711 -3.856)" fill="#1a1a1a"/>
      <path id="Trazado_720655" data-name="Trazado 720655" d="M697,52.977l21.59,34.209a8.414,8.414,0,0,1-7.1,12.915H653.127a8.31,8.31,0,0,1-7.1-3.943L621.481,57.315a8.414,8.414,0,0,1,7.1-12.915h58.462a8.31,8.31,0,0,1,7.1,3.943L697,52.977Z" transform="translate(-6.715 -0.421)" fill="#1a1a1a"/>
      <path id="Trazado_720656" data-name="Trazado 720656" d="M452.667,148.273l57.574,90.9a22.419,22.419,0,0,1-18.929,34.407H335.941a22.415,22.415,0,0,1-18.929-10.45L251.65,159.907A22.419,22.419,0,0,1,270.578,125.5H425.95a22.415,22.415,0,0,1,18.928,10.45l7.788,12.323Z" transform="translate(-1.455 -1.568)" fill="#ffce26"/>
      <path id="Trazado_720657" data-name="Trazado 720657" d="M729.788,239.4s-3.648,5.817,4.436,9.464l4.535-1.479C738.76,247.484,729.2,240.484,729.788,239.4Z" transform="translate(-8.254 -3.179)" fill="#ccc"/>
      <path id="Trazado_720658" data-name="Trazado 720658" d="M268.894,140.29H475.826l-13.6-20.6s-3.253-4.338-12.816-6.9-160.794.1-160.794.1S264.95,115.15,268.894,140.29Z" transform="translate(-1.742 -1.372)" fill="#1a1a1a"/>
      <path id="Trazado_720659" data-name="Trazado 720659" d="M453.821,130.3c-2.563,2.07-7,.887-9.957-2.662s-3.352-8.183-.789-10.253,7-.887,9.957,2.662C455.99,123.695,456.286,128.23,453.821,130.3Z" transform="translate(-4.187 -1.439)" fill="#3a3a3a"/>
      <path id="Trazado_720660" data-name="Trazado 720660" d="M430.022,130.3c-2.563,2.07-7,.887-9.957-2.662s-3.352-8.183-.789-10.253,7-.887,9.957,2.662C432.19,123.695,432.585,128.23,430.022,130.3Z" transform="translate(-3.851 -1.439)" fill="#fff"/>
      <path id="Trazado_720661" data-name="Trazado 720661" d="M406.821,130.3c-2.563,2.07-7,.887-9.957-2.662s-3.352-8.183-.789-10.253,7-.887,9.957,2.662C408.99,123.695,409.385,128.23,406.821,130.3Z" transform="translate(-3.523 -1.439)" fill="#fff"/>
      <path id="Trazado_720662" data-name="Trazado 720662" d="M177.85,240.293c-6.408,5.324-17.647,2.267-25.139-6.8s-8.38-20.6-1.972-25.928,17.647-2.267,25.139,6.8C183.272,223.336,184.159,234.969,177.85,240.293Z" transform="translate(-0.017 -2.691)" fill="#ffce26"/>
      <path id="Trazado_720663" data-name="Trazado 720663" d="M803.291,168.9c-11.436,10.943-6.605,25.534-6.605,25.534,8.281,21.393,24.351,25.238,24.351,25.238s1.282.1,2.958.394c-6.112-4.732-17.745-16.661-13.6-35.688,3.352-15.281,13.408-20.21,20.7-21.689C822.712,160.713,811.868,160.713,803.291,168.9Z" transform="translate(-9.197 -2.078)" fill="#fff"/>
      <path id="Trazado_720664" data-name="Trazado 720664" d="M824.394,299.344c-27.308-16.168-7.985-46.533,2.07-52.743a30.389,30.389,0,0,0-11.534,3.253c-6.9,3.648-18.534,25.534-7,40.519A21.781,21.781,0,0,0,824.394,299.344Z" transform="translate(-9.301 -3.28)" fill="#fff"/>
      <path id="Trazado_720665" data-name="Trazado 720665" d="M691.2,495.66s27.9,21.492,53.828,11.042c0,0,16.07-6.605,21.492-12.816,0,0-8.774-22.675-36.575-21.886C702.242,472.69,694.848,487.379,691.2,495.66Z" transform="translate(-7.72 -6.467)" fill="#ffce26"/>
      <g id="Grupo_1082794" data-name="Grupo 1082794" transform="translate(612.104 354.525)">
        <path id="Trazado_720666" data-name="Trazado 720666" d="M728.329,508.856c-42.195,0-85.77-55.8-109.529-110.219.2-1.282,9.267-13.013,23.365-22.576,18.731-12.718,28.886-16.562,29.28-16.661,1.775.789,56,55.307,72.757,88.826a1.149,1.149,0,0,1-.493,1.577,1.24,1.24,0,0,1-1.577-.493c-15.675-31.35-64.771-81.531-70.489-87.347-2.563,1.084-12.422,5.422-28.1,16.168a113.172,113.172,0,0,0-22.28,20.309c24.647,56.1,70.391,113.571,113.078,107.755,45.35-6.211,64.574-64.87,84.883-140.978a1.185,1.185,0,1,1,2.267.69c-20.6,77-40.125,136.345-86.854,142.753C732.568,508.758,730.4,508.856,728.329,508.856Z" transform="translate(-618.8 -359.4)" fill="#1a1a1a"/>
      </g>
      <g id="Grupo_1082795" data-name="Grupo 1082795" transform="translate(711.174 282.939)">
        <path id="Trazado_720667" data-name="Trazado 720667" d="M720.483,413.286c-1.084-.394-1.38-1.084-1.084-1.676,5.126-11.337,9.859-22.576,14.394-33.322,20.8-49.49,37.167-88.53,70.292-91.488a1.191,1.191,0,0,1,1.282,1.084,1.139,1.139,0,0,1-1.084,1.282c-31.745,2.76-47.913,41.308-68.32,90.009-4.535,10.844-9.267,22.083-14.394,33.421A1.337,1.337,0,0,1,720.483,413.286Z" transform="translate(-719.29 -286.787)" fill="#1a1a1a"/>
      </g>
      <g id="Grupo_1082800" data-name="Grupo 1082800" transform="translate(577.254 309.321)">
        <g id="Grupo_1082796" data-name="Grupo 1082796" transform="translate(28.28 2.07)">
          <path id="Trazado_720668" data-name="Trazado 720668" d="M660.112,365.978c-.986-.493-2.563-2.465-10.154-13.6a94.894,94.894,0,0,1-7.492-13.013c-.887-1.972-1.775-4.042-2.563-6.112a84.075,84.075,0,0,0-3.845-8.577c-.493-.887-.986-1.676-1.479-2.465a10.438,10.438,0,0,0-3.155-3.352,5.72,5.72,0,0,0-4.929-.394,6.572,6.572,0,0,0-4.042,4.042c-.887,2.859.2,6.211,1.183,9.267.591,1.577,1.183,3.155,1.873,4.732.69,1.775,1.479,3.648,2.07,5.521,1.084,2.662,2.958,7.394-3.352,10.45-4.929,2.366-8.38-4.239-10.647-8.676-.493-.986-.887-1.775-1.282-2.465a1.119,1.119,0,0,1,.394-1.577,1.14,1.14,0,0,1,1.577.394c.394.69.887,1.577,1.38,2.563,2.366,4.535,4.831,8.873,7.493,7.591,4.338-2.07,3.253-4.634,2.465-6.7-.887-2.662-1.676-4.436-2.366-6.112a42.28,42.28,0,0,1-1.873-4.929c-1.183-3.352-2.267-7.2-1.183-10.746a9.159,9.159,0,0,1,5.521-5.619,7.873,7.873,0,0,1,7,.592,13.416,13.416,0,0,1,3.845,4.042c.591.887,1.084,1.775,1.577,2.662a78.546,78.546,0,0,1,3.943,8.873c.789,1.972,1.577,4.042,2.465,5.915a85.6,85.6,0,0,0,7.3,12.619c7.493,10.943,9.07,12.915,9.07,13.013a1.231,1.231,0,0,1-.2,1.676A.541.541,0,0,1,660.112,365.978Z" transform="translate(-612.136 -315.648)" fill="#1a1a1a"/>
        </g>
        <g id="Grupo_1082797" data-name="Grupo 1082797" transform="translate(5.091)">
          <path id="Trazado_720669" data-name="Trazado 720669" d="M591.164,330.753c-1.183-.789-3.451-5.324-2.169-10.844.789-3.451,2.465-5.324,5.422-6.31a1.185,1.185,0,1,1,.69,2.267c-1.775.592-3.056,1.479-3.746,4.535a13.7,13.7,0,0,0,.887,8.577,1.149,1.149,0,0,1-.493,1.577A1.4,1.4,0,0,1,591.164,330.753Z" transform="translate(-588.614 -313.548)" fill="#1a1a1a"/>
        </g>
        <g id="Grupo_1082798" data-name="Grupo 1082798" transform="translate(6.44 14.822)">
          <path id="Trazado_720670" data-name="Trazado 720670" d="M605.971,356.2C597,345.261,590.2,330.473,590.1,330.276a1.191,1.191,0,1,1,2.169-.986c.1.2,6.8,14.788,14.689,25.041a1.231,1.231,0,0,1-.2,1.676A2.32,2.32,0,0,1,605.971,356.2Z" transform="translate(-589.982 -328.582)" fill="#1a1a1a"/>
        </g>
        <g id="Grupo_1082799" data-name="Grupo 1082799" transform="translate(0 12.915)">
          <path id="Trazado_720671" data-name="Trazado 720671" d="M623.821,393.738a33.913,33.913,0,0,0-7.69-5.521,46.5,46.5,0,0,1-11.732-9.07c-10.154-10.352-17.943-26.717-20.407-37.463-2.76-12.225,5.915-14.985,6.014-14.985a1.185,1.185,0,0,1,.69,2.267c-.3.1-6.605,2.169-4.338,12.225,2.366,10.45,9.859,26.322,19.816,36.378a45.412,45.412,0,0,0,11.239,8.676,26.653,26.653,0,0,1,7.394,5.619,1.226,1.226,0,0,1-.1,1.676A2.877,2.877,0,0,1,623.821,393.738Z" transform="translate(-583.45 -326.648)" fill="#1a1a1a"/>
        </g>
      </g>
      <g id="Grupo_1082801" data-name="Grupo 1082801" transform="translate(802.165 216.946)">
        <path id="Trazado_720672" data-name="Trazado 720672" d="M823.332,248a14.057,14.057,0,0,1-4.929-.887,13.8,13.8,0,0,1-6.605-5.225,1.25,1.25,0,0,1,.3-1.676,1.233,1.233,0,0,1,1.676.3,11.991,11.991,0,0,0,5.521,4.338,11.7,11.7,0,1,0,8.281-21.886,11.578,11.578,0,0,0-11.239,1.676,1.193,1.193,0,0,1-1.479-1.873,13.847,13.847,0,0,1,13.506-1.972A14.057,14.057,0,0,1,823.332,248Z" transform="translate(-811.587 -219.848)" fill="#1a1a1a"/>
      </g>
      <g id="Grupo_1082802" data-name="Grupo 1082802" transform="translate(807.699 224.734)">
        <path id="Trazado_720673" data-name="Trazado 720673" d="M824.4,241.8c-.986-.493-7.2-9.07-7.2-9.07.592-1.873,11.239-4.929,11.239-4.929a1.185,1.185,0,0,1,.69,2.268l-9.07,2.563,5.225,7.2a1.162,1.162,0,0,1-.3,1.676A.59.59,0,0,1,824.4,241.8Z" transform="translate(-817.2 -227.748)" fill="#1a1a1a"/>
      </g>
      <g id="Grupo_1082803" data-name="Grupo 1082803" transform="translate(777.004 196.871)">
        <path id="Trazado_720674" data-name="Trazado 720674" d="M803.352,266.933c-7-.69-11.929-3.253-14.689-7.591-5.225-8.281-.986-19.816-.789-20.309l9.464-38.646a1.16,1.16,0,0,1,2.268.493l-9.464,38.744c-.1.2-4.042,11.14.591,18.337,2.366,3.746,6.7,5.915,12.816,6.507a1.2,1.2,0,0,1,1.084,1.282A1.287,1.287,0,0,1,803.352,266.933Z" transform="translate(-786.065 -199.485)" fill="#1a1a1a"/>
      </g>
      <g id="Grupo_1082804" data-name="Grupo 1082804" transform="translate(773.333 200.08)">
        <path id="Trazado_720675" data-name="Trazado 720675" d="M787.427,233.854c-4.042-.986-5.619-3.746-4.929-6.507l5.915-20.9a5.063,5.063,0,0,1,6.211-3.549,4.842,4.842,0,0,1,2.859,1.972,4.491,4.491,0,0,1,.2,3.451,1.185,1.185,0,0,1-2.268-.69,2.408,2.408,0,0,0,0-1.676,2.118,2.118,0,0,0-1.38-.887,2.719,2.719,0,0,0-3.352,1.873l-5.915,20.9a2.754,2.754,0,0,0,1.873,3.352,2.6,2.6,0,0,0,2.07-.3,3.1,3.1,0,0,0,1.282-1.676,1.185,1.185,0,1,1,2.267.69,5.237,5.237,0,0,1-2.366,3.056A3.328,3.328,0,0,1,787.427,233.854Z" transform="translate(-782.341 -202.741)" fill="#1a1a1a"/>
      </g>
      <g id="Grupo_1082805" data-name="Grupo 1082805" transform="translate(728.772 500.333)">
        <path id="Trazado_720676" data-name="Trazado 720676" d="M738.284,551.565c-.986-.3-1.282-.986-1.084-1.577,2.169-6.507,5.915-28.689,7.394-41.6a1.187,1.187,0,0,1,2.366.2c-1.282,11.929-5.028,34.9-7.493,42.195A1.462,1.462,0,0,1,738.284,551.565Z" transform="translate(-737.142 -507.3)" fill="#1a1a1a"/>
      </g>
      <g id="Grupo_1082806" data-name="Grupo 1082806" transform="translate(888.108 320.472)">
        <path id="Trazado_720677" data-name="Trazado 720677" d="M907.574,476.525a17.62,17.62,0,0,1-8.183-1.676,1.169,1.169,0,0,1,1.084-2.07c.591.3,15.084,7.591,34.7-14.492,17.746-20.112-8.084-83.5-35.589-131.711a1.15,1.15,0,1,1,1.972-1.183c10.154,17.647,59.349,107.36,35.294,134.373C924.826,473.567,914.376,476.525,907.574,476.525Z" transform="translate(-898.762 -324.859)" fill="#1a1a1a"/>
      </g>
      <g id="Grupo_1082807" data-name="Grupo 1082807" transform="translate(876.08 295.102)">
        <path id="Trazado_720678" data-name="Trazado 720678" d="M905.232,548.622a1.274,1.274,0,0,1-1.183-.887c-.1-.394-9.07-41.209-4.535-85.474,9.464-92.671,5.619-142.457-12.619-161.09a1.221,1.221,0,0,1,0-1.676,1.135,1.135,0,0,1,1.676,0c19.027,19.52,22.971,68.32,13.309,163.061-4.436,43.871,4.436,84.291,4.436,84.685a1.218,1.218,0,0,1-.887,1.38A.137.137,0,0,0,905.232,548.622Z" transform="translate(-886.562 -299.125)" fill="#1a1a1a"/>
      </g>
      <g id="Grupo_1082808" data-name="Grupo 1082808" transform="translate(669.974 156.465)">
        <path id="Trazado_720679" data-name="Trazado 720679" d="M788.9,205.033c-.986-.591-15.182-22.971-15.182-22.971a45.18,45.18,0,0,0-38.448-21.2H678.683a1.183,1.183,0,0,1,0-2.366h56.49a47.742,47.742,0,0,1,40.519,22.28l14.2,22.478a1.05,1.05,0,0,1-.394,1.577A1.4,1.4,0,0,1,788.9,205.033Z" transform="translate(-677.5 -158.5)" fill="#1a1a1a"/>
      </g>
      <g id="Grupo_1082809" data-name="Grupo 1082809" transform="translate(497.843 156.465)">
        <path id="Trazado_720680" data-name="Trazado 720680" d="M611.838,160.866H504.083a1.183,1.183,0,1,1,0-2.366H611.838a1.139,1.139,0,0,1,1.183,1.183A1.2,1.2,0,0,1,611.838,160.866Z" transform="translate(-502.9 -158.5)" fill="#1a1a1a"/>
      </g>
      <g id="Grupo_1082810" data-name="Grupo 1082810" transform="translate(390.277 271.058)">
        <path id="Trazado_720681" data-name="Trazado 720681" d="M662.151,470.985h-118.6A47.618,47.618,0,0,1,503.033,448.7L394,276.475a1.05,1.05,0,0,1,.394-1.577,1.119,1.119,0,0,1,1.577.394L505.1,447.522a45.18,45.18,0,0,0,38.449,21.2h118.6a1.139,1.139,0,0,1,1.183,1.183A1.184,1.184,0,0,1,662.151,470.985Z" transform="translate(-393.792 -274.736)" fill="#1a1a1a"/>
      </g>
      <g id="Grupo_1082811" data-name="Grupo 1082811" transform="translate(265.342 110.229)">
        <path id="Trazado_720682" data-name="Trazado 720682" d="M511.4,261.944H356.024A23.493,23.493,0,0,1,336.11,251l-65.363-103.22A23.617,23.617,0,0,1,290.76,111.6H446.132a23.493,23.493,0,0,1,19.914,10.943l7.788,12.323,57.574,90.9A23.617,23.617,0,0,1,511.4,261.944ZM290.662,113.966A21.252,21.252,0,0,0,272.719,146.6l65.363,103.22a21.119,21.119,0,0,0,17.943,9.859H511.4a21.252,21.252,0,0,0,17.943-32.632l-65.363-103.22a21.119,21.119,0,0,0-17.943-9.859Z" transform="translate(-267.065 -111.6)" fill="#1a1a1a"/>
      </g>
      <g id="Grupo_1082812" data-name="Grupo 1082812" transform="translate(352.396 373.749)">
        <path id="Trazado_720683" data-name="Trazado 720683" d="M373.638,433.024c-.986-.592-15.084-22.872-15.084-22.872A20.4,20.4,0,0,1,375.807,378.9h83.7a1.183,1.183,0,1,1,0,2.366h-83.9a17.878,17.878,0,0,0-15.774,9.267,17.586,17.586,0,0,0,.592,18.238l14.1,22.379a1.172,1.172,0,0,1-.394,1.676A.753.753,0,0,1,373.638,433.024Z" transform="translate(-355.367 -378.9)" fill="#1a1a1a"/>
      </g>
      <g id="Grupo_1082813" data-name="Grupo 1082813" transform="translate(399.446 465.13)">
        <path id="Trazado_720684" data-name="Trazado 720684" d="M564.781,509.063h-132.7A20.218,20.218,0,0,1,414.93,499.6L403.3,481.261a1.05,1.05,0,0,1,.394-1.577,1.119,1.119,0,0,1,1.577.394L416.9,498.415a17.947,17.947,0,0,0,15.182,8.38h132.7a17.878,17.878,0,0,0,15.774-9.267,17.586,17.586,0,0,0-.591-18.238l-3.648-5.817a1.217,1.217,0,0,1,2.07-1.282l3.648,5.817a20.025,20.025,0,0,1,.591,20.7A20.269,20.269,0,0,1,564.781,509.063Z" transform="translate(-403.092 -471.592)" fill="#1a1a1a"/>
      </g>
      <g id="Grupo_1082814" data-name="Grupo 1082814" transform="translate(591.101 54.626)">
        <path id="Trazado_720685" data-name="Trazado 720685" d="M690.072,113.169H631.709a9.512,9.512,0,0,1-8.084-4.436L598.979,69.889a9.61,9.61,0,0,1-.3-9.76,9.276,9.276,0,0,1,8.38-4.929h58.462a9.513,9.513,0,0,1,8.084,4.436l2.958,4.634,21.689,34.111a9.656,9.656,0,0,1-8.183,14.788Zm-82.911-55.7a7.066,7.066,0,0,0-6.31,3.746,7.346,7.346,0,0,0,.2,7.394L625.6,107.451a7.37,7.37,0,0,0,6.112,3.352h58.363a7.066,7.066,0,0,0,6.31-3.746,7.346,7.346,0,0,0-.2-7.394L671.637,60.918a7.241,7.241,0,0,0-6.112-3.352H607.161Z" transform="translate(-597.496 -55.2)" fill="#1a1a1a"/>
      </g>
      <g id="Grupo_1082815" data-name="Grupo 1082815" transform="translate(591.101 54.626)">
        <path id="Trazado_720686" data-name="Trazado 720686" d="M690.072,113.169H631.709a9.512,9.512,0,0,1-8.084-4.436L598.979,69.889a9.61,9.61,0,0,1-.3-9.76,9.276,9.276,0,0,1,8.38-4.929h58.462a9.513,9.513,0,0,1,8.084,4.436l2.958,4.634,21.689,34.111a9.656,9.656,0,0,1-8.183,14.788Zm-82.911-55.7a7.066,7.066,0,0,0-6.31,3.746,7.346,7.346,0,0,0,.2,7.394L625.6,107.451a7.37,7.37,0,0,0,6.112,3.352h58.363a7.066,7.066,0,0,0,6.31-3.746,7.346,7.346,0,0,0-.2-7.394L671.637,60.918a7.241,7.241,0,0,0-6.112-3.352H607.161Z" transform="translate(-597.496 -55.2)" fill="#1a1a1a"/>
      </g>
      <g id="Grupo_1082816" data-name="Grupo 1082816" transform="translate(576.215 279.797)">
        <path id="Trazado_720687" data-name="Trazado 720687" d="M625.482,341.569h-8.971a9.513,9.513,0,0,1-8.084-4.436l-24.548-38.843a9.617,9.617,0,0,1-.3-9.76,9.275,9.275,0,0,1,8.38-4.929h58.462a9.513,9.513,0,0,1,8.084,4.436l2.958,4.634a1.172,1.172,0,0,1-.394,1.676,1.065,1.065,0,0,1-1.577-.394l-2.958-4.634a7.37,7.37,0,0,0-6.112-3.352H591.963a7.066,7.066,0,0,0-6.31,3.746,7.346,7.346,0,0,0,.2,7.394L610.4,335.949a7.241,7.241,0,0,0,6.112,3.352h8.971a1.139,1.139,0,0,1,1.183,1.183A1.119,1.119,0,0,1,625.482,341.569Z" transform="translate(-582.396 -283.6)" fill="#1a1a1a"/>
      </g>
      <g id="Grupo_1082817" data-name="Grupo 1082817" transform="translate(637.342 288.311)">
        <path id="Trazado_720688" data-name="Trazado 720688" d="M675.849,341.691H645.583a1.183,1.183,0,0,1,0-2.366h30.266a7.066,7.066,0,0,0,6.31-3.746,7.346,7.346,0,0,0-.2-7.394l-21.59-34.209a1.05,1.05,0,0,1,.394-1.577,1.119,1.119,0,0,1,1.577.394L684.032,327a9.617,9.617,0,0,1,.3,9.76A9.734,9.734,0,0,1,675.849,341.691Z" transform="translate(-644.4 -292.236)" fill="#1a1a1a"/>
      </g>
      <g id="Grupo_1082818" data-name="Grupo 1082818" transform="translate(615.609 194.322)">
        <path id="Trazado_720689" data-name="Trazado 720689" d="M738.238,248.953H649.905a16.085,16.085,0,0,1-13.7-7.591l-11.337-19.619a16.158,16.158,0,0,1-.493-16.464,15.986,15.986,0,0,1,14.2-8.38h104.4a16.085,16.085,0,0,1,13.7,7.591l11.337,19.619a16.084,16.084,0,0,1,1.084,15.379,1.191,1.191,0,1,1-2.169-.986,13.5,13.5,0,0,0-.887-13.112L754.7,205.773a13.722,13.722,0,0,0-11.732-6.408h-104.3a13.91,13.91,0,0,0-11.732,21.295l11.337,19.619A13.722,13.722,0,0,0,650,246.686h88.333a1.139,1.139,0,0,1,1.183,1.183A1.283,1.283,0,0,1,738.238,248.953Z" transform="translate(-622.355 -196.9)" fill="#1a1a1a"/>
      </g>
      <g id="Grupo_1082822" data-name="Grupo 1082822" transform="translate(720.534 226.469)">
        <g id="Grupo_1082819" data-name="Grupo 1082819">
          <path id="Trazado_720690" data-name="Trazado 720690" d="M779.966,298.609a92.02,92.02,0,0,0-9.168-2.662c-11.633-3.056-16.562-8.971-21.393-14.689l-1.577-1.873c-1.183-1.38-2.76-2.76-4.141-4.141-3.549-3.352-7-6.507-6.9-10.154q0-2.958,2.958-5.619a7.161,7.161,0,0,1,5.028-1.775c5.521.3,11.436,6.309,13.7,8.971a55.146,55.146,0,0,0,5.422,5.422,127.292,127.292,0,0,0-8.971-9.563l-2.563-2.563c-2.76-2.76-7.985-6.7-12.718-10.253-4.436-3.253-8.183-6.112-9.661-7.788-1.676-1.972-1.577-5.225.2-8.183,1.577-2.563,4.634-4.929,8.38-4.042,5.817,1.38,13.112,7.788,17.055,11.14.592.493,1.084.986,1.479,1.282a11.251,11.251,0,0,1,5.817-3.155c6.9-1.183,10.746.592,12.323,1.577a9.853,9.853,0,0,1,6.507-1.38,34.937,34.937,0,0,1,5.718,1.676,1.191,1.191,0,0,1-.986,2.169,44.152,44.152,0,0,0-5.127-1.577,7.769,7.769,0,0,0-5.422,1.38,1.2,1.2,0,0,1-1.577-.1s-3.155-2.859-11.042-1.577a7.7,7.7,0,0,0-4.436,2.366c-.591.591-1.577,1.479-2.563.69a12.235,12.235,0,0,1-2.169-1.873c-3.451-3.056-10.746-9.366-15.971-10.647-2.563-.69-4.732,1.084-5.817,2.958-1.183,1.972-1.38,4.239-.394,5.422,1.282,1.479,5.127,4.338,9.267,7.493,4.732,3.549,10.056,7.493,12.915,10.45l2.563,2.563c6.507,6.507,10.549,10.647,10.746,12.915a1.68,1.68,0,0,1-.887,1.873c-.591.3-2.267,1.084-9.76-7.394-4.338-4.929-8.873-7.985-12.028-8.183a4.236,4.236,0,0,0-3.253,1.084c-1.479,1.38-2.267,2.662-2.267,3.943,0,2.662,2.958,5.521,6.211,8.478a60.013,60.013,0,0,1,4.338,4.338l1.577,1.873c4.831,5.718,9.267,11.042,20.21,13.9,7.3,1.873,8.971,2.662,9.07,2.76a1.187,1.187,0,0,1,.591,1.577C780.853,298.313,780.459,298.609,779.966,298.609Z" transform="translate(-728.785 -229.507)" fill="#1a1a1a"/>
        </g>
        <g id="Grupo_1082820" data-name="Grupo 1082820" transform="translate(26.981 12.763)">
          <path id="Trazado_720691" data-name="Trazado 720691" d="M772.762,259.456c-4.634-6.014-16.07-14.788-16.168-14.887a1.193,1.193,0,1,1,1.479-1.873c.493.394,11.83,9.07,15.774,14.985a1.233,1.233,0,0,1-.3,1.676C773.255,259.358,772.959,259.456,772.762,259.456Z" transform="translate(-756.153 -242.453)" fill="#1a1a1a"/>
        </g>
        <g id="Grupo_1082821" data-name="Grupo 1082821" transform="translate(45.253 11.318)">
          <path id="Trazado_720692" data-name="Trazado 720692" d="M786.924,252.929a133.638,133.638,0,0,0-11.732-9.76,1.2,1.2,0,0,1,1.38-1.972,89.733,89.733,0,0,1,11.239,9.661,1.226,1.226,0,0,1-.1,1.676A.9.9,0,0,1,786.924,252.929Z" transform="translate(-774.687 -240.987)" fill="#1a1a1a"/>
        </g>
      </g>
      <g id="Grupo_1082823" data-name="Grupo 1082823" transform="translate(384.765 542.233)">
        <path id="Trazado_720693" data-name="Trazado 720693" d="M967.492,552.166H389.383a1.183,1.183,0,1,1,0-2.366H967.492a1.139,1.139,0,0,1,1.183,1.183A1.2,1.2,0,0,1,967.492,552.166Z" transform="translate(-388.2 -549.8)" fill="#1a1a1a"/>
      </g>
      <g id="Grupo_1082824" data-name="Grupo 1082824" transform="translate(643.553 207.336)">
        <path id="Trazado_720694" data-name="Trazado 720694" d="M739.329,212.466H651.883a1.183,1.183,0,1,1,0-2.366h87.446a1.183,1.183,0,1,1,0,2.366Z" transform="translate(-650.7 -210.1)" fill="#1a1a1a"/>
      </g>
      <g id="Grupo_1082825" data-name="Grupo 1082825" transform="translate(652.327 223.307)">
        <path id="Trazado_720695" data-name="Trazado 720695" d="M748.229,228.666H660.783a1.183,1.183,0,1,1,0-2.366h87.446a1.183,1.183,0,0,1,0,2.366Z" transform="translate(-659.6 -226.3)" fill="#1a1a1a"/>
      </g>
      <g id="Grupo_1082826" data-name="Grupo 1082826" transform="translate(440.564 303.556)">
        <path id="Trazado_720696" data-name="Trazado 720696" d="M533.527,310.066H445.983a1.183,1.183,0,1,1,0-2.366h87.446a1.139,1.139,0,0,1,1.183,1.183A1.115,1.115,0,0,1,533.527,310.066Z" transform="translate(-444.8 -307.7)" fill="#1a1a1a"/>
      </g>
      <g id="Grupo_1082827" data-name="Grupo 1082827" transform="translate(449.437 319.527)">
        <path id="Trazado_720697" data-name="Trazado 720697" d="M542.429,326.266H454.983a1.183,1.183,0,1,1,0-2.366h87.446a1.139,1.139,0,0,1,1.183,1.183A1.2,1.2,0,0,1,542.429,326.266Z" transform="translate(-453.8 -323.9)" fill="#1a1a1a"/>
      </g>
      <g id="Grupo_1082828" data-name="Grupo 1082828" transform="translate(482.759 373.749)">
        <path id="Trazado_720698" data-name="Trazado 720698" d="M576.229,381.266H488.783a1.183,1.183,0,1,1,0-2.366h87.446a1.183,1.183,0,1,1,0,2.366Z" transform="translate(-487.6 -378.9)" fill="#1a1a1a"/>
      </g>
      <g id="Grupo_1082829" data-name="Grupo 1082829" transform="translate(491.632 389.72)">
        <path id="Trazado_720699" data-name="Trazado 720699" d="M585.229,397.466H497.783a1.183,1.183,0,1,1,0-2.366h87.446a1.139,1.139,0,0,1,1.183,1.183A1.2,1.2,0,0,1,585.229,397.466Z" transform="translate(-496.6 -395.1)" fill="#1a1a1a"/>
      </g>
      <g id="Grupo_1082830" data-name="Grupo 1082830" transform="translate(285.686 137.734)">
        <path id="Trazado_720700" data-name="Trazado 720700" d="M462.493,141.866H288.883a1.183,1.183,0,1,1,0-2.366h173.61a1.139,1.139,0,0,1,1.183,1.183A1.2,1.2,0,0,1,462.493,141.866Z" transform="translate(-287.7 -139.5)" fill="#1a1a1a"/>
      </g>
      <g id="Grupo_1082831" data-name="Grupo 1082831" transform="translate(403.595 168.197)">
        <path id="Trazado_720701" data-name="Trazado 720701" d="M483.211,172.766H408.483a1.183,1.183,0,0,1,0-2.366h74.728a1.139,1.139,0,0,1,1.183,1.183A1.2,1.2,0,0,1,483.211,172.766Z" transform="translate(-407.3 -170.4)" fill="#1a1a1a"/>
      </g>
      <g id="Grupo_1082832" data-name="Grupo 1082832" transform="translate(419.467 192.646)">
        <path id="Trazado_720702" data-name="Trazado 720702" d="M499.311,197.566H424.583a1.183,1.183,0,1,1,0-2.366h74.728a1.139,1.139,0,0,1,1.183,1.183A1.359,1.359,0,0,1,499.311,197.566Z" transform="translate(-423.4 -195.2)" fill="#1a1a1a"/>
      </g>
      <g id="Grupo_1082833" data-name="Grupo 1082833" transform="translate(434.452 216.997)">
        <path id="Trazado_720703" data-name="Trazado 720703" d="M514.511,222.266H439.783a1.183,1.183,0,0,1,0-2.366h74.728a1.139,1.139,0,0,1,1.183,1.183A1.269,1.269,0,0,1,514.511,222.266Z" transform="translate(-438.6 -219.9)" fill="#1a1a1a"/>
      </g>
      <g id="Grupo_1082834" data-name="Grupo 1082834" transform="translate(793.092 242.612)">
        <path id="Trazado_720704" data-name="Trazado 720704" d="M828.229,300.812a25.179,25.179,0,0,1-5.225-.493c-10.253-1.676-21.1-9.859-20.6-27.6.493-19.027,16.267-26.618,16.365-26.717a1.191,1.191,0,1,1,.986,2.169,28.19,28.19,0,0,0-15.084,24.548c-.591,20.407,14.1,24.449,18.633,25.238,13.7,2.268,18.83-5.619,19.027-5.915a1.258,1.258,0,0,1,1.676-.394,1.14,1.14,0,0,1,.394,1.577C844.2,293.714,839.665,300.812,828.229,300.812Z" transform="translate(-802.384 -245.882)" fill="#1a1a1a"/>
      </g>
      <g id="Grupo_1082835" data-name="Grupo 1082835" transform="translate(785.932 158.781)">
        <path id="Trazado_720705" data-name="Trazado 720705" d="M865.787,305.229c-10.845,0-21.2-3.451-26.717-8.873a1.185,1.185,0,0,1,1.676-1.676c5.225,5.126,15.281,8.478,25.731,8.183,9.366-.1,17.351-2.958,21.886-7.788,5.225-5.521,7.887-14.788,7.394-25.534a40.243,40.243,0,0,0-3.943-16.168c-1.972-3.746-5.028-6.211-8.38-8.873a54.907,54.907,0,0,1-5.718-5.028,8.484,8.484,0,0,1-2.76-5.324c-.2-2.662,1.479-5.619,2.76-8.084.69-1.282,1.577-3.056,1.577-3.056a67.922,67.922,0,0,0,3.352-7.2,37.816,37.816,0,0,0,2.366-20.013c-2.465-13.8-28-19.52-28.2-19.619-12.619-11.042-33.914-17.351-48.6-9.366-14,7.69-10.45,24.055-10.352,24.745,0,.986.1,17.647,26.027,27.506a1.154,1.154,0,1,1-.789,2.169c-27.6-10.45-27.506-28.689-27.506-29.477,0,0-4.042-18.436,11.535-27.013,15.478-8.478,37.758-2.07,50.575,9.169,3.155.69,27.111,6.7,29.773,21.393a39.246,39.246,0,0,1-2.465,21.2c-.986,2.563-2.267,5.028-3.451,7.394l-.887,1.775c-1.873,3.451-3.253,6.112-3.155,8.183.1,1.38,1.183,2.76,2.169,3.845a50.954,50.954,0,0,0,5.521,4.831c3.352,2.662,6.8,5.422,8.971,9.563a40.011,40.011,0,0,1,4.239,17.154c.3,6.7-.3,19.027-8.084,27.21-5.028,5.324-13.6,8.38-23.562,8.577A2.368,2.368,0,0,1,865.787,305.229Z" transform="translate(-795.122 -160.848)" fill="#1a1a1a"/>
      </g>
      <path id="Trazado_720706" data-name="Trazado 720706" d="M453.821,130.3c-2.563,2.07-7,.887-9.957-2.662s-3.352-8.183-.789-10.253,7-.887,9.957,2.662C455.99,123.695,456.286,128.23,453.821,130.3Z" transform="translate(-4.187 -1.439)" fill="#ffce26"/>
      <g id="Grupo_1082836" data-name="Grupo 1082836" transform="translate(412.601 113.739)">
        <path id="Trazado_720707" data-name="Trazado 720707" d="M426.949,132.551a10.935,10.935,0,0,1-7.788-4.141c-3.352-4.042-3.648-9.366-.69-11.929,3.056-2.563,8.183-1.282,11.633,2.859a11.68,11.68,0,0,1,2.76,6.31,6.189,6.189,0,0,1-2.07,5.521A5.925,5.925,0,0,1,426.949,132.551Zm-4.634-14.985a3.05,3.05,0,0,0-2.267.789c-1.972,1.676-1.577,5.619.986,8.577a8.847,8.847,0,0,0,5.521,3.253,3.761,3.761,0,0,0,2.76-.69,4.289,4.289,0,0,0,1.282-3.549,9.07,9.07,0,0,0-2.169-5.028C426.555,118.749,424.287,117.566,422.316,117.566Z" transform="translate(-416.435 -115.16)" fill="#1a1a1a"/>
      </g>
      <g id="Grupo_1082837" data-name="Grupo 1082837" transform="translate(598.568 220.944)">
        <path id="Trazado_720708" data-name="Trazado 720708" d="M615.648,241.153a10.486,10.486,0,0,1-7.788-4.141,11.68,11.68,0,0,1-2.76-6.309,5.914,5.914,0,0,1,7.887-6.507,12.062,12.062,0,0,1,5.718,3.845,11.681,11.681,0,0,1,2.76,6.309,6.487,6.487,0,0,1-2.07,5.619A7.024,7.024,0,0,1,615.648,241.153Zm-4.634-14.985a3.515,3.515,0,0,0-2.267.789,4.289,4.289,0,0,0-1.282,3.549,9.07,9.07,0,0,0,2.169,5.028c2.465,2.958,6.309,4.141,8.281,2.465a4.29,4.29,0,0,0,1.282-3.549,9.07,9.07,0,0,0-2.169-5.028,8.506,8.506,0,0,0-4.535-3.056A10.252,10.252,0,0,0,611.015,226.168Z" transform="translate(-605.07 -223.904)" fill="#1a1a1a"/>
      </g>
      <g id="Grupo_1082838" data-name="Grupo 1082838" transform="translate(268.271 206.902)">
        <path id="Trazado_720709" data-name="Trazado 720709" d="M280.549,227.051a7.506,7.506,0,0,1-2.07-.3,12.061,12.061,0,0,1-5.718-3.845c-3.352-4.042-3.648-9.366-.69-11.929,3.056-2.563,8.183-1.282,11.633,2.859a11.68,11.68,0,0,1,2.76,6.31,6.189,6.189,0,0,1-2.07,5.521A5.441,5.441,0,0,1,280.549,227.051Zm-4.634-14.886a3.05,3.05,0,0,0-2.267.789c-1.972,1.676-1.577,5.619.986,8.577a8.506,8.506,0,0,0,4.535,3.056,4.018,4.018,0,0,0,3.746-.592,4.289,4.289,0,0,0,1.282-3.549,9.378,9.378,0,0,0-8.281-8.281Z" transform="translate(-270.035 -209.66)" fill="#1a1a1a"/>
      </g>
      <g id="Grupo_1082839" data-name="Grupo 1082839" transform="translate(145.24 201.153)">
        <path id="Trazado_720710" data-name="Trazado 720710" d="M170.143,244.024c-6.112,0-13.112-3.451-18.337-9.76a27.462,27.462,0,0,1-6.507-14.985c-.394-5.324,1.183-9.76,4.634-12.52,3.352-2.859,8.084-3.648,13.211-2.267a27.728,27.728,0,0,1,13.6,9.169c7.887,9.563,8.774,21.886,1.873,27.6A13.462,13.462,0,0,1,170.143,244.024Zm-11.732-37.857a10.472,10.472,0,0,0-6.9,2.366c-2.76,2.267-4.141,6.014-3.746,10.549a25.27,25.27,0,0,0,5.915,13.7c7.1,8.478,17.548,11.436,23.463,6.605,5.817-4.831,4.929-15.774-2.169-24.252a25.012,25.012,0,0,0-12.422-8.38A16.124,16.124,0,0,0,158.411,206.166Z" transform="translate(-145.24 -203.829)" fill="#1a1a1a"/>
      </g>
      <g id="Grupo_1082840" data-name="Grupo 1082840" transform="translate(483.13 14.603)">
        <path id="Trazado_720711" data-name="Trazado 720711" d="M512.843,54.823c-6.112,0-13.112-3.451-18.337-9.76-7.887-9.563-8.774-21.886-1.873-27.6s18.83-2.563,26.815,6.9c7.887,9.464,8.774,21.886,1.873,27.6A13.544,13.544,0,0,1,512.843,54.823ZM501.112,16.868a10.928,10.928,0,0,0-7,2.366c-5.817,4.831-4.929,15.774,2.169,24.252s17.548,11.436,23.464,6.605c5.817-4.831,4.929-15.774-2.169-24.252C512.843,20.121,506.534,16.868,501.112,16.868Z" transform="translate(-487.976 -14.603)" fill="#1a1a1a"/>
      </g>
      <g id="Grupo_1082841" data-name="Grupo 1082841" transform="translate(350.525 447.223)">
        <path id="Trazado_720712" data-name="Trazado 720712" d="M364.048,470.752a10.935,10.935,0,0,1-7.788-4.141,11.681,11.681,0,0,1-2.76-6.31,6.487,6.487,0,0,1,2.07-5.619c3.056-2.465,8.183-1.183,11.535,2.859a11.079,11.079,0,0,1,2.76,7.69,6.008,6.008,0,0,1-2.07,4.141A5.053,5.053,0,0,1,364.048,470.752Zm-4.634-14.887a3.05,3.05,0,0,0-2.267.789,3.962,3.962,0,0,0-1.183,3.549,9.07,9.07,0,0,0,2.169,5.028,8.606,8.606,0,0,0,5.521,3.253,3.417,3.417,0,0,0,4.042-3.253,8.9,8.9,0,0,0-2.169-6.014A8.776,8.776,0,0,0,359.415,455.865Z" transform="translate(-353.47 -453.428)" fill="#1a1a1a"/>
      </g>
      <g id="Grupo_1082842" data-name="Grupo 1082842" transform="translate(554.993 309.333)">
        <path id="Trazado_720713" data-name="Trazado 720713" d="M571.448,330.852c-2.662,0-5.521-1.479-7.788-4.141a11.68,11.68,0,0,1-2.76-6.31,6.189,6.189,0,0,1,2.07-5.521c3.056-2.563,8.183-1.282,11.633,2.859a11.68,11.68,0,0,1,2.76,6.309,6.189,6.189,0,0,1-2.07,5.521A6.906,6.906,0,0,1,571.448,330.852Zm-4.633-14.985a3.05,3.05,0,0,0-2.268.789,4.289,4.289,0,0,0-1.282,3.549,9.07,9.07,0,0,0,2.169,5.028c2.465,3.056,6.309,4.141,8.281,2.563A4.289,4.289,0,0,0,575,324.247a9.07,9.07,0,0,0-2.169-5.028A8.416,8.416,0,0,0,566.815,315.867Z" transform="translate(-560.87 -313.56)" fill="#1a1a1a"/>
      </g>
      <g id="Grupo_1082843" data-name="Grupo 1082843" transform="translate(389.768 113.781)">
        <path id="Trazado_720714" data-name="Trazado 720714" d="M403.848,132.551a7.5,7.5,0,0,1-2.07-.3,12.061,12.061,0,0,1-5.718-3.845,11.157,11.157,0,0,1-2.76-7.788,6.008,6.008,0,0,1,2.07-4.141,6.217,6.217,0,0,1,5.817-.986,12.061,12.061,0,0,1,5.718,3.845,11.079,11.079,0,0,1,2.76,7.69,6.009,6.009,0,0,1-2.07,4.141A5.859,5.859,0,0,1,403.848,132.551Zm-4.732-14.985a3.515,3.515,0,0,0-2.267.789,3.777,3.777,0,0,0-1.282,2.563,8.9,8.9,0,0,0,2.169,6.014,8.506,8.506,0,0,0,4.535,3.056,4.018,4.018,0,0,0,3.746-.592,3.777,3.777,0,0,0,1.282-2.563,8.9,8.9,0,0,0-2.169-6.014,8.506,8.506,0,0,0-4.535-3.056A7.61,7.61,0,0,0,399.116,117.566Z" transform="translate(-393.275 -115.204)" fill="#1a1a1a"/>
      </g>
      <g id="Grupo_1082844" data-name="Grupo 1082844" transform="translate(540.432 229.419)">
        <path id="Trazado_720715" data-name="Trazado 720715" d="M560.691,311.862A51.78,51.78,0,0,1,553,299.243a1.191,1.191,0,1,1,2.169-.986,79.809,79.809,0,0,0,6.507,11.732,1.25,1.25,0,0,1-.3,1.676A2.51,2.51,0,0,1,560.691,311.862Zm-11.14-24.745a45.266,45.266,0,0,1-3.451-14.492,1.187,1.187,0,1,1,2.366-.2,75.583,75.583,0,0,0,2.267,13.211,1.207,1.207,0,0,1-.887,1.479ZM547.579,260.2c-.887-.2-1.282-.789-1.183-1.38a23,23,0,0,1,7.1-12.126,1.187,1.187,0,0,1,1.577,1.775,21.019,21.019,0,0,0-6.408,10.844A1.057,1.057,0,0,1,547.579,260.2Zm18.238-18.534c-1.38-1.282-1.084-1.972-.493-2.267a80.624,80.624,0,0,1,13.211-4.042,1.16,1.16,0,1,1,.493,2.267,78.73,78.73,0,0,0-12.816,3.943C566.113,241.57,565.916,241.669,565.817,241.669Zm26.421-6.112a1.26,1.26,0,0,1-1.183-1.084,1.139,1.139,0,0,1,1.084-1.282,117.478,117.478,0,0,1,13.013-.69c1.38,0,1.873.493,1.873,1.183a1.139,1.139,0,0,1-1.183,1.183c-2.465,0-7.3.1-13.506.69Z" transform="translate(-546.1 -232.5)" fill="#1a1a1a"/>
      </g>
      <g id="Grupo_1082845" data-name="Grupo 1082845" transform="translate(179.607 216.997)">
        <path id="Trazado_720716" data-name="Trazado 720716" d="M264.1,222.266h-13.6a1.183,1.183,0,0,1,0-2.366h13.6a1.139,1.139,0,0,1,1.183,1.183A1.2,1.2,0,0,1,264.1,222.266Zm-27.21,0h-13.6a1.183,1.183,0,0,1,0-2.366h13.6a1.183,1.183,0,1,1,0,2.366Zm-27.21,0h-13.6a1.183,1.183,0,0,1,0-2.366h13.6a1.183,1.183,0,1,1,0,2.366Zm-27.111,0c-1.873,0-2.465-.493-2.465-1.183a1.139,1.139,0,0,1,1.183-1.183c1.873,0,2.465.493,2.465,1.183A1.2,1.2,0,0,1,182.565,222.266Z" transform="translate(-180.1 -219.9)" fill="#1a1a1a"/>
      </g>
      <g id="Grupo_1082846" data-name="Grupo 1082846" transform="translate(306.093 454.688)">
        <path id="Trazado_720717" data-name="Trazado 720717" d="M347.341,463.366h-13.6a1.183,1.183,0,0,1,0-2.366h13.6a1.183,1.183,0,1,1,0,2.366Zm-27.21,0H309.583a1.183,1.183,0,1,1,0-2.366h10.549a1.183,1.183,0,0,1,0,2.366Z" transform="translate(-308.4 -461)" fill="#1a1a1a"/>
      </g>
      <g id="Grupo_1082847" data-name="Grupo 1082847" transform="translate(170.726 240.989)">
        <path id="Trazado_720718" data-name="Trazado 720718" d="M307.642,460.3c-.986-.591-5.521-7.69-5.521-7.69a1.05,1.05,0,0,1,.394-1.577,1.258,1.258,0,0,1,1.676.394l4.535,7.1a1.172,1.172,0,0,1-.394,1.676A1.678,1.678,0,0,1,307.642,460.3ZM295.91,441.767c-.986-.592-8.281-12.027-8.281-12.027a1.05,1.05,0,0,1,.394-1.577,1.14,1.14,0,0,1,1.577.394l7.3,11.436a1.172,1.172,0,0,1-.394,1.676C296.3,441.668,296.107,441.767,295.91,441.767ZM281.319,418.8c-.986-.592-8.281-12.028-8.281-12.028a1.05,1.05,0,0,1,.394-1.577,1.258,1.258,0,0,1,1.676.394l7.3,11.436a1.172,1.172,0,0,1-.394,1.676C281.812,418.7,281.615,418.8,281.319,418.8Zm-14.492-22.971c-.986-.592-8.281-12.027-8.281-12.027a1.172,1.172,0,0,1,.394-1.676,1.119,1.119,0,0,1,1.577.394l7.3,11.535a1.05,1.05,0,0,1-.394,1.577A1.4,1.4,0,0,1,266.827,395.826Zm-14.492-22.971c-.986-.592-8.281-12.028-8.281-12.028a1.172,1.172,0,0,1,.394-1.676,1.258,1.258,0,0,1,1.676.394l7.3,11.535a1.05,1.05,0,0,1-.394,1.577A2.507,2.507,0,0,1,252.335,372.855Zm-14.591-22.971c-.986-.592-8.281-12.028-8.281-12.028a1.05,1.05,0,0,1,.394-1.577,1.119,1.119,0,0,1,1.577.394l7.3,11.436a1.05,1.05,0,0,1-.394,1.577A1.4,1.4,0,0,1,237.744,349.885Zm-14.492-22.971c-.986-.592-8.281-12.027-8.281-12.027a1.05,1.05,0,0,1,.394-1.577,1.119,1.119,0,0,1,1.577.394l7.3,11.436a1.172,1.172,0,0,1-.394,1.676C223.646,326.816,223.449,326.914,223.252,326.914Zm-14.591-22.971c-.986-.592-8.281-12.028-8.281-12.028a1.05,1.05,0,0,1,.394-1.577,1.119,1.119,0,0,1,1.577.394l7.3,11.436a1.172,1.172,0,0,1-.394,1.676C209.154,303.845,208.858,303.944,208.661,303.944Zm-14.492-22.971c-.986-.592-8.281-12.028-8.281-12.028a1.172,1.172,0,0,1,.394-1.676,1.119,1.119,0,0,1,1.577.394l7.3,11.535a1.05,1.05,0,0,1-.394,1.577A.724.724,0,0,1,194.169,280.973ZM179.578,258c-.986-.592-8.281-12.027-8.281-12.027a1.05,1.05,0,0,1,.394-1.577,1.258,1.258,0,0,1,1.676.394l7.3,11.535a1.05,1.05,0,0,1-.394,1.577A1.678,1.678,0,0,1,179.578,258Z" transform="translate(-171.092 -244.236)" fill="#1a1a1a"/>
      </g>
      <g id="Grupo_1082848" data-name="Grupo 1082848" transform="translate(427.3 391.525)">
        <path id="Trazado_720719" data-name="Trazado 720719" d="M444.511,460.587c-2.169,0-8.676-.3-11.732-4.239-1.577-2.169-1.873-4.929-.789-8.183L452.5,401.83a10.866,10.866,0,0,1,6.7-4.732c3.155-.592,6.605.394,10.154,2.958L480.988,410.6a1.187,1.187,0,1,1-1.577,1.775l-11.633-10.45c-2.859-2.169-5.718-2.958-8.183-2.465a8.215,8.215,0,0,0-5.028,3.549l-20.309,46.138c-.789,2.465-.69,4.436.493,5.915,2.267,2.958,8.281,3.451,10.45,3.253h67.531a1.183,1.183,0,0,1,0,2.366H445.2C445.1,460.587,444.807,460.587,444.511,460.587Z" transform="translate(-431.346 -396.931)" fill="#1a1a1a"/>
      </g>
      <g id="Grupo_1082849" data-name="Grupo 1082849" transform="translate(333.985 150.684)">
        <path id="Trazado_720720" data-name="Trazado 720720" d="M387.669,233.638c-.986-.592-50.772-79.165-50.772-79.165a1.172,1.172,0,0,1,.394-1.676,1.258,1.258,0,0,1,1.676.394l49.786,78.573a1.172,1.172,0,0,1-.394,1.676A.939.939,0,0,1,387.669,233.638Z" transform="translate(-336.692 -152.636)" fill="#1a1a1a"/>
      </g>
      <g id="Grupo_1082850" data-name="Grupo 1082850" transform="translate(514.614 50.792)">
        <path id="Trazado_720721" data-name="Trazado 720721" d="M589.9,86.988c-25.731,0-49.1-11.337-69.7-33.716a1.187,1.187,0,1,1,1.774-1.577c24.745,27.013,53.532,37.463,85.671,31.252a1.158,1.158,0,0,1,1.38.986,1.207,1.207,0,0,1-.986,1.38A105.259,105.259,0,0,1,589.9,86.988Z" transform="translate(-519.911 -51.311)" fill="#1a1a1a"/>
      </g>
      <g id="Grupo_1082851" data-name="Grupo 1082851" transform="translate(763.287 113.547)">
        <path id="Trazado_720722" data-name="Trazado 720722" d="M788.466,141.322c-4.042,0-8.577-2.267-12.028-6.309a17.965,17.965,0,0,1-4.239-9.76c-.3-3.549.789-6.507,3.056-8.38s5.324-2.366,8.774-1.479a17.932,17.932,0,0,1,8.873,5.915c5.127,6.211,5.718,14.295,1.084,18.14A8.331,8.331,0,0,1,788.466,141.322Zm-7.493-24.055a6.546,6.546,0,0,0-4.141,1.38,7.21,7.21,0,0,0-2.267,6.31,15.066,15.066,0,0,0,3.648,8.478c4.338,5.225,10.746,7.1,14.295,4.141s2.859-9.563-1.479-14.788a15.174,15.174,0,0,0-7.591-5.126A11.608,11.608,0,0,0,780.974,117.267Z" transform="translate(-772.152 -114.966)" fill="#1a1a1a"/>
      </g>
      <g id="Grupo_1082852" data-name="Grupo 1082852" transform="translate(680.015 79.496)">
        <path id="Trazado_720723" data-name="Trazado 720723" d="M775.244,116.877C749.316,88.78,721.515,78.33,689.08,84.64a1.2,1.2,0,0,1-.394-2.366c33.322-6.507,61.912,4.141,87.544,32.533a1.221,1.221,0,0,1-.1,1.676A1.2,1.2,0,0,1,775.244,116.877Z" transform="translate(-687.685 -80.426)" fill="#1a1a1a"/>
      </g>
      <g id="Grupo_1082853" data-name="Grupo 1082853" transform="translate(682.978 463.857)">
        <path id="Trazado_720724" data-name="Trazado 720724" d="M691.883,495.735c-1.084-.3-1.38-.986-1.084-1.577,6.112-14.689,20.9-23.858,38.646-23.858,17.154,0,31.745,8.873,38.251,23.069a1.191,1.191,0,1,1-2.169.986c-6.112-13.408-19.914-21.689-36.181-21.689-16.76,0-30.759,8.577-36.477,22.379A1.072,1.072,0,0,1,691.883,495.735Z" transform="translate(-690.691 -470.3)" fill="#1a1a1a"/>
      </g>
    </g>
    <rect id="Rectángulo_347091" data-name="Rectángulo 347091" width="239" height="37" rx="9" transform="translate(446 10603)" fill="#a3bfe4"/>
    <rect id="Rectángulo_347093" data-name="Rectángulo 347093" width="55" height="4" transform="translate(545 10640)" fill="#f1bebe"/>
    <path id="Trazado_720759" data-name="Trazado 720759" d="M3.329,11.518V16h-2.1V3.914H5.852A4.675,4.675,0,0,1,9.069,4.969,3.549,3.549,0,0,1,10.26,7.761a3.431,3.431,0,0,1-1.166,2.767,4.9,4.9,0,0,1-3.266.989Zm0-1.693H5.852A2.485,2.485,0,0,0,7.562,9.3a1.937,1.937,0,0,0,.589-1.523,2.09,2.09,0,0,0-.6-1.565,2.3,2.3,0,0,0-1.644-.6H3.329ZM14.045,16H12.028V3.25h2.017Zm7.562,0a3.113,3.113,0,0,1-.232-.838,3.393,3.393,0,0,1-4.565.232,2.47,2.47,0,0,1-.855-1.909,2.55,2.55,0,0,1,1.067-2.2,5.169,5.169,0,0,1,3.051-.768h1.237V9.924a1.573,1.573,0,0,0-.39-1.116,1.547,1.547,0,0,0-1.187-.419,1.777,1.777,0,0,0-1.129.344,1.066,1.066,0,0,0-.44.876H16.145a2.239,2.239,0,0,1,.49-1.382,3.263,3.263,0,0,1,1.332-1.009,4.68,4.68,0,0,1,1.88-.365,3.769,3.769,0,0,1,2.515.793,2.827,2.827,0,0,1,.963,2.229v4.051a4.591,4.591,0,0,0,.34,1.934V16Zm-2.216-1.453a2.294,2.294,0,0,0,1.125-.291,1.941,1.941,0,0,0,.793-.78V11.783H20.221a2.973,2.973,0,0,0-1.685.39,1.264,1.264,0,0,0-.564,1.1,1.179,1.179,0,0,0,.386.926A1.5,1.5,0,0,0,19.391,14.547ZM27.31,7.019l.058,1.038a3.229,3.229,0,0,1,2.615-1.2q2.806,0,2.855,3.212V16H30.821V10.181a1.85,1.85,0,0,0-.369-1.266A1.554,1.554,0,0,0,29.244,8.5a1.944,1.944,0,0,0-1.818,1.1V16H25.409V7.019Zm11.438,4.424a5.34,5.34,0,0,1,.963-3.333,3.085,3.085,0,0,1,2.582-1.258,2.931,2.931,0,0,1,2.308,1V3.25h2.017V16H44.791l-.1-.93a2.973,2.973,0,0,1-2.416,1.1,3.068,3.068,0,0,1-2.552-1.27A5.535,5.535,0,0,1,38.748,11.443Zm2.017.174a3.739,3.739,0,0,0,.527,2.137,1.71,1.71,0,0,0,1.5.768,1.9,1.9,0,0,0,1.81-1.1V9.583A1.876,1.876,0,0,0,42.807,8.5a1.723,1.723,0,0,0-1.511.776A4.163,4.163,0,0,0,40.765,11.617Zm11.912,4.549a4.173,4.173,0,0,1-3.109-1.208,4.381,4.381,0,0,1-1.191-3.217v-.249a5.389,5.389,0,0,1,.519-2.4,3.949,3.949,0,0,1,1.457-1.648,3.851,3.851,0,0,1,2.092-.589,3.525,3.525,0,0,1,2.835,1.17,4.949,4.949,0,0,1,1,3.312v.813H50.411a2.7,2.7,0,0,0,.743,1.76,2.23,2.23,0,0,0,1.639.647,2.731,2.731,0,0,0,2.258-1.121l1.087,1.038a3.631,3.631,0,0,1-1.44,1.249A4.509,4.509,0,0,1,52.677,16.166Zm-.241-7.695a1.7,1.7,0,0,0-1.341.581,3.012,3.012,0,0,0-.652,1.619h3.843v-.149a2.452,2.452,0,0,0-.54-1.531A1.686,1.686,0,0,0,52.436,8.471ZM63.974,7.019l.058.938a3.232,3.232,0,0,1,2.59-1.1A2.483,2.483,0,0,1,69.087,8.23a3.186,3.186,0,0,1,2.756-1.378,2.8,2.8,0,0,1,2.212.822A3.618,3.618,0,0,1,74.8,10.1V16H72.781V10.156A1.786,1.786,0,0,0,72.408,8.9a1.635,1.635,0,0,0-1.237-.4,1.679,1.679,0,0,0-1.125.369,1.948,1.948,0,0,0-.61.967L69.444,16H67.427V10.09A1.439,1.439,0,0,0,65.809,8.5a1.776,1.776,0,0,0-1.718.988V16H62.073V7.019ZM82.236,16A3.113,3.113,0,0,1,82,15.162a3.393,3.393,0,0,1-4.565.232,2.47,2.47,0,0,1-.855-1.909,2.55,2.55,0,0,1,1.067-2.2,5.169,5.169,0,0,1,3.051-.768h1.237V9.924a1.573,1.573,0,0,0-.39-1.116,1.547,1.547,0,0,0-1.187-.419,1.777,1.777,0,0,0-1.129.344,1.066,1.066,0,0,0-.44.876H76.774a2.239,2.239,0,0,1,.49-1.382A3.263,3.263,0,0,1,78.6,7.218a4.68,4.68,0,0,1,1.88-.365,3.769,3.769,0,0,1,2.515.793,2.827,2.827,0,0,1,.963,2.229v4.051a4.591,4.591,0,0,0,.34,1.934V16ZM80.02,14.547a2.294,2.294,0,0,0,1.125-.291,1.941,1.941,0,0,0,.793-.78V11.783H80.85a2.973,2.973,0,0,0-1.685.39,1.264,1.264,0,0,0-.564,1.1,1.179,1.179,0,0,0,.386.926A1.5,1.5,0,0,0,80.02,14.547Zm10.75-5.686a4.991,4.991,0,0,0-.822-.066A1.85,1.85,0,0,0,88.08,9.857V16H86.063V7.019h1.926l.05,1a2.273,2.273,0,0,1,2.025-1.17,1.888,1.888,0,0,1,.714.116Zm4.192,3.287-.9.921V16H92.047V3.25h2.017V10.6l.631-.789,2.482-2.8H99.6l-3.337,3.744L99.958,16H97.625Zm9.745,4.018a4.173,4.173,0,0,1-3.109-1.208,4.381,4.381,0,0,1-1.191-3.217v-.249a5.389,5.389,0,0,1,.519-2.4,3.949,3.949,0,0,1,1.457-1.648,3.851,3.851,0,0,1,2.092-.589,3.525,3.525,0,0,1,2.835,1.17,4.949,4.949,0,0,1,1,3.312v.813H102.44a2.7,2.7,0,0,0,.743,1.76,2.23,2.23,0,0,0,1.639.647,2.731,2.731,0,0,0,2.258-1.121l1.087,1.038a3.631,3.631,0,0,1-1.44,1.249A4.509,4.509,0,0,1,104.706,16.166Zm-.241-7.695a1.7,1.7,0,0,0-1.341.581,3.012,3.012,0,0,0-.652,1.619h3.843v-.149a2.452,2.452,0,0,0-.54-1.531A1.686,1.686,0,0,0,104.465,8.471ZM112.4,4.835V7.019h1.585V8.513H112.4v5.014a1.1,1.1,0,0,0,.2.743.943.943,0,0,0,.726.228,3.107,3.107,0,0,0,.706-.083v1.561a4.968,4.968,0,0,1-1.328.191q-2.324,0-2.324-2.565V8.513h-1.478V7.019h1.478V4.835ZM117.672,16h-2.017V7.019h2.017ZM115.53,4.686a1.071,1.071,0,0,1,.295-.772,1.113,1.113,0,0,1,.843-.307,1.127,1.127,0,0,1,.847.307,1.062,1.062,0,0,1,.3.772,1.038,1.038,0,0,1-.3.76,1.136,1.136,0,0,1-.847.3,1.122,1.122,0,0,1-.843-.3A1.046,1.046,0,0,1,115.53,4.686Zm6.209,2.333.058,1.038a3.229,3.229,0,0,1,2.615-1.2q2.806,0,2.855,3.212V16H125.25V10.181a1.85,1.85,0,0,0-.369-1.266,1.554,1.554,0,0,0-1.208-.411,1.944,1.944,0,0,0-1.818,1.1V16h-2.017V7.019Zm7.23,4.424a5.253,5.253,0,0,1,.984-3.341,3.157,3.157,0,0,1,2.611-1.249,2.958,2.958,0,0,1,2.416,1.071l.091-.9h1.818v8.708a3.619,3.619,0,0,1-1.1,2.789,4.189,4.189,0,0,1-2.968,1.021,4.783,4.783,0,0,1-1.93-.411,3.429,3.429,0,0,1-1.432-1.075l.955-1.212a2.883,2.883,0,0,0,2.291,1.1,2.228,2.228,0,0,0,1.585-.544,2.084,2.084,0,0,0,.581-1.6v-.606a2.97,2.97,0,0,1-2.324.971,3.15,3.15,0,0,1-2.577-1.253A5.423,5.423,0,0,1,128.969,11.443Zm2.009.174a3.616,3.616,0,0,0,.552,2.129,1.775,1.775,0,0,0,1.531.776,1.941,1.941,0,0,0,1.81-1.046V9.525A1.913,1.913,0,0,0,133.078,8.5a1.782,1.782,0,0,0-1.548.789A4.049,4.049,0,0,0,130.978,11.617Zm11.837-.174a5.34,5.34,0,0,1,.963-3.333,3.085,3.085,0,0,1,2.582-1.258,2.931,2.931,0,0,1,2.308,1V3.25h2.017V16h-1.826l-.1-.93a2.973,2.973,0,0,1-2.416,1.1,3.068,3.068,0,0,1-2.552-1.27A5.535,5.535,0,0,1,142.815,11.443Zm2.017.174a3.739,3.739,0,0,0,.527,2.137,1.71,1.71,0,0,0,1.5.768,1.9,1.9,0,0,0,1.81-1.1V9.583A1.876,1.876,0,0,0,146.874,8.5a1.723,1.723,0,0,0-1.511.776A4.163,4.163,0,0,0,144.832,11.617Zm11.912,4.549a4.173,4.173,0,0,1-3.109-1.208,4.381,4.381,0,0,1-1.191-3.217v-.249a5.389,5.389,0,0,1,.519-2.4,3.949,3.949,0,0,1,1.457-1.648,3.851,3.851,0,0,1,2.092-.589,3.525,3.525,0,0,1,2.835,1.17,4.949,4.949,0,0,1,1,3.312v.813h-5.869a2.7,2.7,0,0,0,.743,1.76,2.23,2.23,0,0,0,1.639.647,2.731,2.731,0,0,0,2.258-1.121l1.087,1.038a3.631,3.631,0,0,1-1.44,1.249A4.509,4.509,0,0,1,156.744,16.166ZM156.5,8.471a1.7,1.7,0,0,0-1.341.581,3.012,3.012,0,0,0-.652,1.619h3.843v-.149a2.452,2.452,0,0,0-.54-1.531A1.686,1.686,0,0,0,156.5,8.471ZM166.339,16V3.914h4.142a5.057,5.057,0,0,1,3.121.822,2.894,2.894,0,0,1,1.071,2.449,2.61,2.61,0,0,1-.448,1.494,2.885,2.885,0,0,1-1.312,1.029,2.668,2.668,0,0,1,1.515,1,2.913,2.913,0,0,1,.535,1.764,3.218,3.218,0,0,1-1.092,2.615,4.746,4.746,0,0,1-3.125.913Zm2.1-5.454v3.777h2.333a2.257,2.257,0,0,0,1.544-.49,1.719,1.719,0,0,0,.556-1.361,1.725,1.725,0,0,0-1.926-1.926Zm0-1.544H170.5a2.381,2.381,0,0,0,1.531-.444,1.522,1.522,0,0,0,.552-1.258,1.542,1.542,0,0,0-.51-1.295,2.578,2.578,0,0,0-1.59-.4h-2.042Zm10.575,7H177V7.019h2.017ZM176.873,4.686a1.07,1.07,0,0,1,.295-.772,1.113,1.113,0,0,1,.843-.307,1.127,1.127,0,0,1,.847.307,1.062,1.062,0,0,1,.3.772,1.038,1.038,0,0,1-.3.76,1.136,1.136,0,0,1-.847.3,1.122,1.122,0,0,1-.843-.3A1.046,1.046,0,0,1,176.873,4.686Zm6.234,2.333.058.938a3.232,3.232,0,0,1,2.59-1.1A2.483,2.483,0,0,1,188.22,8.23a3.186,3.186,0,0,1,2.756-1.378,2.8,2.8,0,0,1,2.212.822,3.618,3.618,0,0,1,.743,2.424V16h-2.017V10.156a1.786,1.786,0,0,0-.374-1.253,1.635,1.635,0,0,0-1.237-.4,1.679,1.679,0,0,0-1.125.369,1.948,1.948,0,0,0-.61.967L188.577,16H186.56V10.09A1.439,1.439,0,0,0,184.941,8.5a1.776,1.776,0,0,0-1.718.988V16h-2.017V7.019ZM203.884,11.6a5.4,5.4,0,0,1-.934,3.329,3.042,3.042,0,0,1-2.569,1.237,2.93,2.93,0,0,1-2.457-1.137l-.1.971H196V3.25h2.017V7.882a2.92,2.92,0,0,1,2.349-1.029,3.077,3.077,0,0,1,2.582,1.22,5.484,5.484,0,0,1,.938,3.412Zm-2.017-.174a3.813,3.813,0,0,0-.515-2.191,1.714,1.714,0,0,0-1.494-.73,1.873,1.873,0,0,0-1.843,1.146v3.7a1.892,1.892,0,0,0,1.859,1.17,1.7,1.7,0,0,0,1.461-.706,3.7,3.7,0,0,0,.531-2.133Zm3.329,0a5.3,5.3,0,0,1,.523-2.378,3.819,3.819,0,0,1,1.469-1.627,4.14,4.14,0,0,1,2.175-.569,3.923,3.923,0,0,1,2.951,1.17,4.6,4.6,0,0,1,1.224,3.1l.008.473a5.343,5.343,0,0,1-.51,2.374,3.773,3.773,0,0,1-1.461,1.619,4.17,4.17,0,0,1-2.2.573,3.9,3.9,0,0,1-3.042-1.266,4.848,4.848,0,0,1-1.141-3.374Zm2.017.174a3.619,3.619,0,0,0,.573,2.171,1.862,1.862,0,0,0,1.594.784,1.842,1.842,0,0,0,1.59-.8,4,4,0,0,0,.569-2.333,3.572,3.572,0,0,0-.585-2.158,1.973,1.973,0,0,0-3.158-.012A3.922,3.922,0,0,0,207.212,11.6Z" transform="translate(463 10612)" fill="#12263f"/>
    <rect id="Rectángulo_347091-2" data-name="Rectángulo 347091" width="177" height="37" rx="9" transform="translate(341 10714)" fill="#a3bfe4"/>
    <rect id="Rectángulo_347093-2" data-name="Rectángulo 347093" width="55" height="4" transform="translate(402 10751)" fill="#f1bebe"/>
    <path id="Trazado_720760" data-name="Trazado 720760" d="M23.889,14.323h5.487V16H21.789V3.914h2.1ZM32.937,16H30.919V7.019h2.017ZM30.795,4.686a1.071,1.071,0,0,1,.295-.772,1.113,1.113,0,0,1,.843-.307,1.127,1.127,0,0,1,.847.307,1.062,1.062,0,0,1,.3.772,1.038,1.038,0,0,1-.3.76,1.136,1.136,0,0,1-.847.3,1.122,1.122,0,0,1-.843-.3A1.046,1.046,0,0,1,30.795,4.686ZM37,7.019l.058,1.038a3.229,3.229,0,0,1,2.615-1.2q2.806,0,2.855,3.212V16H40.515V10.181a1.85,1.85,0,0,0-.369-1.266A1.554,1.554,0,0,0,38.938,8.5a1.944,1.944,0,0,0-1.818,1.1V16H35.1V7.019Zm11.538,9.147a4.173,4.173,0,0,1-3.109-1.208,4.381,4.381,0,0,1-1.191-3.217v-.249a5.389,5.389,0,0,1,.519-2.4,3.949,3.949,0,0,1,1.457-1.648,3.851,3.851,0,0,1,2.092-.589,3.525,3.525,0,0,1,2.835,1.17,4.949,4.949,0,0,1,1,3.312v.813H46.276a2.7,2.7,0,0,0,.743,1.76,2.23,2.23,0,0,0,1.639.647,2.731,2.731,0,0,0,2.258-1.121L52,14.473a3.631,3.631,0,0,1-1.44,1.249A4.509,4.509,0,0,1,48.542,16.166ZM48.3,8.471a1.7,1.7,0,0,0-1.341.581,3.012,3.012,0,0,0-.652,1.619h3.843v-.149a2.452,2.452,0,0,0-.54-1.531A1.686,1.686,0,0,0,48.3,8.471ZM59.076,16a3.113,3.113,0,0,1-.232-.838,3.393,3.393,0,0,1-4.565.232,2.47,2.47,0,0,1-.855-1.909,2.55,2.55,0,0,1,1.067-2.2,5.169,5.169,0,0,1,3.051-.768h1.237V9.924a1.573,1.573,0,0,0-.39-1.116A1.547,1.547,0,0,0,57.2,8.388a1.777,1.777,0,0,0-1.129.344,1.066,1.066,0,0,0-.44.876H53.614a2.239,2.239,0,0,1,.49-1.382,3.263,3.263,0,0,1,1.332-1.009,4.68,4.68,0,0,1,1.88-.365,3.769,3.769,0,0,1,2.515.793,2.827,2.827,0,0,1,.963,2.229v4.051a4.591,4.591,0,0,0,.34,1.934V16Zm-2.216-1.453a2.294,2.294,0,0,0,1.125-.291,1.941,1.941,0,0,0,.793-.78V11.783H57.689a2.973,2.973,0,0,0-1.685.39,1.264,1.264,0,0,0-.564,1.1,1.179,1.179,0,0,0,.386.926A1.5,1.5,0,0,0,56.859,14.547ZM64.8,7.019l.058.938a3.232,3.232,0,0,1,2.59-1.1A2.483,2.483,0,0,1,69.917,8.23a3.186,3.186,0,0,1,2.756-1.378,2.8,2.8,0,0,1,2.212.822,3.618,3.618,0,0,1,.743,2.424V16H73.61V10.156A1.786,1.786,0,0,0,73.237,8.9,1.635,1.635,0,0,0,72,8.5a1.679,1.679,0,0,0-1.125.369,1.948,1.948,0,0,0-.61.967L70.273,16H68.256V10.09A1.439,1.439,0,0,0,66.638,8.5a1.776,1.776,0,0,0-1.718.988V16H62.9V7.019ZM79.844,16H77.827V7.019h2.017ZM77.7,4.686A1.071,1.071,0,0,1,78,3.914a1.113,1.113,0,0,1,.843-.307,1.127,1.127,0,0,1,.847.307,1.062,1.062,0,0,1,.3.772,1.038,1.038,0,0,1-.3.76,1.136,1.136,0,0,1-.847.3,1.122,1.122,0,0,1-.843-.3A1.046,1.046,0,0,1,77.7,4.686ZM86,16.166a4.173,4.173,0,0,1-3.109-1.208A4.381,4.381,0,0,1,81.7,11.742v-.249a5.389,5.389,0,0,1,.519-2.4,3.949,3.949,0,0,1,1.457-1.648,3.851,3.851,0,0,1,2.092-.589A3.525,3.525,0,0,1,88.6,8.023a4.949,4.949,0,0,1,1,3.312v.813H83.729a2.7,2.7,0,0,0,.743,1.76,2.23,2.23,0,0,0,1.639.647,2.731,2.731,0,0,0,2.258-1.121l1.087,1.038a3.631,3.631,0,0,1-1.44,1.249A4.509,4.509,0,0,1,86,16.166Zm-.241-7.695a1.7,1.7,0,0,0-1.341.581,3.012,3.012,0,0,0-.652,1.619h3.843v-.149a2.452,2.452,0,0,0-.54-1.531A1.686,1.686,0,0,0,85.754,8.471Zm7.28-1.453.058,1.038a3.229,3.229,0,0,1,2.615-1.2q2.806,0,2.855,3.212V16H96.545V10.181a1.85,1.85,0,0,0-.369-1.266A1.554,1.554,0,0,0,94.968,8.5a1.944,1.944,0,0,0-1.818,1.1V16H91.133V7.019Zm10.11-2.183V7.019h1.585V8.513h-1.585v5.014a1.1,1.1,0,0,0,.2.743.943.943,0,0,0,.726.228,3.107,3.107,0,0,0,.706-.083v1.561a4.968,4.968,0,0,1-1.328.191q-2.324,0-2.324-2.565V8.513H99.65V7.019h1.478V4.835Zm2.5,6.591a5.3,5.3,0,0,1,.523-2.378,3.819,3.819,0,0,1,1.469-1.627,4.14,4.14,0,0,1,2.175-.569,3.923,3.923,0,0,1,2.951,1.17,4.6,4.6,0,0,1,1.224,3.1l.008.473a5.343,5.343,0,0,1-.51,2.374,3.773,3.773,0,0,1-1.461,1.619,4.17,4.17,0,0,1-2.2.573,3.9,3.9,0,0,1-3.042-1.266,4.848,4.848,0,0,1-1.141-3.374Zm2.017.174a3.619,3.619,0,0,0,.573,2.171,1.862,1.862,0,0,0,1.594.784,1.842,1.842,0,0,0,1.59-.8,4,4,0,0,0,.569-2.333,3.572,3.572,0,0,0-.585-2.158,1.973,1.973,0,0,0-3.158-.012A3.922,3.922,0,0,0,107.66,11.6Zm13.074,1.959a.914.914,0,0,0-.444-.822,4.723,4.723,0,0,0-1.473-.5,7.574,7.574,0,0,1-1.718-.548,2.293,2.293,0,0,1-1.511-2.117,2.391,2.391,0,0,1,.979-1.942,3.872,3.872,0,0,1,2.49-.78,4.029,4.029,0,0,1,2.6.8,2.529,2.529,0,0,1,.992,2.067h-2.017a1.243,1.243,0,0,0-.432-.967,1.654,1.654,0,0,0-1.146-.386,1.787,1.787,0,0,0-1.083.307.968.968,0,0,0-.419.822.818.818,0,0,0,.39.722,5.365,5.365,0,0,0,1.577.519,7.466,7.466,0,0,1,1.864.623,2.639,2.639,0,0,1,1,.867,2.212,2.212,0,0,1,.328,1.229,2.34,2.34,0,0,1-1,1.963,4.283,4.283,0,0,1-2.631.751,4.644,4.644,0,0,1-1.967-.4,3.238,3.238,0,0,1-1.345-1.1,2.594,2.594,0,0,1-.481-1.5h1.959a1.421,1.421,0,0,0,.54,1.1,2.1,2.1,0,0,0,1.32.386,2.04,2.04,0,0,0,1.212-.3A.938.938,0,0,0,120.734,13.56Z" transform="translate(358 10723)" fill="#12263f"/>
    <rect id="Rectángulo_347091-3" data-name="Rectángulo 347091" width="177" height="37" rx="9" transform="translate(341 10908)" fill="#a3bfe4"/>
    <rect id="Rectángulo_347093-3" data-name="Rectángulo 347093" width="55" height="4" transform="translate(402 10945)" fill="#f1bebe"/>
    <path id="Trazado_720761" data-name="Trazado 720761" d="M36.8,16H34.713V3.914H36.8Zm4.258-8.981.058,1.038a3.229,3.229,0,0,1,2.615-1.2q2.806,0,2.855,3.212V16H44.574V10.181A1.85,1.85,0,0,0,44.2,8.915,1.554,1.554,0,0,0,43,8.5a1.944,1.944,0,0,0-1.818,1.1V16H39.162V7.019ZM50.792,16H48.774V7.019h2.017ZM48.65,4.686a1.071,1.071,0,0,1,.295-.772,1.113,1.113,0,0,1,.843-.307,1.127,1.127,0,0,1,.847.307,1.062,1.062,0,0,1,.3.772,1.038,1.038,0,0,1-.3.76,1.136,1.136,0,0,1-.847.3,1.122,1.122,0,0,1-.843-.3A1.046,1.046,0,0,1,48.65,4.686Zm8.027,9.87a1.824,1.824,0,0,0,1.253-.44,1.5,1.5,0,0,0,.531-1.087h1.9a2.963,2.963,0,0,1-.523,1.565,3.43,3.43,0,0,1-1.328,1.15,3.958,3.958,0,0,1-1.81.423,3.829,3.829,0,0,1-2.988-1.22,4.84,4.84,0,0,1-1.1-3.37v-.208a4.759,4.759,0,0,1,1.1-3.283,3.8,3.8,0,0,1,2.988-1.233,3.69,3.69,0,0,1,2.611.934,3.345,3.345,0,0,1,1.058,2.453h-1.9a1.847,1.847,0,0,0-.527-1.27,1.7,1.7,0,0,0-1.258-.5,1.775,1.775,0,0,0-1.511.71,3.621,3.621,0,0,0-.54,2.154v.324a3.682,3.682,0,0,0,.527,2.179A1.773,1.773,0,0,0,56.677,14.556ZM64.031,16H62.014V7.019h2.017ZM61.89,4.686a1.071,1.071,0,0,1,.295-.772,1.113,1.113,0,0,1,.843-.307,1.127,1.127,0,0,1,.847.307,1.062,1.062,0,0,1,.3.772,1.038,1.038,0,0,1-.3.76,1.136,1.136,0,0,1-.847.3,1.122,1.122,0,0,1-.843-.3A1.046,1.046,0,0,1,61.89,4.686ZM71.593,16a3.113,3.113,0,0,1-.232-.838,3.393,3.393,0,0,1-4.565.232,2.47,2.47,0,0,1-.855-1.909,2.55,2.55,0,0,1,1.067-2.2,5.169,5.169,0,0,1,3.051-.768h1.237V9.924a1.573,1.573,0,0,0-.39-1.116,1.547,1.547,0,0,0-1.187-.419,1.777,1.777,0,0,0-1.129.344,1.066,1.066,0,0,0-.44.876H66.131a2.239,2.239,0,0,1,.49-1.382,3.263,3.263,0,0,1,1.332-1.009,4.68,4.68,0,0,1,1.88-.365,3.769,3.769,0,0,1,2.515.793,2.827,2.827,0,0,1,.963,2.229v4.051a4.591,4.591,0,0,0,.34,1.934V16Zm-2.216-1.453a2.294,2.294,0,0,0,1.125-.291,1.941,1.941,0,0,0,.793-.78V11.783H70.207a2.973,2.973,0,0,0-1.685.39,1.264,1.264,0,0,0-.564,1.1,1.179,1.179,0,0,0,.386.926A1.5,1.5,0,0,0,69.377,14.547Zm8.575-9.712V7.019h1.585V8.513H77.952v5.014a1.1,1.1,0,0,0,.2.743.943.943,0,0,0,.726.228,3.107,3.107,0,0,0,.706-.083v1.561a4.968,4.968,0,0,1-1.328.191q-2.324,0-2.324-2.565V8.513H74.457V7.019h1.478V4.835ZM83.223,16H81.206V7.019h2.017ZM81.081,4.686a1.071,1.071,0,0,1,.295-.772,1.113,1.113,0,0,1,.843-.307,1.127,1.127,0,0,1,.847.307,1.062,1.062,0,0,1,.3.772,1.038,1.038,0,0,1-.3.76,1.136,1.136,0,0,1-.847.3,1.122,1.122,0,0,1-.843-.3A1.046,1.046,0,0,1,81.081,4.686Zm7.5,8.757,1.9-6.425h2.083L89.457,16H87.705L84.567,7.019h2.092ZM99.069,16a3.113,3.113,0,0,1-.232-.838,3.393,3.393,0,0,1-4.565.232,2.47,2.47,0,0,1-.855-1.909,2.55,2.55,0,0,1,1.067-2.2,5.169,5.169,0,0,1,3.051-.768H98.77V9.924a1.573,1.573,0,0,0-.39-1.116,1.547,1.547,0,0,0-1.187-.419,1.777,1.777,0,0,0-1.129.344,1.066,1.066,0,0,0-.44.876H93.607a2.239,2.239,0,0,1,.49-1.382,3.263,3.263,0,0,1,1.332-1.009,4.68,4.68,0,0,1,1.88-.365,3.769,3.769,0,0,1,2.515.793,2.827,2.827,0,0,1,.963,2.229v4.051a4.591,4.591,0,0,0,.34,1.934V16Zm-2.216-1.453a2.294,2.294,0,0,0,1.125-.291,1.941,1.941,0,0,0,.793-.78V11.783H97.683a2.973,2.973,0,0,0-1.685.39,1.264,1.264,0,0,0-.564,1.1,1.179,1.179,0,0,0,.386.926A1.5,1.5,0,0,0,96.853,14.547Zm11.082-.988a.914.914,0,0,0-.444-.822,4.723,4.723,0,0,0-1.473-.5,7.574,7.574,0,0,1-1.718-.548,2.293,2.293,0,0,1-1.511-2.117,2.391,2.391,0,0,1,.979-1.942,3.872,3.872,0,0,1,2.49-.78,4.029,4.029,0,0,1,2.6.8,2.529,2.529,0,0,1,.992,2.067h-2.017a1.243,1.243,0,0,0-.432-.967,1.654,1.654,0,0,0-1.146-.386,1.787,1.787,0,0,0-1.083.307.968.968,0,0,0-.419.822.818.818,0,0,0,.39.722,5.365,5.365,0,0,0,1.577.519,7.466,7.466,0,0,1,1.864.623,2.639,2.639,0,0,1,1,.867,2.212,2.212,0,0,1,.328,1.229,2.34,2.34,0,0,1-1,1.963,4.283,4.283,0,0,1-2.631.751,4.644,4.644,0,0,1-1.967-.4,3.238,3.238,0,0,1-1.345-1.1,2.594,2.594,0,0,1-.481-1.5h1.959a1.421,1.421,0,0,0,.54,1.1,2.1,2.1,0,0,0,1.32.386,2.04,2.04,0,0,0,1.212-.3A.938.938,0,0,0,107.934,13.56Z" transform="translate(358 10917)" fill="#12263f"/>
    <rect id="Rectángulo_347091-4" data-name="Rectángulo 347091" width="177" height="37" rx="9" transform="translate(341 11017)" fill="#a3bfe4"/>
    <rect id="Rectángulo_347093-4" data-name="Rectángulo 347093" width="55" height="4" transform="translate(402 11054)" fill="#f1bebe"/>
    <path id="Trazado_720762" data-name="Trazado 720762" d="M51.551,10.272a7.415,7.415,0,0,1-.614,3.117,4.644,4.644,0,0,1-1.756,2.059,5.15,5.15,0,0,1-5.246,0A4.716,4.716,0,0,1,42.159,13.4a7.183,7.183,0,0,1-.635-3.063V9.658a7.352,7.352,0,0,1,.627-3.121,4.71,4.71,0,0,1,1.768-2.071,5.161,5.161,0,0,1,5.238-.008A4.65,4.65,0,0,1,50.92,6.5a7.336,7.336,0,0,1,.631,3.1Zm-2.1-.631a5.283,5.283,0,0,0-.76-3.08,2.68,2.68,0,0,0-4.283,0,5.181,5.181,0,0,0-.784,3.017v.7a5.243,5.243,0,0,0,.776,3.08,2.5,2.5,0,0,0,2.154,1.087A2.47,2.47,0,0,0,48.7,13.377a5.356,5.356,0,0,0,.751-3.1ZM61.329,11.6a5.4,5.4,0,0,1-.934,3.329,3.042,3.042,0,0,1-2.569,1.237,2.93,2.93,0,0,1-2.457-1.137l-.1.971H53.444V3.25h2.017V7.882A2.92,2.92,0,0,1,57.81,6.853a3.077,3.077,0,0,1,2.582,1.22,5.484,5.484,0,0,1,.938,3.412Zm-2.017-.174A3.813,3.813,0,0,0,58.8,9.235,1.714,1.714,0,0,0,57.3,8.5,1.873,1.873,0,0,0,55.461,9.65v3.7a1.892,1.892,0,0,0,1.859,1.17,1.7,1.7,0,0,0,1.461-.706,3.7,3.7,0,0,0,.531-2.133Zm5.811-4.408V16.8a2.955,2.955,0,0,1-.685,2.1,2.625,2.625,0,0,1-2,.726,4.031,4.031,0,0,1-1.071-.141V17.893a3.108,3.108,0,0,0,.714.075q1,0,1.029-1.1V7.019ZM62.931,4.686a1.071,1.071,0,0,1,.295-.772,1.113,1.113,0,0,1,.843-.307,1.127,1.127,0,0,1,.847.307,1.062,1.062,0,0,1,.3.772,1.038,1.038,0,0,1-.3.76,1.136,1.136,0,0,1-.847.3,1.122,1.122,0,0,1-.843-.3A1.046,1.046,0,0,1,62.931,4.686Zm8.3,11.48a4.173,4.173,0,0,1-3.109-1.208,4.381,4.381,0,0,1-1.191-3.217v-.249a5.389,5.389,0,0,1,.519-2.4,3.949,3.949,0,0,1,1.457-1.648A3.851,3.851,0,0,1,71,6.853a3.525,3.525,0,0,1,2.835,1.17,4.949,4.949,0,0,1,1,3.312v.813H68.966a2.7,2.7,0,0,0,.743,1.76,2.23,2.23,0,0,0,1.639.647,2.731,2.731,0,0,0,2.258-1.121l1.087,1.038a3.631,3.631,0,0,1-1.44,1.249A4.509,4.509,0,0,1,71.232,16.166Zm-.241-7.695a1.7,1.7,0,0,0-1.341.581A3.012,3.012,0,0,0,69,10.671h3.843v-.149A2.452,2.452,0,0,0,72.3,8.99,1.686,1.686,0,0,0,70.991,8.471Zm7.936-3.636V7.019h1.585V8.513H78.927v5.014a1.1,1.1,0,0,0,.2.743.943.943,0,0,0,.726.228,3.107,3.107,0,0,0,.706-.083v1.561a4.968,4.968,0,0,1-1.328.191q-2.324,0-2.324-2.565V8.513H75.432V7.019H76.91V4.835ZM84.2,16H82.181V7.019H84.2ZM82.056,4.686a1.071,1.071,0,0,1,.295-.772,1.113,1.113,0,0,1,.843-.307,1.127,1.127,0,0,1,.847.307,1.062,1.062,0,0,1,.3.772,1.038,1.038,0,0,1-.3.76,1.136,1.136,0,0,1-.847.3,1.122,1.122,0,0,1-.843-.3A1.046,1.046,0,0,1,82.056,4.686Zm7.5,8.757,1.9-6.425h2.083L90.432,16H88.68L85.543,7.019h2.092Zm4.74-2.017a5.3,5.3,0,0,1,.523-2.378,3.819,3.819,0,0,1,1.469-1.627,4.14,4.14,0,0,1,2.175-.569,3.923,3.923,0,0,1,2.951,1.17,4.6,4.6,0,0,1,1.224,3.1l.008.473a5.343,5.343,0,0,1-.51,2.374,3.773,3.773,0,0,1-1.461,1.619,4.17,4.17,0,0,1-2.2.573A3.9,3.9,0,0,1,95.441,14.9,4.848,4.848,0,0,1,94.3,11.526Zm2.017.174a3.619,3.619,0,0,0,.573,2.171,1.862,1.862,0,0,0,1.594.784,1.842,1.842,0,0,0,1.59-.8,4,4,0,0,0,.569-2.333,3.572,3.572,0,0,0-.585-2.158A1.973,1.973,0,0,0,96.9,9.256,3.922,3.922,0,0,0,96.317,11.6Z" transform="translate(358 11026)" fill="#12263f"/>
    <rect id="Rectángulo_347091-5" data-name="Rectángulo 347091" width="177" height="37" rx="9" transform="translate(446 11126)" fill="#a3bfe4"/>
    <rect id="Rectángulo_347093-5" data-name="Rectángulo 347093" width="55" height="4" transform="translate(507 11163)" fill="#f1bebe"/>
    <path id="Trazado_720763" data-name="Trazado 720763" d="M11.371,11.518V16h-2.1V3.914h4.624a4.675,4.675,0,0,1,3.217,1.055A3.549,3.549,0,0,1,18.3,7.761a3.431,3.431,0,0,1-1.166,2.767,4.9,4.9,0,0,1-3.266.989Zm0-1.693h2.523A2.485,2.485,0,0,0,15.6,9.3a1.937,1.937,0,0,0,.589-1.523,2.09,2.09,0,0,0-.6-1.565,2.3,2.3,0,0,0-1.644-.6H11.371Zm8.085,1.6a5.3,5.3,0,0,1,.523-2.378,3.819,3.819,0,0,1,1.469-1.627,4.14,4.14,0,0,1,2.175-.569,3.923,3.923,0,0,1,2.951,1.17,4.6,4.6,0,0,1,1.224,3.1l.008.473a5.343,5.343,0,0,1-.51,2.374,3.773,3.773,0,0,1-1.461,1.619,4.17,4.17,0,0,1-2.2.573A3.9,3.9,0,0,1,20.6,14.9a4.848,4.848,0,0,1-1.141-3.374Zm2.017.174a3.619,3.619,0,0,0,.573,2.171,1.862,1.862,0,0,0,1.594.784,1.842,1.842,0,0,0,1.59-.8,4,4,0,0,0,.569-2.333,3.572,3.572,0,0,0-.585-2.158,1.973,1.973,0,0,0-3.158-.012A3.922,3.922,0,0,0,21.473,11.6ZM34.547,13.56a.914.914,0,0,0-.444-.822,4.723,4.723,0,0,0-1.473-.5,7.574,7.574,0,0,1-1.718-.548A2.293,2.293,0,0,1,29.4,9.575a2.391,2.391,0,0,1,.979-1.942,3.872,3.872,0,0,1,2.49-.78,4.029,4.029,0,0,1,2.6.8,2.529,2.529,0,0,1,.992,2.067H34.447a1.243,1.243,0,0,0-.432-.967,1.654,1.654,0,0,0-1.146-.386,1.787,1.787,0,0,0-1.083.307.968.968,0,0,0-.419.822.818.818,0,0,0,.39.722,5.365,5.365,0,0,0,1.577.519,7.466,7.466,0,0,1,1.864.623,2.639,2.639,0,0,1,1,.867,2.212,2.212,0,0,1,.328,1.229,2.34,2.34,0,0,1-1,1.963,4.283,4.283,0,0,1-2.631.751,4.644,4.644,0,0,1-1.967-.4,3.238,3.238,0,0,1-1.345-1.1,2.594,2.594,0,0,1-.481-1.5h1.959a1.421,1.421,0,0,0,.54,1.1,2.1,2.1,0,0,0,1.32.386,2.04,2.04,0,0,0,1.212-.3A.938.938,0,0,0,34.547,13.56ZM40.432,16H38.415V7.019h2.017ZM38.291,4.686a1.071,1.071,0,0,1,.295-.772,1.113,1.113,0,0,1,.843-.307,1.127,1.127,0,0,1,.847.307,1.062,1.062,0,0,1,.3.772,1.038,1.038,0,0,1-.3.76,1.136,1.136,0,0,1-.847.3,1.122,1.122,0,0,1-.843-.3A1.046,1.046,0,0,1,38.291,4.686Zm8.027,9.87a1.824,1.824,0,0,0,1.253-.44,1.5,1.5,0,0,0,.531-1.087H50a2.963,2.963,0,0,1-.523,1.565,3.43,3.43,0,0,1-1.328,1.15,3.958,3.958,0,0,1-1.81.423,3.829,3.829,0,0,1-2.988-1.22,4.84,4.84,0,0,1-1.1-3.37v-.208a4.759,4.759,0,0,1,1.1-3.283,3.8,3.8,0,0,1,2.988-1.233,3.69,3.69,0,0,1,2.611.934A3.345,3.345,0,0,1,50,10.239H48.1a1.847,1.847,0,0,0-.527-1.27,1.7,1.7,0,0,0-1.258-.5,1.775,1.775,0,0,0-1.511.71,3.621,3.621,0,0,0-.54,2.154v.324a3.682,3.682,0,0,0,.527,2.179A1.773,1.773,0,0,0,46.317,14.556ZM53.672,16H51.655V7.019h2.017ZM51.53,4.686a1.071,1.071,0,0,1,.295-.772,1.113,1.113,0,0,1,.843-.307,1.127,1.127,0,0,1,.847.307,1.062,1.062,0,0,1,.3.772,1.038,1.038,0,0,1-.3.76,1.136,1.136,0,0,1-.847.3,1.122,1.122,0,0,1-.843-.3A1.046,1.046,0,0,1,51.53,4.686Zm3.959,6.74a5.3,5.3,0,0,1,.523-2.378,3.819,3.819,0,0,1,1.469-1.627,4.14,4.14,0,0,1,2.175-.569,3.923,3.923,0,0,1,2.951,1.17,4.6,4.6,0,0,1,1.224,3.1l.008.473a5.343,5.343,0,0,1-.51,2.374,3.773,3.773,0,0,1-1.461,1.619,4.17,4.17,0,0,1-2.2.573A3.9,3.9,0,0,1,56.631,14.9a4.848,4.848,0,0,1-1.141-3.374Zm2.017.174a3.619,3.619,0,0,0,.573,2.171,1.862,1.862,0,0,0,1.594.784,1.842,1.842,0,0,0,1.59-.8,4,4,0,0,0,.569-2.333,3.572,3.572,0,0,0-.585-2.158,1.973,1.973,0,0,0-3.158-.012A3.922,3.922,0,0,0,57.507,11.6Zm9.911-4.582.058,1.038a3.229,3.229,0,0,1,2.615-1.2q2.806,0,2.855,3.212V16H70.929V10.181a1.85,1.85,0,0,0-.369-1.266A1.554,1.554,0,0,0,69.352,8.5a1.944,1.944,0,0,0-1.818,1.1V16H65.517V7.019ZM80.367,16a3.113,3.113,0,0,1-.232-.838,3.393,3.393,0,0,1-4.565.232,2.47,2.47,0,0,1-.855-1.909,2.55,2.55,0,0,1,1.067-2.2,5.169,5.169,0,0,1,3.051-.768h1.237V9.924a1.573,1.573,0,0,0-.39-1.116,1.547,1.547,0,0,0-1.187-.419,1.777,1.777,0,0,0-1.129.344,1.066,1.066,0,0,0-.44.876H74.905a2.239,2.239,0,0,1,.49-1.382,3.263,3.263,0,0,1,1.332-1.009,4.68,4.68,0,0,1,1.88-.365,3.769,3.769,0,0,1,2.515.793,2.827,2.827,0,0,1,.963,2.229v4.051a4.591,4.591,0,0,0,.34,1.934V16Zm-2.216-1.453a2.294,2.294,0,0,0,1.125-.291,1.941,1.941,0,0,0,.793-.78V11.783H78.981a2.973,2.973,0,0,0-1.685.39,1.264,1.264,0,0,0-.564,1.1,1.179,1.179,0,0,0,.386.926A1.5,1.5,0,0,0,78.151,14.547Zm7.944-7.529.058.938a3.232,3.232,0,0,1,2.59-1.1A2.483,2.483,0,0,1,91.208,8.23a3.186,3.186,0,0,1,2.756-1.378,2.8,2.8,0,0,1,2.212.822,3.618,3.618,0,0,1,.743,2.424V16H94.9V10.156A1.786,1.786,0,0,0,94.528,8.9a1.635,1.635,0,0,0-1.237-.4,1.679,1.679,0,0,0-1.125.369,1.948,1.948,0,0,0-.61.967L91.565,16H89.548V10.09A1.439,1.439,0,0,0,87.929,8.5a1.776,1.776,0,0,0-1.718.988V16H84.194V7.019ZM101.136,16H99.119V7.019h2.017ZM98.994,4.686a1.071,1.071,0,0,1,.295-.772,1.113,1.113,0,0,1,.843-.307,1.127,1.127,0,0,1,.847.307,1.062,1.062,0,0,1,.3.772,1.038,1.038,0,0,1-.3.76,1.136,1.136,0,0,1-.847.3,1.122,1.122,0,0,1-.843-.3A1.046,1.046,0,0,1,98.994,4.686Zm8.292,11.48a4.173,4.173,0,0,1-3.109-1.208,4.381,4.381,0,0,1-1.191-3.217v-.249a5.389,5.389,0,0,1,.519-2.4,3.949,3.949,0,0,1,1.457-1.648,3.851,3.851,0,0,1,2.092-.589,3.525,3.525,0,0,1,2.835,1.17,4.949,4.949,0,0,1,1,3.312v.813h-5.869a2.7,2.7,0,0,0,.743,1.76,2.23,2.23,0,0,0,1.639.647,2.731,2.731,0,0,0,2.258-1.121l1.087,1.038a3.631,3.631,0,0,1-1.44,1.249A4.509,4.509,0,0,1,107.287,16.166Zm-.241-7.695a1.7,1.7,0,0,0-1.341.581,3.012,3.012,0,0,0-.652,1.619H108.9v-.149a2.452,2.452,0,0,0-.54-1.531A1.686,1.686,0,0,0,107.046,8.471Zm7.28-1.453.058,1.038A3.229,3.229,0,0,1,117,6.853q2.806,0,2.855,3.212V16h-2.017V10.181a1.85,1.85,0,0,0-.369-1.266A1.554,1.554,0,0,0,116.26,8.5a1.944,1.944,0,0,0-1.818,1.1V16h-2.017V7.019Zm10.11-2.183V7.019h1.585V8.513h-1.585v5.014a1.1,1.1,0,0,0,.2.743.943.943,0,0,0,.726.228,3.107,3.107,0,0,0,.706-.083v1.561a4.968,4.968,0,0,1-1.328.191q-2.324,0-2.324-2.565V8.513h-1.478V7.019h1.478V4.835Zm2.5,6.591a5.3,5.3,0,0,1,.523-2.378,3.819,3.819,0,0,1,1.469-1.627,4.14,4.14,0,0,1,2.175-.569,3.923,3.923,0,0,1,2.951,1.17,4.6,4.6,0,0,1,1.224,3.1l.008.473a5.343,5.343,0,0,1-.51,2.374,3.773,3.773,0,0,1-1.461,1.619,4.17,4.17,0,0,1-2.2.573,3.9,3.9,0,0,1-3.042-1.266,4.848,4.848,0,0,1-1.141-3.374Zm2.017.174a3.619,3.619,0,0,0,.573,2.171,1.862,1.862,0,0,0,1.594.784,1.842,1.842,0,0,0,1.59-.8,4,4,0,0,0,.569-2.333,3.572,3.572,0,0,0-.585-2.158,1.973,1.973,0,0,0-3.158-.012A3.922,3.922,0,0,0,128.952,11.6Z" transform="translate(463 11135)" fill="#12263f"/>
    <rect id="Rectángulo_347091-6" data-name="Rectángulo 347091" width="177" height="37" rx="9" transform="translate(971 10608)" fill="#a3bfe4"/>
    <rect id="Rectángulo_347093-6" data-name="Rectángulo 347093" width="55" height="4" transform="translate(1032 10645)" fill="#f1bebe"/>
    <path id="Trazado_720768" data-name="Trazado 720768" d="M47.272,10.878H42.408V16h-2.1V3.914h7.678V5.607H42.408V9.2h4.864ZM51.6,16H49.58V7.019H51.6ZM49.455,4.686a1.071,1.071,0,0,1,.295-.772,1.113,1.113,0,0,1,.843-.307,1.127,1.127,0,0,1,.847.307,1.062,1.062,0,0,1,.3.772,1.038,1.038,0,0,1-.3.76,1.136,1.136,0,0,1-.847.3,1.122,1.122,0,0,1-.843-.3A1.046,1.046,0,0,1,49.455,4.686ZM55.938,16H53.921V3.25h2.017Zm1.818-4.574a5.3,5.3,0,0,1,.523-2.378,3.819,3.819,0,0,1,1.469-1.627,4.14,4.14,0,0,1,2.175-.569,3.923,3.923,0,0,1,2.951,1.17,4.6,4.6,0,0,1,1.224,3.1l.008.473a5.343,5.343,0,0,1-.51,2.374,3.773,3.773,0,0,1-1.461,1.619,4.17,4.17,0,0,1-2.2.573A3.9,3.9,0,0,1,58.9,14.9a4.848,4.848,0,0,1-1.141-3.374Zm2.017.174a3.619,3.619,0,0,0,.573,2.171,1.862,1.862,0,0,0,1.594.784,1.842,1.842,0,0,0,1.59-.8,4,4,0,0,0,.569-2.333,3.572,3.572,0,0,0-.585-2.158,1.973,1.973,0,0,0-3.158-.012A3.922,3.922,0,0,0,59.773,11.6ZM72.847,13.56a.914.914,0,0,0-.444-.822,4.723,4.723,0,0,0-1.473-.5,7.574,7.574,0,0,1-1.718-.548A2.293,2.293,0,0,1,67.7,9.575a2.391,2.391,0,0,1,.979-1.942,3.872,3.872,0,0,1,2.49-.78,4.029,4.029,0,0,1,2.6.8,2.529,2.529,0,0,1,.992,2.067H72.747a1.243,1.243,0,0,0-.432-.967,1.654,1.654,0,0,0-1.146-.386,1.787,1.787,0,0,0-1.083.307.968.968,0,0,0-.419.822.818.818,0,0,0,.39.722,5.365,5.365,0,0,0,1.577.519,7.466,7.466,0,0,1,1.864.623,2.639,2.639,0,0,1,1,.867,2.212,2.212,0,0,1,.328,1.229,2.34,2.34,0,0,1-1,1.963,4.283,4.283,0,0,1-2.631.751,4.644,4.644,0,0,1-1.967-.4,3.238,3.238,0,0,1-1.345-1.1,2.594,2.594,0,0,1-.481-1.5H69.36a1.421,1.421,0,0,0,.54,1.1,2.1,2.1,0,0,0,1.32.386,2.04,2.04,0,0,0,1.212-.3A.938.938,0,0,0,72.847,13.56Zm3.362-2.133a5.3,5.3,0,0,1,.523-2.378A3.819,3.819,0,0,1,78.2,7.421a4.14,4.14,0,0,1,2.175-.569,3.923,3.923,0,0,1,2.951,1.17,4.6,4.6,0,0,1,1.224,3.1l.008.473a5.343,5.343,0,0,1-.51,2.374,3.773,3.773,0,0,1-1.461,1.619,4.17,4.17,0,0,1-2.2.573A3.9,3.9,0,0,1,77.35,14.9a4.848,4.848,0,0,1-1.141-3.374Zm2.017.174a3.619,3.619,0,0,0,.573,2.171,1.862,1.862,0,0,0,1.594.784,1.842,1.842,0,0,0,1.59-.8,4,4,0,0,0,.569-2.333,3.572,3.572,0,0,0-.585-2.158,1.973,1.973,0,0,0-3.158-.012A3.922,3.922,0,0,0,78.226,11.6ZM86.975,16V8.513H85.6V7.019h1.37V6.2a3.085,3.085,0,0,1,.83-2.308,3.18,3.18,0,0,1,2.324-.813,4.662,4.662,0,0,1,1.129.149L91.208,4.8a3.973,3.973,0,0,0-.772-.066,1.3,1.3,0,0,0-1.444,1.486v.8h1.826V8.513H88.992V16Zm7.487,0H92.445V7.019h2.017ZM94.08,3.308h2.3l-2.3,2.515-1.619,0ZM102.124,16a3.113,3.113,0,0,1-.232-.838,3.393,3.393,0,0,1-4.565.232,2.47,2.47,0,0,1-.855-1.909,2.55,2.55,0,0,1,1.067-2.2,5.169,5.169,0,0,1,3.051-.768h1.237V9.924a1.573,1.573,0,0,0-.39-1.116,1.547,1.547,0,0,0-1.187-.419,1.777,1.777,0,0,0-1.129.344,1.066,1.066,0,0,0-.44.876H96.662a2.239,2.239,0,0,1,.49-1.382,3.263,3.263,0,0,1,1.332-1.009,4.68,4.68,0,0,1,1.88-.365,3.769,3.769,0,0,1,2.515.793,2.827,2.827,0,0,1,.963,2.229v4.051a4.591,4.591,0,0,0,.34,1.934V16Zm-2.216-1.453a2.294,2.294,0,0,0,1.125-.291,1.941,1.941,0,0,0,.793-.78V11.783h-1.087a2.973,2.973,0,0,0-1.685.39,1.264,1.264,0,0,0-.564,1.1,1.179,1.179,0,0,0,.386.926A1.5,1.5,0,0,0,99.907,14.547Z" transform="translate(988 10617)" fill="#12263f"/>
    <rect id="Rectángulo_347091-7" data-name="Rectángulo 347091" width="177" height="37" rx="9" transform="translate(1076 10717)" fill="#a3bfe4"/>
    <rect id="Rectángulo_347093-7" data-name="Rectángulo 347093" width="55" height="4" transform="translate(1137 10754)" fill="#f1bebe"/>
    <path id="Trazado_720767" data-name="Trazado 720767" d="M44.753,13.186H40.071L39.092,16H36.908L41.474,3.914h1.884L47.932,16H45.74ZM40.66,11.493h3.5L42.412,6.479ZM52.8,14.556a1.824,1.824,0,0,0,1.253-.44,1.5,1.5,0,0,0,.531-1.087h1.9a2.963,2.963,0,0,1-.523,1.565,3.43,3.43,0,0,1-1.328,1.15,3.958,3.958,0,0,1-1.81.423,3.829,3.829,0,0,1-2.988-1.22,4.84,4.84,0,0,1-1.1-3.37v-.208a4.759,4.759,0,0,1,1.1-3.283,3.8,3.8,0,0,1,2.988-1.233,3.69,3.69,0,0,1,2.611.934,3.345,3.345,0,0,1,1.058,2.453h-1.9a1.847,1.847,0,0,0-.527-1.27,1.7,1.7,0,0,0-1.258-.5,1.775,1.775,0,0,0-1.511.71,3.621,3.621,0,0,0-.54,2.154v.324a3.682,3.682,0,0,0,.527,2.179A1.773,1.773,0,0,0,52.8,14.556Zm8.9,0a1.824,1.824,0,0,0,1.253-.44,1.5,1.5,0,0,0,.531-1.087h1.9a2.963,2.963,0,0,1-.523,1.565,3.43,3.43,0,0,1-1.328,1.15,3.958,3.958,0,0,1-1.81.423,3.829,3.829,0,0,1-2.988-1.22,4.84,4.84,0,0,1-1.1-3.37v-.208a4.759,4.759,0,0,1,1.1-3.283,3.8,3.8,0,0,1,2.988-1.233,3.69,3.69,0,0,1,2.611.934,3.345,3.345,0,0,1,1.058,2.453h-1.9a1.847,1.847,0,0,0-.527-1.27,1.7,1.7,0,0,0-1.258-.5,1.775,1.775,0,0,0-1.511.71,3.621,3.621,0,0,0-.54,2.154v.324a3.682,3.682,0,0,0,.527,2.179A1.773,1.773,0,0,0,61.695,14.556ZM69.049,16H67.032V7.019h2.017ZM66.907,4.686a1.071,1.071,0,0,1,.295-.772,1.113,1.113,0,0,1,.843-.307,1.127,1.127,0,0,1,.847.307,1.062,1.062,0,0,1,.3.772,1.038,1.038,0,0,1-.3.76,1.136,1.136,0,0,1-.847.3,1.122,1.122,0,0,1-.843-.3A1.046,1.046,0,0,1,66.907,4.686Zm3.959,6.74a5.3,5.3,0,0,1,.523-2.378,3.819,3.819,0,0,1,1.469-1.627,4.14,4.14,0,0,1,2.175-.569,3.923,3.923,0,0,1,2.951,1.17,4.6,4.6,0,0,1,1.224,3.1l.008.473a5.343,5.343,0,0,1-.51,2.374,3.773,3.773,0,0,1-1.461,1.619,4.17,4.17,0,0,1-2.2.573A3.9,3.9,0,0,1,72.008,14.9a4.848,4.848,0,0,1-1.141-3.374Zm2.017.174a3.619,3.619,0,0,0,.573,2.171,1.862,1.862,0,0,0,1.594.784,1.842,1.842,0,0,0,1.59-.8,4,4,0,0,0,.569-2.333,3.572,3.572,0,0,0-.585-2.158,1.973,1.973,0,0,0-3.158-.012A3.922,3.922,0,0,0,72.884,11.6ZM82.8,7.019l.058,1.038a3.229,3.229,0,0,1,2.615-1.2q2.806,0,2.855,3.212V16H86.306V10.181a1.85,1.85,0,0,0-.369-1.266A1.554,1.554,0,0,0,84.729,8.5a1.944,1.944,0,0,0-1.818,1.1V16H80.894V7.019Zm11.538,9.147a4.173,4.173,0,0,1-3.109-1.208,4.381,4.381,0,0,1-1.191-3.217v-.249a5.389,5.389,0,0,1,.519-2.4,3.949,3.949,0,0,1,1.457-1.648A3.851,3.851,0,0,1,94.1,6.853a3.525,3.525,0,0,1,2.835,1.17,4.949,4.949,0,0,1,1,3.312v.813H92.067a2.7,2.7,0,0,0,.743,1.76,2.23,2.23,0,0,0,1.639.647,2.731,2.731,0,0,0,2.258-1.121l1.087,1.038a3.631,3.631,0,0,1-1.44,1.249A4.509,4.509,0,0,1,94.333,16.166Zm-.241-7.695a1.7,1.7,0,0,0-1.341.581,3.012,3.012,0,0,0-.652,1.619h3.843v-.149A2.452,2.452,0,0,0,95.4,8.99,1.686,1.686,0,0,0,94.093,8.471Zm10.442,5.088a.914.914,0,0,0-.444-.822,4.723,4.723,0,0,0-1.473-.5,7.574,7.574,0,0,1-1.718-.548,2.293,2.293,0,0,1-1.511-2.117,2.391,2.391,0,0,1,.979-1.942,3.872,3.872,0,0,1,2.49-.78,4.029,4.029,0,0,1,2.6.8,2.529,2.529,0,0,1,.992,2.067h-2.017A1.243,1.243,0,0,0,104,8.749a1.654,1.654,0,0,0-1.146-.386,1.787,1.787,0,0,0-1.083.307.968.968,0,0,0-.419.822.818.818,0,0,0,.39.722,5.365,5.365,0,0,0,1.577.519,7.466,7.466,0,0,1,1.864.623,2.639,2.639,0,0,1,1,.867,2.212,2.212,0,0,1,.328,1.229,2.34,2.34,0,0,1-1,1.963,4.283,4.283,0,0,1-2.631.751,4.644,4.644,0,0,1-1.967-.4,3.238,3.238,0,0,1-1.345-1.1,2.594,2.594,0,0,1-.481-1.5h1.959a1.421,1.421,0,0,0,.54,1.1,2.1,2.1,0,0,0,1.32.386,2.04,2.04,0,0,0,1.212-.3A.938.938,0,0,0,104.535,13.56Z" transform="translate(1093 10726)" fill="#12263f"/>
    <rect id="Rectángulo_347091-8" data-name="Rectángulo 347091" width="239" height="37" rx="9" transform="translate(1076 10906)" fill="#a3bfe4"/>
    <rect id="Rectángulo_347093-8" data-name="Rectángulo 347093" width="55" height="4" transform="translate(1137 10943)" fill="#f1bebe"/>
    <path id="Trazado_720766" data-name="Trazado 720766" d="M3.329,11.518V16h-2.1V3.914H5.852A4.675,4.675,0,0,1,9.069,4.969,3.549,3.549,0,0,1,10.26,7.761a3.431,3.431,0,0,1-1.166,2.767,4.9,4.9,0,0,1-3.266.989Zm0-1.693H5.852A2.485,2.485,0,0,0,7.562,9.3a1.937,1.937,0,0,0,.589-1.523,2.09,2.09,0,0,0-.6-1.565,2.3,2.3,0,0,0-1.644-.6H3.329ZM14.045,16H12.028V3.25h2.017Zm7.562,0a3.113,3.113,0,0,1-.232-.838,3.393,3.393,0,0,1-4.565.232,2.47,2.47,0,0,1-.855-1.909,2.55,2.55,0,0,1,1.067-2.2,5.169,5.169,0,0,1,3.051-.768h1.237V9.924a1.573,1.573,0,0,0-.39-1.116,1.547,1.547,0,0,0-1.187-.419,1.777,1.777,0,0,0-1.129.344,1.066,1.066,0,0,0-.44.876H16.145a2.239,2.239,0,0,1,.49-1.382,3.263,3.263,0,0,1,1.332-1.009,4.68,4.68,0,0,1,1.88-.365,3.769,3.769,0,0,1,2.515.793,2.827,2.827,0,0,1,.963,2.229v4.051a4.591,4.591,0,0,0,.34,1.934V16Zm-2.216-1.453a2.294,2.294,0,0,0,1.125-.291,1.941,1.941,0,0,0,.793-.78V11.783H20.221a2.973,2.973,0,0,0-1.685.39,1.264,1.264,0,0,0-.564,1.1,1.179,1.179,0,0,0,.386.926A1.5,1.5,0,0,0,19.391,14.547ZM27.31,7.019l.058,1.038a3.229,3.229,0,0,1,2.615-1.2q2.806,0,2.855,3.212V16H30.821V10.181a1.85,1.85,0,0,0-.369-1.266A1.554,1.554,0,0,0,29.244,8.5a1.944,1.944,0,0,0-1.818,1.1V16H25.409V7.019Zm11.438,4.424a5.34,5.34,0,0,1,.963-3.333,3.085,3.085,0,0,1,2.582-1.258,2.931,2.931,0,0,1,2.308,1V3.25h2.017V16H44.791l-.1-.93a2.973,2.973,0,0,1-2.416,1.1,3.068,3.068,0,0,1-2.552-1.27A5.535,5.535,0,0,1,38.748,11.443Zm2.017.174a3.739,3.739,0,0,0,.527,2.137,1.71,1.71,0,0,0,1.5.768,1.9,1.9,0,0,0,1.81-1.1V9.583A1.876,1.876,0,0,0,42.807,8.5a1.723,1.723,0,0,0-1.511.776A4.163,4.163,0,0,0,40.765,11.617Zm11.912,4.549a4.173,4.173,0,0,1-3.109-1.208,4.381,4.381,0,0,1-1.191-3.217v-.249a5.389,5.389,0,0,1,.519-2.4,3.949,3.949,0,0,1,1.457-1.648,3.851,3.851,0,0,1,2.092-.589,3.525,3.525,0,0,1,2.835,1.17,4.949,4.949,0,0,1,1,3.312v.813H50.411a2.7,2.7,0,0,0,.743,1.76,2.23,2.23,0,0,0,1.639.647,2.731,2.731,0,0,0,2.258-1.121l1.087,1.038a3.631,3.631,0,0,1-1.44,1.249A4.509,4.509,0,0,1,52.677,16.166Zm-.241-7.695a1.7,1.7,0,0,0-1.341.581,3.012,3.012,0,0,0-.652,1.619h3.843v-.149a2.452,2.452,0,0,0-.54-1.531A1.686,1.686,0,0,0,52.436,8.471ZM63.974,7.019l.058.938a3.232,3.232,0,0,1,2.59-1.1A2.483,2.483,0,0,1,69.087,8.23a3.186,3.186,0,0,1,2.756-1.378,2.8,2.8,0,0,1,2.212.822A3.618,3.618,0,0,1,74.8,10.1V16H72.781V10.156A1.786,1.786,0,0,0,72.408,8.9a1.635,1.635,0,0,0-1.237-.4,1.679,1.679,0,0,0-1.125.369,1.948,1.948,0,0,0-.61.967L69.444,16H67.427V10.09A1.439,1.439,0,0,0,65.809,8.5a1.776,1.776,0,0,0-1.718.988V16H62.073V7.019ZM82.236,16A3.113,3.113,0,0,1,82,15.162a3.393,3.393,0,0,1-4.565.232,2.47,2.47,0,0,1-.855-1.909,2.55,2.55,0,0,1,1.067-2.2,5.169,5.169,0,0,1,3.051-.768h1.237V9.924a1.573,1.573,0,0,0-.39-1.116,1.547,1.547,0,0,0-1.187-.419,1.777,1.777,0,0,0-1.129.344,1.066,1.066,0,0,0-.44.876H76.774a2.239,2.239,0,0,1,.49-1.382A3.263,3.263,0,0,1,78.6,7.218a4.68,4.68,0,0,1,1.88-.365,3.769,3.769,0,0,1,2.515.793,2.827,2.827,0,0,1,.963,2.229v4.051a4.591,4.591,0,0,0,.34,1.934V16ZM80.02,14.547a2.294,2.294,0,0,0,1.125-.291,1.941,1.941,0,0,0,.793-.78V11.783H80.85a2.973,2.973,0,0,0-1.685.39,1.264,1.264,0,0,0-.564,1.1,1.179,1.179,0,0,0,.386.926A1.5,1.5,0,0,0,80.02,14.547Zm10.75-5.686a4.991,4.991,0,0,0-.822-.066A1.85,1.85,0,0,0,88.08,9.857V16H86.063V7.019h1.926l.05,1a2.273,2.273,0,0,1,2.025-1.17,1.888,1.888,0,0,1,.714.116Zm4.192,3.287-.9.921V16H92.047V3.25h2.017V10.6l.631-.789,2.482-2.8H99.6l-3.337,3.744L99.958,16H97.625Zm9.745,4.018a4.173,4.173,0,0,1-3.109-1.208,4.381,4.381,0,0,1-1.191-3.217v-.249a5.389,5.389,0,0,1,.519-2.4,3.949,3.949,0,0,1,1.457-1.648,3.851,3.851,0,0,1,2.092-.589,3.525,3.525,0,0,1,2.835,1.17,4.949,4.949,0,0,1,1,3.312v.813H102.44a2.7,2.7,0,0,0,.743,1.76,2.23,2.23,0,0,0,1.639.647,2.731,2.731,0,0,0,2.258-1.121l1.087,1.038a3.631,3.631,0,0,1-1.44,1.249A4.509,4.509,0,0,1,104.706,16.166Zm-.241-7.695a1.7,1.7,0,0,0-1.341.581,3.012,3.012,0,0,0-.652,1.619h3.843v-.149a2.452,2.452,0,0,0-.54-1.531A1.686,1.686,0,0,0,104.465,8.471ZM112.4,4.835V7.019h1.585V8.513H112.4v5.014a1.1,1.1,0,0,0,.2.743.943.943,0,0,0,.726.228,3.107,3.107,0,0,0,.706-.083v1.561a4.968,4.968,0,0,1-1.328.191q-2.324,0-2.324-2.565V8.513h-1.478V7.019h1.478V4.835ZM117.672,16h-2.017V7.019h2.017ZM115.53,4.686a1.071,1.071,0,0,1,.295-.772,1.113,1.113,0,0,1,.843-.307,1.127,1.127,0,0,1,.847.307,1.062,1.062,0,0,1,.3.772,1.038,1.038,0,0,1-.3.76,1.136,1.136,0,0,1-.847.3,1.122,1.122,0,0,1-.843-.3A1.046,1.046,0,0,1,115.53,4.686Zm6.209,2.333.058,1.038a3.229,3.229,0,0,1,2.615-1.2q2.806,0,2.855,3.212V16H125.25V10.181a1.85,1.85,0,0,0-.369-1.266,1.554,1.554,0,0,0-1.208-.411,1.944,1.944,0,0,0-1.818,1.1V16h-2.017V7.019Zm7.23,4.424a5.253,5.253,0,0,1,.984-3.341,3.157,3.157,0,0,1,2.611-1.249,2.958,2.958,0,0,1,2.416,1.071l.091-.9h1.818v8.708a3.619,3.619,0,0,1-1.1,2.789,4.189,4.189,0,0,1-2.968,1.021,4.783,4.783,0,0,1-1.93-.411,3.429,3.429,0,0,1-1.432-1.075l.955-1.212a2.883,2.883,0,0,0,2.291,1.1,2.228,2.228,0,0,0,1.585-.544,2.084,2.084,0,0,0,.581-1.6v-.606a2.97,2.97,0,0,1-2.324.971,3.15,3.15,0,0,1-2.577-1.253A5.423,5.423,0,0,1,128.969,11.443Zm2.009.174a3.616,3.616,0,0,0,.552,2.129,1.775,1.775,0,0,0,1.531.776,1.941,1.941,0,0,0,1.81-1.046V9.525A1.913,1.913,0,0,0,133.078,8.5a1.782,1.782,0,0,0-1.548.789A4.049,4.049,0,0,0,130.978,11.617Zm11.837-.174a5.34,5.34,0,0,1,.963-3.333,3.085,3.085,0,0,1,2.582-1.258,2.931,2.931,0,0,1,2.308,1V3.25h2.017V16h-1.826l-.1-.93a2.973,2.973,0,0,1-2.416,1.1,3.068,3.068,0,0,1-2.552-1.27A5.535,5.535,0,0,1,142.815,11.443Zm2.017.174a3.739,3.739,0,0,0,.527,2.137,1.71,1.71,0,0,0,1.5.768,1.9,1.9,0,0,0,1.81-1.1V9.583A1.876,1.876,0,0,0,146.874,8.5a1.723,1.723,0,0,0-1.511.776A4.163,4.163,0,0,0,144.832,11.617Zm11.912,4.549a4.173,4.173,0,0,1-3.109-1.208,4.381,4.381,0,0,1-1.191-3.217v-.249a5.389,5.389,0,0,1,.519-2.4,3.949,3.949,0,0,1,1.457-1.648,3.851,3.851,0,0,1,2.092-.589,3.525,3.525,0,0,1,2.835,1.17,4.949,4.949,0,0,1,1,3.312v.813h-5.869a2.7,2.7,0,0,0,.743,1.76,2.23,2.23,0,0,0,1.639.647,2.731,2.731,0,0,0,2.258-1.121l1.087,1.038a3.631,3.631,0,0,1-1.44,1.249A4.509,4.509,0,0,1,156.744,16.166ZM156.5,8.471a1.7,1.7,0,0,0-1.341.581,3.012,3.012,0,0,0-.652,1.619h3.843v-.149a2.452,2.452,0,0,0-.54-1.531A1.686,1.686,0,0,0,156.5,8.471ZM175.18,3.914v8.077a3.925,3.925,0,0,1-1.233,3.051,5.4,5.4,0,0,1-6.578.017,3.944,3.944,0,0,1-1.22-3.075V3.914h2.092V12a2.568,2.568,0,0,0,.614,1.851,2.4,2.4,0,0,0,1.81.639q2.424,0,2.424-2.557V3.914Zm9.928,7.687a5.4,5.4,0,0,1-.934,3.329,3.042,3.042,0,0,1-2.569,1.237,2.93,2.93,0,0,1-2.457-1.137l-.1.971h-1.826V3.25h2.017V7.882a2.92,2.92,0,0,1,2.349-1.029,3.077,3.077,0,0,1,2.582,1.22,5.484,5.484,0,0,1,.938,3.412Zm-2.017-.174a3.813,3.813,0,0,0-.515-2.191,1.714,1.714,0,0,0-1.494-.73,1.873,1.873,0,0,0-1.843,1.146v3.7a1.892,1.892,0,0,0,1.859,1.17,1.7,1.7,0,0,0,1.461-.706,3.7,3.7,0,0,0,.531-2.133Zm7.662,4.74a4.173,4.173,0,0,1-3.109-1.208,4.381,4.381,0,0,1-1.191-3.217v-.249a5.389,5.389,0,0,1,.519-2.4,3.949,3.949,0,0,1,1.457-1.648,3.851,3.851,0,0,1,2.092-.589,3.525,3.525,0,0,1,2.835,1.17,4.949,4.949,0,0,1,1,3.312v.813h-5.869a2.7,2.7,0,0,0,.743,1.76,2.23,2.23,0,0,0,1.639.647,2.731,2.731,0,0,0,2.258-1.121l1.087,1.038a3.631,3.631,0,0,1-1.44,1.249A4.509,4.509,0,0,1,190.752,16.166Zm-.241-7.695a1.7,1.7,0,0,0-1.341.581,3.012,3.012,0,0,0-.652,1.619h3.843v-.149a2.452,2.452,0,0,0-.54-1.531A1.686,1.686,0,0,0,190.511,8.471Zm10.11.39a4.991,4.991,0,0,0-.822-.066,1.85,1.85,0,0,0-1.868,1.063V16h-2.017V7.019h1.926l.05,1a2.273,2.273,0,0,1,2.025-1.17,1.888,1.888,0,0,1,.714.116Z" transform="translate(1093 10915)" fill="#12263f"/>
    <rect id="Rectángulo_347091-9" data-name="Rectángulo 347091" width="177" height="37" rx="9" transform="translate(1076 11017)" fill="#a3bfe4"/>
    <rect id="Rectángulo_347093-9" data-name="Rectángulo 347093" width="55" height="4" transform="translate(1137 11054)" fill="#f1bebe"/>
    <path id="Trazado_720765" data-name="Trazado 720765" d="M41.835,10.6H36.871v3.719h5.8V16h-7.9V3.914h7.844V5.607H36.871V8.944h4.964Zm7.388,2.955a.914.914,0,0,0-.444-.822,4.723,4.723,0,0,0-1.473-.5,7.574,7.574,0,0,1-1.718-.548,2.293,2.293,0,0,1-1.511-2.117,2.391,2.391,0,0,1,.979-1.942,3.872,3.872,0,0,1,2.49-.78,4.029,4.029,0,0,1,2.6.8,2.529,2.529,0,0,1,.992,2.067H49.123a1.243,1.243,0,0,0-.432-.967,1.654,1.654,0,0,0-1.146-.386,1.787,1.787,0,0,0-1.083.307.968.968,0,0,0-.419.822.818.818,0,0,0,.39.722,5.365,5.365,0,0,0,1.577.519,7.466,7.466,0,0,1,1.864.623,2.639,2.639,0,0,1,1,.867,2.212,2.212,0,0,1,.328,1.229,2.34,2.34,0,0,1-1,1.963,4.283,4.283,0,0,1-2.631.751,4.644,4.644,0,0,1-1.967-.4,3.238,3.238,0,0,1-1.345-1.1,2.594,2.594,0,0,1-.481-1.5h1.959a1.421,1.421,0,0,0,.54,1.1,2.1,2.1,0,0,0,1.32.386,2.04,2.04,0,0,0,1.212-.3A.938.938,0,0,0,49.223,13.56ZM55.49,4.835V7.019h1.585V8.513H55.49v5.014a1.1,1.1,0,0,0,.2.743.943.943,0,0,0,.726.228,3.107,3.107,0,0,0,.706-.083v1.561a4.968,4.968,0,0,1-1.328.191q-2.324,0-2.324-2.565V8.513H52V7.019h1.478V4.835Zm7.828,4.026a4.991,4.991,0,0,0-.822-.066,1.85,1.85,0,0,0-1.868,1.063V16H58.611V7.019h1.926l.05,1a2.273,2.273,0,0,1,2.025-1.17,1.888,1.888,0,0,1,.714.116ZM69.709,16a3.113,3.113,0,0,1-.232-.838,3.393,3.393,0,0,1-4.565.232,2.47,2.47,0,0,1-.855-1.909,2.55,2.55,0,0,1,1.067-2.2,5.169,5.169,0,0,1,3.051-.768H69.41V9.924a1.573,1.573,0,0,0-.39-1.116,1.547,1.547,0,0,0-1.187-.419,1.777,1.777,0,0,0-1.129.344,1.066,1.066,0,0,0-.44.876H64.247a2.239,2.239,0,0,1,.49-1.382,3.263,3.263,0,0,1,1.332-1.009,4.68,4.68,0,0,1,1.88-.365,3.769,3.769,0,0,1,2.515.793,2.827,2.827,0,0,1,.963,2.229v4.051a4.591,4.591,0,0,0,.34,1.934V16Zm-2.216-1.453a2.294,2.294,0,0,0,1.125-.291,1.941,1.941,0,0,0,.793-.78V11.783H68.323a2.973,2.973,0,0,0-1.685.39,1.264,1.264,0,0,0-.564,1.1,1.179,1.179,0,0,0,.386.926A1.5,1.5,0,0,0,67.493,14.547Zm8.575-9.712V7.019h1.585V8.513H76.067v5.014a1.1,1.1,0,0,0,.2.743A.943.943,0,0,0,77,14.5a3.107,3.107,0,0,0,.706-.083v1.561a4.968,4.968,0,0,1-1.328.191q-2.324,0-2.324-2.565V8.513H72.573V7.019H74.05V4.835Zm7.081,11.331a4.173,4.173,0,0,1-3.109-1.208,4.381,4.381,0,0,1-1.191-3.217v-.249a5.389,5.389,0,0,1,.519-2.4,3.949,3.949,0,0,1,1.457-1.648,3.851,3.851,0,0,1,2.092-.589,3.525,3.525,0,0,1,2.835,1.17,4.949,4.949,0,0,1,1,3.312v.813H80.882a2.7,2.7,0,0,0,.743,1.76,2.23,2.23,0,0,0,1.639.647,2.731,2.731,0,0,0,2.258-1.121l1.087,1.038a3.631,3.631,0,0,1-1.44,1.249A4.509,4.509,0,0,1,83.148,16.166Zm-.241-7.695a1.7,1.7,0,0,0-1.341.581,3.012,3.012,0,0,0-.652,1.619h3.843v-.149a2.452,2.452,0,0,0-.54-1.531A1.686,1.686,0,0,0,82.907,8.471Zm5.055,2.972A5.253,5.253,0,0,1,88.946,8.1a3.157,3.157,0,0,1,2.611-1.249,2.958,2.958,0,0,1,2.416,1.071l.091-.9h1.818v8.708a3.619,3.619,0,0,1-1.1,2.789,4.189,4.189,0,0,1-2.968,1.021,4.783,4.783,0,0,1-1.93-.411,3.429,3.429,0,0,1-1.432-1.075l.955-1.212a2.883,2.883,0,0,0,2.291,1.1,2.228,2.228,0,0,0,1.585-.544,2.084,2.084,0,0,0,.581-1.6v-.606a2.97,2.97,0,0,1-2.324.971,3.15,3.15,0,0,1-2.577-1.253A5.423,5.423,0,0,1,87.962,11.443Zm2.009.174a3.616,3.616,0,0,0,.552,2.129,1.775,1.775,0,0,0,1.531.776,1.941,1.941,0,0,0,1.81-1.046V9.525A1.913,1.913,0,0,0,92.071,8.5a1.782,1.782,0,0,0-1.548.789A4.049,4.049,0,0,0,89.971,11.617ZM100.1,16H98.081V7.019H100.1ZM97.957,4.686a1.071,1.071,0,0,1,.295-.772,1.113,1.113,0,0,1,.843-.307,1.127,1.127,0,0,1,.847.307,1.062,1.062,0,0,1,.3.772,1.038,1.038,0,0,1-.3.76,1.136,1.136,0,0,1-.847.3,1.122,1.122,0,0,1-.843-.3A1.046,1.046,0,0,1,97.957,4.686ZM107.66,16a3.113,3.113,0,0,1-.232-.838,3.393,3.393,0,0,1-4.565.232,2.47,2.47,0,0,1-.855-1.909,2.55,2.55,0,0,1,1.067-2.2,5.169,5.169,0,0,1,3.051-.768h1.237V9.924a1.573,1.573,0,0,0-.39-1.116,1.547,1.547,0,0,0-1.187-.419,1.777,1.777,0,0,0-1.129.344,1.066,1.066,0,0,0-.44.876H102.2a2.239,2.239,0,0,1,.49-1.382,3.263,3.263,0,0,1,1.332-1.009,4.68,4.68,0,0,1,1.88-.365,3.769,3.769,0,0,1,2.515.793,2.827,2.827,0,0,1,.963,2.229v4.051a4.591,4.591,0,0,0,.34,1.934V16Zm-2.216-1.453a2.294,2.294,0,0,0,1.125-.291,1.941,1.941,0,0,0,.793-.78V11.783h-1.087a2.973,2.973,0,0,0-1.685.39,1.264,1.264,0,0,0-.564,1.1,1.179,1.179,0,0,0,.386.926A1.5,1.5,0,0,0,105.444,14.547Z" transform="translate(1093 11026)" fill="#12263f"/>
    <rect id="Rectángulo_347091-10" data-name="Rectángulo 347091" width="177" height="37" rx="9" transform="translate(1076 11126)" fill="#a3bfe4"/>
    <rect id="Rectángulo_347093-10" data-name="Rectángulo 347093" width="55" height="4" transform="translate(1137 11163)" fill="#f1bebe"/>
    <path id="Trazado_720764" data-name="Trazado 720764" d="M20.377,11.352H18.037V16h-2.1V3.914h4.25a4.944,4.944,0,0,1,3.229.939A3.321,3.321,0,0,1,24.553,7.57,3.4,3.4,0,0,1,23.968,9.6a3.724,3.724,0,0,1-1.631,1.259l2.714,5.033V16H22.8ZM18.037,9.658h2.158a2.4,2.4,0,0,0,1.66-.535,1.867,1.867,0,0,0,.6-1.465,1.988,1.988,0,0,0-.552-1.5,2.345,2.345,0,0,0-1.648-.548H18.037Zm12.269,6.508A4.173,4.173,0,0,1,27.2,14.958a4.381,4.381,0,0,1-1.191-3.217v-.249a5.389,5.389,0,0,1,.519-2.4,3.949,3.949,0,0,1,1.457-1.648,3.851,3.851,0,0,1,2.092-.589,3.525,3.525,0,0,1,2.835,1.17,4.949,4.949,0,0,1,1,3.312v.813H28.039a2.7,2.7,0,0,0,.743,1.76,2.23,2.23,0,0,0,1.639.647,2.731,2.731,0,0,0,2.258-1.121l1.087,1.038a3.631,3.631,0,0,1-1.44,1.249A4.509,4.509,0,0,1,30.305,16.166Zm-.241-7.695a1.7,1.7,0,0,0-1.341.581,3.012,3.012,0,0,0-.652,1.619h3.843v-.149a2.452,2.452,0,0,0-.54-1.531A1.686,1.686,0,0,0,30.064,8.471Zm5.03,2.972a5.34,5.34,0,0,1,.963-3.333,3.085,3.085,0,0,1,2.582-1.258,2.931,2.931,0,0,1,2.308,1V3.25h2.017V16H41.138l-.1-.93a2.973,2.973,0,0,1-2.416,1.1A3.068,3.068,0,0,1,36.07,14.9,5.535,5.535,0,0,1,35.095,11.443Zm2.017.174a3.739,3.739,0,0,0,.527,2.137,1.71,1.71,0,0,0,1.5.768,1.9,1.9,0,0,0,1.81-1.1V9.583A1.876,1.876,0,0,0,39.154,8.5a1.723,1.723,0,0,0-1.511.776A4.163,4.163,0,0,0,37.112,11.617Zm11.912,4.549a4.173,4.173,0,0,1-3.109-1.208,4.381,4.381,0,0,1-1.191-3.217v-.249a5.389,5.389,0,0,1,.519-2.4A3.949,3.949,0,0,1,46.7,7.442a3.851,3.851,0,0,1,2.092-.589,3.525,3.525,0,0,1,2.835,1.17,4.949,4.949,0,0,1,1,3.312v.813H46.757a2.7,2.7,0,0,0,.743,1.76,2.23,2.23,0,0,0,1.639.647A2.731,2.731,0,0,0,51.4,13.435l1.087,1.038a3.631,3.631,0,0,1-1.44,1.249A4.509,4.509,0,0,1,49.023,16.166Zm-.241-7.695a1.7,1.7,0,0,0-1.341.581,3.012,3.012,0,0,0-.652,1.619h3.843v-.149a2.452,2.452,0,0,0-.54-1.531A1.686,1.686,0,0,0,48.783,8.471ZM59.225,13.56a.914.914,0,0,0-.444-.822,4.723,4.723,0,0,0-1.473-.5,7.574,7.574,0,0,1-1.718-.548,2.293,2.293,0,0,1-1.511-2.117,2.391,2.391,0,0,1,.979-1.942,3.872,3.872,0,0,1,2.49-.78,4.029,4.029,0,0,1,2.6.8,2.529,2.529,0,0,1,.992,2.067H59.125a1.243,1.243,0,0,0-.432-.967,1.654,1.654,0,0,0-1.146-.386,1.787,1.787,0,0,0-1.083.307.968.968,0,0,0-.419.822.818.818,0,0,0,.39.722,5.365,5.365,0,0,0,1.577.519,7.466,7.466,0,0,1,1.864.623,2.639,2.639,0,0,1,1,.867,2.212,2.212,0,0,1,.328,1.229,2.34,2.34,0,0,1-1,1.963,4.283,4.283,0,0,1-2.631.751,4.644,4.644,0,0,1-1.967-.4,3.238,3.238,0,0,1-1.345-1.1,2.594,2.594,0,0,1-.481-1.5h1.959a1.421,1.421,0,0,0,.54,1.1,2.1,2.1,0,0,0,1.32.386,2.04,2.04,0,0,0,1.212-.3A.938.938,0,0,0,59.225,13.56Zm13.007,0a.914.914,0,0,0-.444-.822,4.723,4.723,0,0,0-1.473-.5,7.574,7.574,0,0,1-1.718-.548,2.293,2.293,0,0,1-1.511-2.117,2.391,2.391,0,0,1,.979-1.942,3.872,3.872,0,0,1,2.49-.78,4.029,4.029,0,0,1,2.6.8,2.529,2.529,0,0,1,.992,2.067H72.133a1.243,1.243,0,0,0-.432-.967,1.654,1.654,0,0,0-1.146-.386,1.787,1.787,0,0,0-1.083.307.968.968,0,0,0-.419.822.818.818,0,0,0,.39.722,5.365,5.365,0,0,0,1.577.519,7.466,7.466,0,0,1,1.864.623,2.639,2.639,0,0,1,1,.867,2.212,2.212,0,0,1,.328,1.229,2.34,2.34,0,0,1-1,1.963,4.283,4.283,0,0,1-2.631.751,4.644,4.644,0,0,1-1.967-.4,3.238,3.238,0,0,1-1.345-1.1,2.594,2.594,0,0,1-.481-1.5h1.959a1.421,1.421,0,0,0,.54,1.1,2.1,2.1,0,0,0,1.32.386,2.04,2.04,0,0,0,1.212-.3A.938.938,0,0,0,72.232,13.56Zm3.362-2.133a5.3,5.3,0,0,1,.523-2.378,3.819,3.819,0,0,1,1.469-1.627,4.14,4.14,0,0,1,2.175-.569,3.923,3.923,0,0,1,2.951,1.17,4.6,4.6,0,0,1,1.224,3.1l.008.473a5.343,5.343,0,0,1-.51,2.374,3.773,3.773,0,0,1-1.461,1.619,4.17,4.17,0,0,1-2.2.573A3.9,3.9,0,0,1,76.736,14.9a4.848,4.848,0,0,1-1.141-3.374Zm2.017.174a3.619,3.619,0,0,0,.573,2.171,1.862,1.862,0,0,0,1.594.784,1.842,1.842,0,0,0,1.59-.8,4,4,0,0,0,.569-2.333,3.572,3.572,0,0,0-.585-2.158,1.973,1.973,0,0,0-3.158-.012A3.922,3.922,0,0,0,77.611,11.6ZM89.34,14.556a1.824,1.824,0,0,0,1.253-.44,1.5,1.5,0,0,0,.531-1.087h1.9a2.963,2.963,0,0,1-.523,1.565,3.43,3.43,0,0,1-1.328,1.15,3.958,3.958,0,0,1-1.81.423,3.829,3.829,0,0,1-2.988-1.22,4.84,4.84,0,0,1-1.1-3.37v-.208a4.759,4.759,0,0,1,1.1-3.283,3.8,3.8,0,0,1,2.988-1.233,3.69,3.69,0,0,1,2.611.934,3.345,3.345,0,0,1,1.058,2.453h-1.9a1.847,1.847,0,0,0-.527-1.27,1.7,1.7,0,0,0-1.258-.5,1.775,1.775,0,0,0-1.511.71,3.621,3.621,0,0,0-.54,2.154v.324a3.681,3.681,0,0,0,.527,2.179A1.773,1.773,0,0,0,89.34,14.556ZM96.695,16H94.678V7.019h2.017ZM94.553,4.686a1.071,1.071,0,0,1,.295-.772,1.113,1.113,0,0,1,.843-.307,1.127,1.127,0,0,1,.847.307,1.062,1.062,0,0,1,.3.772,1.038,1.038,0,0,1-.3.76,1.136,1.136,0,0,1-.847.3,1.122,1.122,0,0,1-.843-.3A1.046,1.046,0,0,1,94.553,4.686ZM104.257,16a3.113,3.113,0,0,1-.232-.838,3.393,3.393,0,0,1-4.565.232,2.47,2.47,0,0,1-.855-1.909,2.55,2.55,0,0,1,1.067-2.2,5.169,5.169,0,0,1,3.051-.768h1.237V9.924a1.573,1.573,0,0,0-.39-1.116,1.547,1.547,0,0,0-1.187-.419,1.777,1.777,0,0,0-1.129.344,1.066,1.066,0,0,0-.44.876H98.795a2.239,2.239,0,0,1,.49-1.382,3.263,3.263,0,0,1,1.332-1.009,4.68,4.68,0,0,1,1.88-.365,3.769,3.769,0,0,1,2.515.793,2.827,2.827,0,0,1,.963,2.229v4.051a4.591,4.591,0,0,0,.34,1.934V16Zm-2.216-1.453a2.294,2.294,0,0,0,1.125-.291,1.941,1.941,0,0,0,.793-.78V11.783h-1.087a2.973,2.973,0,0,0-1.685.39,1.264,1.264,0,0,0-.564,1.1,1.179,1.179,0,0,0,.386.926A1.5,1.5,0,0,0,102.041,14.547ZM110.233,16h-2.017V3.25h2.017Zm6.151.166a4.173,4.173,0,0,1-3.109-1.208,4.381,4.381,0,0,1-1.191-3.217v-.249a5.389,5.389,0,0,1,.519-2.4,3.949,3.949,0,0,1,1.457-1.648,3.851,3.851,0,0,1,2.092-.589,3.525,3.525,0,0,1,2.835,1.17,4.949,4.949,0,0,1,1,3.312v.813h-5.869a2.7,2.7,0,0,0,.743,1.76,2.23,2.23,0,0,0,1.639.647,2.731,2.731,0,0,0,2.258-1.121l1.087,1.038a3.631,3.631,0,0,1-1.44,1.249A4.509,4.509,0,0,1,116.384,16.166Zm-.241-7.695a1.7,1.7,0,0,0-1.341.581,3.012,3.012,0,0,0-.652,1.619h3.843v-.149a2.452,2.452,0,0,0-.54-1.531A1.686,1.686,0,0,0,116.144,8.471Zm10.442,5.088a.914.914,0,0,0-.444-.822,4.723,4.723,0,0,0-1.473-.5,7.574,7.574,0,0,1-1.718-.548,2.293,2.293,0,0,1-1.511-2.117,2.391,2.391,0,0,1,.979-1.942,3.872,3.872,0,0,1,2.49-.78,4.029,4.029,0,0,1,2.6.8,2.529,2.529,0,0,1,.992,2.067h-2.017a1.243,1.243,0,0,0-.432-.967,1.654,1.654,0,0,0-1.146-.386,1.787,1.787,0,0,0-1.083.307.968.968,0,0,0-.419.822.818.818,0,0,0,.39.722,5.365,5.365,0,0,0,1.577.519,7.466,7.466,0,0,1,1.864.623,2.639,2.639,0,0,1,1,.867,2.212,2.212,0,0,1,.328,1.229,2.34,2.34,0,0,1-1,1.963,4.283,4.283,0,0,1-2.631.751,4.644,4.644,0,0,1-1.967-.4,3.238,3.238,0,0,1-1.345-1.1,2.594,2.594,0,0,1-.481-1.5H123.1a1.421,1.421,0,0,0,.54,1.1,2.1,2.1,0,0,0,1.32.386,2.04,2.04,0,0,0,1.212-.3A.938.938,0,0,0,126.586,13.56Z" transform="translate(1093 11135)" fill="#12263f"/>
  </g>
</svg>
