<svg xmlns="http://www.w3.org/2000/svg" width="50.044" height="50.046" viewBox="0 0 50.044 50.046">
  <path id="Trazado_599120" data-name="Trazado 599120" d="M213.952,32.343a.8.8,0,0,0-.651-.893c-1.4-.483-2.792-.983-4.16-1.545a1.645,1.645,0,0,1-.783-.817c-.574-1.329-1.095-2.682-1.595-4.041a1.306,1.306,0,0,1,0-.9c.676-1.5,1.417-2.975,2.089-4.48a.942.942,0,0,0-.112-.835c-1.128-1.2-2.314-2.353-3.456-3.544a.678.678,0,0,0-.937-.151c-1.426.707-2.861,1.4-4.314,2.044a1.432,1.432,0,0,1-.982.046q-2.082-.75-4.125-1.614a1.52,1.52,0,0,1-.777-.718c-.564-1.4-1.071-2.818-1.558-4.244-.156-.458-.341-.679-.874-.666-1.594.039-3.189.037-4.783,0a.794.794,0,0,0-.889.656c-.481,1.4-1.022,2.774-1.5,4.174a1.235,1.235,0,0,1-.894.855c-1.315.457-2.617.973-3.882,1.554a1.249,1.249,0,0,1-1.233-.011c-1.4-.7-2.82-1.352-4.218-2.05a.732.732,0,0,0-1.012.175c-1.1,1.152-2.225,2.284-3.383,3.38a.774.774,0,0,0-.147,1.085c.693,1.4,1.374,2.811,2,4.242a1.454,1.454,0,0,1-.026,1.038q-.873,2.036-1.865,4.019a1.71,1.71,0,0,1-.806.8c-1.485.565-3,1.069-4.508,1.563a.783.783,0,0,0-.663.88c.035,1.593.03,3.189,0,4.784a.724.724,0,0,0,.594.832c1.541.5,3.079,1.01,4.592,1.585a1.69,1.69,0,0,1,.787.823c.612,1.282,1.114,2.617,1.754,3.885a1.377,1.377,0,0,1,.03,1.394c-.661,1.323-1.263,2.677-1.92,4a.781.781,0,0,0,.17,1.081q1.731,1.651,3.382,3.383a.77.77,0,0,0,1.078.155c1.376-.682,2.777-1.314,4.152-2a1.221,1.221,0,0,1,1.232.032c1.323.653,2.7,1.192,4.037,1.823a1.438,1.438,0,0,1,.681.71c.566,1.516,1.091,3.049,1.6,4.587a.743.743,0,0,0,.84.6c1.594-.027,3.189-.032,4.783,0a.767.767,0,0,0,.875-.653c.486-1.514,1.006-3.021,1.571-4.506a1.563,1.563,0,0,1,.755-.757q2.045-.956,4.141-1.8a1.381,1.381,0,0,1,.975-.019c1.628.724,3.231,1.5,4.906,2.291,1.311-1.328,2.62-2.627,3.883-3.971a.954.954,0,0,0,.076-.847c-.65-1.452-1.366-2.875-2.023-4.325a1.367,1.367,0,0,1-.064-.919c.493-1.42,1.017-2.832,1.588-4.222a1.51,1.51,0,0,1,.744-.76c1.4-.565,2.816-1.077,4.241-1.571a.745.745,0,0,0,.586-.848c-.027-1.594-.032-3.19,0-4.784M189.312,44.05a9.321,9.321,0,1,1,9.332-9.31,9.289,9.289,0,0,1-9.332,9.31" transform="translate(-163.909 -9.984)" fill="#fff"/>
</svg>
