<svg xmlns="http://www.w3.org/2000/svg" xmlns:xlink="http://www.w3.org/1999/xlink" width="25" height="25" viewBox="0 0 25 25">
  <defs>
    <clipPath id="clip-path">
      <rect id="Rect치ngulo_45684" data-name="Rect치ngulo 45684" width="15.104" height="11.963" fill="#4b6280"/>
    </clipPath>
  </defs>
  <g id="Grupo_159196" data-name="Grupo 159196" transform="translate(-180 -3063)">
    <g id="Grupo_159192" data-name="Grupo 159192" transform="translate(-205.337 1004.402)">
      <path id="Uni칩n_12" data-name="Uni칩n 12" d="M17.9,23.778a12.511,12.511,0,1,1,4.173-3.236L23.787,25Z" transform="translate(385.337 2058.598)" fill="#62f0e7"/>
    </g>
    <g id="Grupo_159195" data-name="Grupo 159195" transform="translate(-40.052 -127.272)">
      <g id="Grupo_159194" data-name="Grupo 159194" transform="translate(225 3196.791)">
        <g id="Grupo_159193" data-name="Grupo 159193" clip-path="url(#clip-path)">
          <path id="Trazado_600820" data-name="Trazado 600820" d="M0,4.338a3.522,3.522,0,0,1,.26-.584A1.392,1.392,0,0,1,1.5,3.143q.944,0,1.887,0a.8.8,0,0,0,.285-.055Q7.445,1.58,11.217.067a.557.557,0,0,1,.427-.038.447.447,0,0,1,.306.38,1.682,1.682,0,0,1,.01.206q0,4.733,0,9.465c0,.044,0,.089,0,.133a.473.473,0,0,1-.68.442c-.411-.159-.82-.325-1.229-.489L5.136,8.2c-.045-.018-.091-.034-.154-.057.025.231.047.448.071.666q.112,1,.226,2c.023.2.048.409.066.615a.451.451,0,0,1-.444.528c-.643.013-1.287.01-1.931,0a.453.453,0,0,1-.456-.42c-.113-.776-.22-1.553-.331-2.33-.078-.547-.157-1.094-.238-1.651-.2,0-.393,0-.584,0A1.306,1.306,0,0,1,.019,6.542c0-.008-.012-.014-.019-.021V4.338" transform="translate(0 0)" fill="#4b6280"/>
          <path id="Trazado_600821" data-name="Trazado 600821" d="M321.86,48.309a.45.45,0,0,1-.173.375c-.524.422-1.047.845-1.577,1.26a.465.465,0,0,1-.678-.085.481.481,0,0,1,.1-.668q.769-.619,1.542-1.233a.46.46,0,0,1,.523-.062.451.451,0,0,1,.261.412" transform="translate(-306.757 -45.957)" fill="#4b6280"/>
          <path id="Trazado_600822" data-name="Trazado 600822" d="M321.834,185.27a.475.475,0,0,1-.778.36c-.381-.3-.76-.606-1.14-.91-.138-.11-.278-.219-.414-.332a.477.477,0,0,1-.09-.669.463.463,0,0,1,.668-.082c.53.415,1.053.838,1.577,1.26a.453.453,0,0,1,.177.373" transform="translate(-306.732 -176.299)" fill="#4b6280"/>
          <path id="Trazado_600823" data-name="Trazado 600823" d="M320.591,132.714c-.26,0-.521,0-.781,0a.471.471,0,1,1,0-.943q.781,0,1.562,0a.471.471,0,1,1,0,.943c-.26,0-.521,0-.781,0" transform="translate(-306.749 -126.577)" fill="#4b6280"/>
        </g>
      </g>
    </g>
  </g>
</svg>
