<svg xmlns="http://www.w3.org/2000/svg" width="400" height="384.053" viewBox="0 0 400 384.053">
  <g id="OBJECTS" transform="translate(-20.722 -31.9)">
    <g id="Grupo_1082100" data-name="Grupo 1082100" transform="translate(20.722 31.9)">
      <g id="Grupo_1082083" data-name="Grupo 1082083">
        <g id="Grupo_1082077" data-name="Grupo 1082077" transform="translate(213.424)">
          <path id="Trazado_717985" data-name="Trazado 717985" d="M281.887,46.622H266.961a3.148,3.148,0,0,1-3.161-3.161h0a3.148,3.148,0,0,1,3.161-3.161h14.926a3.148,3.148,0,0,1,3.161,3.161h0A3.265,3.265,0,0,1,281.887,46.622Z" transform="translate(-263.8 -32.925)" fill="#7fcccf"/>
          <path id="Trazado_717986" data-name="Trazado 717986" d="M278.622,35.061V49.987a3.148,3.148,0,0,1-3.161,3.161h0a3.148,3.148,0,0,1-3.161-3.161V35.061a3.148,3.148,0,0,1,3.161-3.161h0A3.148,3.148,0,0,1,278.622,35.061Z" transform="translate(-264.837 -31.9)" fill="#7fcccf"/>
        </g>
        <path id="Trazado_717987" data-name="Trazado 717987" d="M132.155,90.406l-35.384-43.2a1.318,1.318,0,0,0-2.283,0L60.773,91.548a1.331,1.331,0,0,0,1.141,2.019H79.124a1.35,1.35,0,0,1,1.317,1.317v55.841a1.35,1.35,0,0,0,1.317,1.317h28.447a1.35,1.35,0,0,0,1.317-1.317V94.884a1.35,1.35,0,0,1,1.317-1.317l18.087-1.141A1.4,1.4,0,0,0,132.155,90.406Z" transform="translate(-25.585 -33.687)" fill="#7fcccf"/>
        <path id="Trazado_717988" data-name="Trazado 717988" d="M198.5,83.8H174.877c-2.458,0-9.307-7.639-5.531-15.453,3.512-7.2,13.96-4.741,13.96-5.531S184.447,48.5,197.442,48.5c15.277,0,12.555,15.8,13.96,15.8,1.317,0,10.712-.966,12.38,7.024,1.317,6.146-3.512,10.009-5.883,11.5a4.352,4.352,0,0,1-2.283.7C212.192,83.708,202.446,83.8,198.5,83.8Z" transform="translate(-38.718 -33.925)" fill="#7fcccf"/>
        <g id="Grupo_1082079" data-name="Grupo 1082079" transform="translate(258.202 18.526)">
          <path id="Trazado_717989" data-name="Trazado 717989" d="M360.105,68.98c0-8.868-10.1-15.98-22.653-15.98C324.985,53,314.8,60.2,314.8,68.98c0,7.99,8.341,14.663,19.228,15.8a.593.593,0,0,1,.527.351c1.4,2.634,3.336,5.531,4.917,5.619,1.668.088,3.688-3.424,5.092-6.322a.583.583,0,0,1,.439-.351C353.783,81.886,360.105,76,360.105,68.98Z" transform="translate(-314.8 -53)" fill="#f2f7f9"/>
          <g id="Grupo_1082078" data-name="Grupo 1082078" transform="translate(9.043 14.487)">
            <path id="Trazado_717990" data-name="Trazado 717990" d="M331.6,72.749a3.249,3.249,0,1,1-3.249-3.249A3.3,3.3,0,0,1,331.6,72.749Z" transform="translate(-325.1 -69.5)" fill="#3e9b9b"/>
            <path id="Trazado_717991" data-name="Trazado 717991" d="M343.3,72.749a3.249,3.249,0,1,1-3.249-3.249A3.3,3.3,0,0,1,343.3,72.749Z" transform="translate(-326.527 -69.5)" fill="#3e9b9b"/>
            <path id="Trazado_717992" data-name="Trazado 717992" d="M355.2,72.749a3.249,3.249,0,1,1-3.249-3.249A3.241,3.241,0,0,1,355.2,72.749Z" transform="translate(-327.979 -69.5)" fill="#3e9b9b"/>
          </g>
        </g>
        <g id="Grupo_1082080" data-name="Grupo 1082080" transform="translate(336.481 300.443)">
          <path id="Trazado_717993" data-name="Trazado 717993" d="M437.886,380.069h0a2.265,2.265,0,0,1,1.4-2.81l9.307-3.073a2.265,2.265,0,0,1,2.81,1.4h0a2.265,2.265,0,0,1-1.4,2.81l-9.307,3.073A2.227,2.227,0,0,1,437.886,380.069Z" transform="translate(-408.083 -374.088)" fill="#f2f7f9"/>
          <path id="Trazado_717994" data-name="Trazado 717994" d="M435.569,396.229h0a2.18,2.18,0,0,1,2.985-.966l8.78,4.39a2.18,2.18,0,0,1,.966,2.985h0a2.18,2.18,0,0,1-2.985.966l-8.78-4.39A2.309,2.309,0,0,1,435.569,396.229Z" transform="translate(-407.785 -376.639)" fill="#f2f7f9"/>
          <path id="Trazado_717995" data-name="Trazado 717995" d="M426.591,406.086h0a2.265,2.265,0,0,1,2.81,1.4l3.073,9.307a2.265,2.265,0,0,1-1.4,2.81h0a2.265,2.265,0,0,1-2.81-1.4l-3.073-9.307A2.265,2.265,0,0,1,426.591,406.086Z" transform="translate(-406.534 -377.979)" fill="#f2f7f9"/>
          <path id="Trazado_717996" data-name="Trazado 717996" d="M412.072,408.758h0a2.166,2.166,0,0,1,.79,2.985l-4.829,8.517a2.166,2.166,0,0,1-2.985.79h0a2.166,2.166,0,0,1-.79-2.985l4.829-8.517A2.166,2.166,0,0,1,412.072,408.758Z" transform="translate(-403.956 -378.28)" fill="#f2f7f9"/>
        </g>
        <g id="Grupo_1082081" data-name="Grupo 1082081" transform="translate(0 96.103)">
          <path id="Trazado_717997" data-name="Trazado 717997" d="M30.449,169.944h0a1.591,1.591,0,0,1-1.054,1.932l-6.673,1.844a1.591,1.591,0,0,1-1.932-1.054h0a1.591,1.591,0,0,1,1.054-1.932l6.673-1.844A1.591,1.591,0,0,1,30.449,169.944Z" transform="translate(-20.722 -144.706)" fill="#7fcccf"/>
          <path id="Trazado_717998" data-name="Trazado 717998" d="M32.651,158.514h0a1.515,1.515,0,0,1-2.107.615l-6.058-3.336a1.515,1.515,0,0,1-.615-2.107h0a1.515,1.515,0,0,1,2.107-.615l6.058,3.336A1.683,1.683,0,0,1,32.651,158.514Z" transform="translate(-21.08 -142.759)" fill="#7fcccf"/>
          <path id="Trazado_717999" data-name="Trazado 717999" d="M39.766,151.449h0a1.591,1.591,0,0,1-1.932-1.054l-1.844-6.673a1.591,1.591,0,0,1,1.054-1.932h0a1.591,1.591,0,0,1,1.932,1.054l1.844,6.673A1.521,1.521,0,0,1,39.766,151.449Z" transform="translate(-22.576 -141.4)" fill="#7fcccf"/>
          <path id="Trazado_718000" data-name="Trazado 718000" d="M49.8,150.087h0a1.648,1.648,0,0,1-.527-2.2l3.688-5.795a1.648,1.648,0,0,1,2.2-.527h0a1.648,1.648,0,0,1,.527,2.2l-3.688,5.795A1.569,1.569,0,0,1,49.8,150.087Z" transform="translate(-24.178 -141.356)" fill="#7fcccf"/>
        </g>
        <path id="Trazado_718001" data-name="Trazado 718001" d="M45.372,349.075H27.988a3.71,3.71,0,0,1-3.688-3.688h0a3.71,3.71,0,0,1,3.688-3.688H45.372a3.71,3.71,0,0,1,3.688,3.688h0A3.71,3.71,0,0,1,45.372,349.075Z" transform="translate(-21.158 -69.694)" fill="#7fcccf"/>
        <g id="Grupo_1082082" data-name="Grupo 1082082" transform="translate(360.051 187.981)">
          <path id="Trazado_718002" data-name="Trazado 718002" d="M448.887,260.822H433.961a3.148,3.148,0,0,1-3.161-3.161h0a3.148,3.148,0,0,1,3.161-3.161h14.926a3.148,3.148,0,0,1,3.161,3.161h0A3.148,3.148,0,0,1,448.887,260.822Z" transform="translate(-430.8 -247.037)" fill="#f2f7f9"/>
          <path id="Trazado_718003" data-name="Trazado 718003" d="M445.622,249.161v14.926a3.148,3.148,0,0,1-3.161,3.161h0a3.148,3.148,0,0,1-3.161-3.161V249.161A3.148,3.148,0,0,1,442.461,246h0A3.265,3.265,0,0,1,445.622,249.161Z" transform="translate(-431.837 -246)" fill="#f2f7f9"/>
        </g>
      </g>
      <g id="Grupo_1082090" data-name="Grupo 1082090" transform="translate(34.223 85.957)">
        <path id="Trazado_718004" data-name="Trazado 718004" d="M360.167,458.27c0,10.975-63.216,8.341-141.183,8.341S77.8,469.245,77.8,458.27c0-8.868,63.216-8.341,141.183-8.341S360.167,446.329,360.167,458.27Z" transform="translate(-61.908 -168.792)" fill="#187774" opacity="0.29"/>
        <g id="Grupo_1082089" data-name="Grupo 1082089">
          <g id="Grupo_1082087" data-name="Grupo 1082087">
            <g id="Grupo_1082085" data-name="Grupo 1082085" transform="translate(95.176 229.774)">
              <g id="Grupo_1082084" data-name="Grupo 1082084" transform="translate(29.677)">
                <rect id="Rect치ngulo_379407" data-name="Rect치ngulo 379407" width="75.421" height="52.593" fill="#c8c8c8"/>
                <rect id="Rect치ngulo_379408" data-name="Rect치ngulo 379408" width="75.421" height="23.443" fill="#b0b0b0"/>
              </g>
              <path id="Trazado_718005" data-name="Trazado 718005" d="M299.8,454.221H169.5a1.387,1.387,0,0,1-1.4-1.4V438.5a1.387,1.387,0,0,1,1.4-1.4H299.8a1.387,1.387,0,0,1,1.4,1.4v14.311A1.444,1.444,0,0,1,299.8,454.221Z" transform="translate(-168.1 -397.063)" fill="#eff0ea"/>
            </g>
            <g id="Grupo_1082086" data-name="Grupo 1082086">
              <path id="Trazado_718006" data-name="Trazado 718006" d="M367.792,367.142H73.924A14.22,14.22,0,0,1,59.7,352.919V149.924A14.22,14.22,0,0,1,73.924,135.7H367.792a14.22,14.22,0,0,1,14.224,14.224V352.919A14.334,14.334,0,0,1,367.792,367.142Z" transform="translate(-59.7 -130.52)" fill="#eff0ea"/>
              <path id="Trazado_718007" data-name="Trazado 718007" d="M375.343,129.8H67.426a7.682,7.682,0,0,0-7.726,7.726v198.6H383.069v-198.6A7.738,7.738,0,0,0,375.343,129.8Z" transform="translate(-59.7 -129.8)" fill="#034747"/>
              <path id="Trazado_718008" data-name="Trazado 718008" d="M372.646,148.1H71.666a.974.974,0,0,0-.966.966V329.408a.974.974,0,0,0,.966.966H372.558a.974.974,0,0,0,.966-.966V149.066A.853.853,0,0,0,372.646,148.1Z" transform="translate(-61.042 -132.033)" fill="#f2f7f9"/>
            </g>
            <path id="Trazado_718009" data-name="Trazado 718009" d="M249.8,382.048a6.848,6.848,0,1,1-6.848-6.848A6.857,6.857,0,0,1,249.8,382.048Z" transform="translate(-81.22 -159.737)" fill="#c8c8c8"/>
          </g>
          <g id="Grupo_1082088" data-name="Grupo 1082088" transform="translate(62.338 42.056)">
            <path id="Trazado_718010" data-name="Trazado 718010" d="M166.259,223.932V339.565H130.7V223.932A1.949,1.949,0,0,1,132.632,222h31.7A1.949,1.949,0,0,1,166.259,223.932Z" transform="translate(-130.7 -183.104)" fill="#66ded5"/>
            <path id="Trazado_718011" data-name="Trazado 718011" d="M218.059,179.632V334.161H182.5V179.632a1.949,1.949,0,0,1,1.932-1.932h31.784A1.933,1.933,0,0,1,218.059,179.632Z" transform="translate(-137.019 -177.7)" fill="#f7cd00"/>
          </g>
          <path id="Trazado_718012" data-name="Trazado 718012" d="M330.255,253.548a29.957,29.957,0,0,0,1.668-5.444A24.34,24.34,0,0,1,330.255,253.548Zm21.423-13.7A49.827,49.827,0,0,0,301.9,192a26.555,26.555,0,0,0-3.775.176,49.768,49.768,0,1,0,21.95,95.966c.615-.263,1.317-.527,1.932-.79.439-.176.878-.439,1.317-.615a.666.666,0,0,0,.351-.176l1.58-.79a16.309,16.309,0,0,0,1.668-.966c.527-.263,1.054-.615,1.668-.966l1.58-1.054a10.65,10.65,0,0,0,1.229-.878c.263-.176.439-.351.7-.527.351-.263.79-.615,1.141-.878.878-.7,1.756-1.493,2.546-2.195.088-.088.263-.176.351-.351.351-.351.7-.615,1.054-.966l.527-.527.79-.79a5.676,5.676,0,0,0,.7-.79,41.849,41.849,0,0,0,4.214-5.531,21.005,21.005,0,0,0,1.141-1.844c.351-.527.7-1.141,1.054-1.756.7-1.317,1.4-2.634,2.019-4.039.263-.527.439-1.054.7-1.58a12.532,12.532,0,0,0,.7-1.932l.527-1.58c.176-.527.351-1.141.527-1.756s.351-1.317.527-1.932c.088-.527.263-1.141.351-1.668.263-1.229.439-2.458.615-3.688.088-.527.088-.966.176-1.493a12.366,12.366,0,0,0,.088-1.756c0-.878.088-1.756.088-2.634A3.906,3.906,0,0,1,351.678,239.851Zm-19.755,8.165a29.959,29.959,0,0,1-1.668,5.444c-.176.527-.439.966-.615,1.4a32.63,32.63,0,0,1-2.371,4.214,3.08,3.08,0,0,0-.439.7c-.176.263-.439.527-.615.79l-1.317,1.58c-.351.351-.7.79-1.054,1.141a33.285,33.285,0,0,1-4.741,3.951c-.966.615-1.932,1.229-2.9,1.756l-1.054.527c-.351.176-.7.351-1.141.527a6.049,6.049,0,0,0-.7.263c-.176.088-.439.176-.615.263a6.67,6.67,0,0,0-.966.351,5.679,5.679,0,0,1-1.141.351,30.646,30.646,0,1,1-12.643-59.792,31.2,31.2,0,0,1,4.039-.263,30.611,30.611,0,0,1,30.555,28.447,18.34,18.34,0,0,1,.088,2.2,26,26,0,0,1-.351,4.566l-.263,1.317a.323.323,0,0,1-.088.263Z" transform="translate(-83.184 -137.388)" fill="#3e9b9b"/>
          <path id="Trazado_718013" data-name="Trazado 718013" d="M358.022,241.883a43.216,43.216,0,0,1-.351,5.883l-19.4.176a27.82,27.82,0,0,0,.615-6.058,17.633,17.633,0,0,0-.088-2.2,30.672,30.672,0,0,0-30.555-28.447,30.206,30.206,0,0,0-4.039.263l.263-19.228c1.229-.088,2.546-.176,3.775-.176a49.827,49.827,0,0,1,49.783,47.851Z" transform="translate(-89.528 -137.4)" fill="#f7cd00"/>
          <path id="Trazado_718014" data-name="Trazado 718014" d="M361.95,248.495a49.679,49.679,0,0,1-4.214,20.106,42.474,42.474,0,0,1-4.214,7.551c-5.531-2.81-11.853-6.058-17.121-8.868a31.971,31.971,0,0,0,4.127-7.112,30.423,30.423,0,0,0,2.283-11.677,17.633,17.633,0,0,0-.088-2.2l19.141.263A14.23,14.23,0,0,1,361.95,248.495Z" transform="translate(-93.456 -144.012)" fill="#c9eeff"/>
          <path id="Trazado_718015" data-name="Trazado 718015" d="M355.564,270.529a49.908,49.908,0,0,1-27.482,26.34c-3.073-5.268-6.761-12.029-9.482-16.945A30.866,30.866,0,0,0,338.443,262.1Z" transform="translate(-91.284 -145.94)" fill="#66ded5"/>
        </g>
      </g>
      <g id="Grupo_1082092" data-name="Grupo 1082092" transform="translate(284.191 39.422)">
        <g id="Grupo_1082091" data-name="Grupo 1082091" transform="translate(0 0)">
          <path id="Trazado_718016" data-name="Trazado 718016" d="M460.209,134.748a59.143,59.143,0,0,1-2.458,16.77A58.117,58.117,0,0,1,446.6,172.151h0l-.176.176c-.615.79-1.317,1.493-1.932,2.2l-.966.966-1.054,1.054a13.5,13.5,0,0,1-1.141,1.054l-.176.176-.527.527a57.69,57.69,0,0,1-38.369,14.487,15.544,15.544,0,0,1-2.019-.088A52.461,52.461,0,0,1,389.09,191.2l-.966-.263a6.468,6.468,0,0,1-1.229-.351c-.263-.088-.439-.088-.7-.176-.615-.176-1.141-.351-1.668-.527a55.87,55.87,0,0,1-16.858-8.692A57.741,57.741,0,0,1,344.4,134.748a58.717,58.717,0,0,1,2.2-15.8,65.087,65.087,0,0,1,2.458-6.936,58.4,58.4,0,0,1,27.921-29.413A57.006,57.006,0,0,1,402.348,76.8a60.013,60.013,0,0,1,15.98,2.2,57.832,57.832,0,0,1,22.74,12.555h0A58.537,58.537,0,0,1,460.209,134.748Z" transform="translate(-344.4 -76.8)" fill="#1b6b6b"/>
          <path id="Trazado_718017" data-name="Trazado 718017" d="M452.075,179.825,451.9,180c-.615.79-1.317,1.493-1.932,2.2l-.966.966-1.054,1.054a13.5,13.5,0,0,1-1.141,1.054l-.176.176-.527.527a57.69,57.69,0,0,1-38.369,14.487,15.542,15.542,0,0,1-2.019-.088,52.46,52.46,0,0,1-11.151-1.493l-.966-.263a6.467,6.467,0,0,1-1.229-.351c-.263-.088-.439-.088-.7-.176-.615-.176-1.141-.351-1.668-.527.7-3.249,1.58-7.024,2.458-11.063.263-1.317.615-2.634.878-3.951,4.478-19.4,9.921-42.847,9.921-42.847Z" transform="translate(-349.963 -84.473)" fill="#fefefe"/>
          <path id="Trazado_718018" data-name="Trazado 718018" d="M467.638,135.078a59.143,59.143,0,0,1-2.458,16.77,58.116,58.116,0,0,1-11.151,20.633h0l-.176.176c-.615.79-1.317,1.493-1.932,2.2l-.966.966-1.054,1.054a13.5,13.5,0,0,1-1.141,1.054l-.176.176-.527.527-2.107-2.283L419,147.282l-9.746-10.536-3.951-4.214S417.943,98.641,424.7,81.7c.263-.79.615-1.493.878-2.2a57.833,57.833,0,0,1,22.74,12.555h0A57.388,57.388,0,0,1,467.638,135.078Z" transform="translate(-351.829 -77.129)" fill="#f7cd00"/>
        </g>
      </g>
      <g id="Grupo_1082094" data-name="Grupo 1082094" transform="translate(121.321 53.032)">
        <path id="Trazado_718019" data-name="Trazado 718019" d="M299.82,189.846H160.393a1.539,1.539,0,0,1-1.493-1.493V93.793a1.539,1.539,0,0,1,1.493-1.493H299.82a1.539,1.539,0,0,1,1.493,1.493v94.561A1.48,1.48,0,0,1,299.82,189.846Z" transform="translate(-158.9 -92.3)" fill="#b8d5e0" opacity="0.54"/>
        <path id="Trazado_718020" data-name="Trazado 718020" d="M205.7,154.9H173.393A1.539,1.539,0,0,1,171.9,153.4V121.093a1.539,1.539,0,0,1,1.493-1.493H205.7a1.539,1.539,0,0,1,1.493,1.493V153.4A1.539,1.539,0,0,1,205.7,154.9Z" transform="translate(-160.486 -95.63)" fill="#66ded5"/>
        <path id="Trazado_718021" data-name="Trazado 718021" d="M202.336,136.7l-15.98-9.219a1.17,1.17,0,0,0-1.756,1.054V146.97a1.17,1.17,0,0,0,1.756,1.054l15.98-9.219A1.232,1.232,0,0,0,202.336,136.7Z" transform="translate(-162.035 -96.572)" fill="#fff"/>
        <g id="Grupo_1082093" data-name="Grupo 1082093" transform="translate(57.07 23.267)">
          <path id="Trazado_718022" data-name="Trazado 718022" d="M293.262,167.541H226.271a2.361,2.361,0,0,1-2.371-2.371h0a2.361,2.361,0,0,1,2.371-2.371h66.992a2.361,2.361,0,0,1,2.371,2.371h0A2.36,2.36,0,0,1,293.262,167.541Z" transform="translate(-223.9 -124.168)" fill="#fff"/>
          <path id="Trazado_718023" data-name="Trazado 718023" d="M293.262,146.541H226.271a2.361,2.361,0,0,1-2.371-2.371h0a2.361,2.361,0,0,1,2.371-2.371h66.992a2.361,2.361,0,0,1,2.371,2.371h0A2.307,2.307,0,0,1,293.262,146.541Z" transform="translate(-223.9 -121.606)" fill="#fff"/>
          <path id="Trazado_718024" data-name="Trazado 718024" d="M293.262,123.541H226.271a2.361,2.361,0,0,1-2.371-2.371h0a2.361,2.361,0,0,1,2.371-2.371h66.992a2.361,2.361,0,0,1,2.371,2.371h0A2.307,2.307,0,0,1,293.262,123.541Z" transform="translate(-223.9 -118.8)" fill="#fff"/>
        </g>
      </g>
      <g id="Grupo_1082099" data-name="Grupo 1082099" transform="translate(15.434 111.594)">
        <path id="Trazado_718025" data-name="Trazado 718025" d="M111.209,277.979H44.217c-.966,0-4.917-3.775-4.917-4.741l3.161-108.346a1.761,1.761,0,0,1,1.756-1.756L108.4,159.8c.966,0,4.653,4.127,4.653,5.092V276.224A1.974,1.974,0,0,1,111.209,277.979Z" transform="translate(-38.422 -159.098)" fill="#1b6b6b"/>
        <path id="Trazado_718026" data-name="Trazado 718026" d="M107.926,273.843H39.266a.974.974,0,0,1-.966-.966V159.966a.974.974,0,0,1,.966-.966h68.66a.974.974,0,0,1,.966.966V272.877A.974.974,0,0,1,107.926,273.843Z" transform="translate(-38.3 -159)" fill="#7fcccf"/>
        <g id="Grupo_1082095" data-name="Grupo 1082095" transform="translate(31.169 100.532)">
          <path id="Trazado_718027" data-name="Trazado 718027" d="M84.512,278.856a3.6,3.6,0,0,1-.088.966,5.359,5.359,0,1,1-7.024-6.058,5.659,5.659,0,0,1,1.756-.263A5.321,5.321,0,0,1,84.512,278.856Z" transform="translate(-73.8 -273.5)" fill="#f2f7f9"/>
        </g>
        <path id="Trazado_718028" data-name="Trazado 718028" d="M100.895,255.786H48.39a.787.787,0,0,1-.79-.79V169.39a.787.787,0,0,1,.79-.79h52.593a.787.787,0,0,1,.79.79V255A.934.934,0,0,1,100.895,255.786Z" transform="translate(-39.435 -160.171)" fill="#1b6b6b"/>
        <g id="Grupo_1082098" data-name="Grupo 1082098" transform="translate(10.097 11.765)">
          <path id="Trazado_718029" data-name="Trazado 718029" d="M100.11,173.629v79.2a1.35,1.35,0,0,1-1.317,1.317H51.117a1.35,1.35,0,0,1-1.317-1.317v-79.2a1.276,1.276,0,0,1,1.317-1.229H98.793A1.224,1.224,0,0,1,100.11,173.629Z" transform="translate(-49.8 -172.4)" fill="#f7edf5"/>
          <g id="Grupo_1082096" data-name="Grupo 1082096" transform="translate(4.302 11.414)">
            <path id="Trazado_718030" data-name="Trazado 718030" d="M92.805,204.707H55.754a1.068,1.068,0,0,1-1.054-1.054h0a1.068,1.068,0,0,1,1.054-1.054H92.805a1.068,1.068,0,0,1,1.054,1.054h0A.969.969,0,0,1,92.805,204.707Z" transform="translate(-54.7 -187.498)" fill="#d4d9e8"/>
            <path id="Trazado_718031" data-name="Trazado 718031" d="M77.967,209.807H55.139a.415.415,0,0,1-.439-.439v-1.229a.415.415,0,0,1,.439-.439h22.74a.415.415,0,0,1,.439.439v1.229C78.406,209.632,78.231,209.807,77.967,209.807Z" transform="translate(-54.7 -188.12)" fill="#d4d9e8"/>
            <path id="Trazado_718032" data-name="Trazado 718032" d="M64.958,190.229a4.829,4.829,0,1,1-4.829-4.829A4.931,4.931,0,0,1,64.958,190.229Z" transform="translate(-54.773 -185.4)" fill="#d4d9e8"/>
            <path id="Trazado_718033" data-name="Trazado 718033" d="M92.805,237.007H55.754a1.068,1.068,0,0,1-1.054-1.054h0a1.068,1.068,0,0,1,1.054-1.054H92.805a1.068,1.068,0,0,1,1.054,1.054h0A.969.969,0,0,1,92.805,237.007Z" transform="translate(-54.7 -191.439)" fill="#d4d9e8"/>
            <path id="Trazado_718034" data-name="Trazado 718034" d="M77.967,242.207H55.139a.415.415,0,0,1-.439-.439v-1.229a.415.415,0,0,1,.439-.439h22.74a.415.415,0,0,1,.439.439v1.229C78.406,241.944,78.231,242.207,77.967,242.207Z" transform="translate(-54.7 -192.073)" fill="#d4d9e8"/>
            <path id="Trazado_718035" data-name="Trazado 718035" d="M64.958,222.629a4.829,4.829,0,1,1-4.829-4.829A4.872,4.872,0,0,1,64.958,222.629Z" transform="translate(-54.773 -189.353)" fill="#d4d9e8"/>
          </g>
          <g id="Grupo_1082097" data-name="Grupo 1082097" opacity="0.35">
            <path id="Trazado_718036" data-name="Trazado 718036" d="M100.11,173.629v16.594L49.8,220.163V194.526L87.027,172.4H98.793A1.224,1.224,0,0,1,100.11,173.629Z" transform="translate(-49.8 -172.4)" fill="#fff"/>
            <path id="Trazado_718037" data-name="Trazado 718037" d="M100.122,202.2v9.921L49.9,241.974V232.14Z" transform="translate(-49.812 -176.035)" fill="#fff"/>
          </g>
        </g>
      </g>
    </g>
  </g>
</svg>
