<svg xmlns="http://www.w3.org/2000/svg" width="400" height="233.18" viewBox="0 0 400 233.18">
  <g id="_019" data-name="019" transform="translate(-10.7 -12.2)">
    <g id="Grupo_1082500" data-name="Grupo 1082500" transform="translate(10.7 12.2)">
      <g id="Grupo_1082480" data-name="Grupo 1082480" transform="translate(86.468)">
        <path id="Trazado_720118" data-name="Trazado 720118" d="M314.17,106.141,326.4,251.26s1.257,8.8-5.279,8.8h-53.54s8.127-1.843,7.96-5.949C275.46,249.249,261.3,104.8,261.3,104.8Z" transform="translate(-137.798 -27.213)" fill="#657285"/>
        <path id="Trazado_720119" data-name="Trazado 720119" d="M263.452,256.874c2.095,0,42.983.168,53.456,0,4.525-.084,5.362-4.022,5.362-6.619a13.478,13.478,0,0,0-.168-2.178l-.335-3.77-.838-9.636-.754-8.463-.922-10.892L318.5,206.1l-8.63-103.058L257,101.7s5.949,60.411,10.138,104.483c.5,4.943.922,9.636,1.341,13.992.168,1.424.251,2.765.419,4.106.419,4.189.754,7.96,1.089,11.4.168,1.76.335,3.435.419,4.943.5,5.949.838,9.719.838,10.473a5.152,5.152,0,0,1-.084,1.173C270.406,256.79,264.206,256.874,263.452,256.874Z" transform="translate(-137.101 -26.71)" fill="#b8c1c9"/>
        <path id="Trazado_720120" data-name="Trazado 720120" d="M164.926,12.2H418.634L388.973,131.6l-4.106,16.339-13.825,55.551H113.9Z" transform="translate(-113.9 -12.2)" fill="#b8c1c9"/>
        <path id="Trazado_720121" data-name="Trazado 720121" d="M468.391,12.2l4.189,1.341L426.246,207.675l-5.446-4.189Z" transform="translate(-163.657 -12.2)" fill="#657285"/>
        <path id="Trazado_720122" data-name="Trazado 720122" d="M376.489,244.689H120.938L113.9,240.5H371.043Z" transform="translate(-113.9 -49.214)" fill="#657285"/>
        <rect id="Rectángulo_380046" data-name="Rectángulo 380046" width="55.3" height="2.597" transform="translate(117.553 230.247)" fill="#657285"/>
        <path id="Trazado_720123" data-name="Trazado 720123" d="M166.856,12.2H420.563L382.356,165.949H125.8Z" transform="translate(-115.829 -12.2)" fill="#b8c1c9"/>
      </g>
      <path id="Trazado_720124" data-name="Trazado 720124" d="M139.9,160.919H377.52l26.9-107.248,2.095-8.211,1.76-6.954L412.376,22H178.191l-4.525,16.506-1.927,6.954-2.262,8.211Z" transform="translate(-31.647 -13.789)" fill="#eaeaea"/>
      <path id="Trazado_720125" data-name="Trazado 720125" d="M184.725,22H418.91L414.8,38.506H180.2Z" transform="translate(-38.181 -13.789)" fill="#657285"/>
      <g id="Grupo_1082481" data-name="Grupo 1082481" transform="translate(352.687 13.574)">
        <path id="Trazado_720126" data-name="Trazado 720126" d="M451.181,28.4a1.521,1.521,0,0,1,1.508,2.095,2.768,2.768,0,0,1-2.6,2.095,1.521,1.521,0,0,1-1.508-2.095A2.848,2.848,0,0,1,451.181,28.4Z" transform="translate(-434.366 -28.4)" fill="#eaeaea"/>
        <path id="Trazado_720127" data-name="Trazado 720127" d="M442.981,28.4a1.521,1.521,0,0,1,1.508,2.095,2.768,2.768,0,0,1-2.6,2.095,1.521,1.521,0,0,1-1.508-2.095A2.934,2.934,0,0,1,442.981,28.4Z" transform="translate(-433.036 -28.4)" fill="#eaeaea"/>
        <path id="Trazado_720128" data-name="Trazado 720128" d="M431.689,30.495a2.768,2.768,0,0,1,2.6-2.095,1.521,1.521,0,0,1,1.508,2.095,2.768,2.768,0,0,1-2.6,2.095A1.551,1.551,0,0,1,431.689,30.495Z" transform="translate(-431.631 -28.4)" fill="#eaeaea"/>
      </g>
      <g id="Grupo_1082495" data-name="Grupo 1082495" transform="translate(144.03 30.08)">
        <g id="Grupo_1082492" data-name="Grupo 1082492" transform="translate(0 87.316)">
          <g id="Grupo_1082485" data-name="Grupo 1082485" transform="translate(117.933 0)">
            <circle id="Elipse_6571" data-name="Elipse 6571" cx="10.641" cy="10.641" r="10.641" transform="translate(0 19.662) rotate(-67.5)" fill="#364154"/>
            <g id="Grupo_1082482" data-name="Grupo 1082482" transform="translate(31.208 7.95)">
              <path id="Trazado_720129" data-name="Trazado 720129" d="M379.368,161.8h-17.6a1.145,1.145,0,0,0-1.173,1.173h0a1.145,1.145,0,0,0,1.173,1.173h17.6a1.145,1.145,0,0,0,1.173-1.173h0A1.259,1.259,0,0,0,379.368,161.8Z" transform="translate(-360.6 -161.8)" fill="#364154"/>
              <path id="Trazado_720130" data-name="Trazado 720130" d="M379.368,167.5h-17.6a1.145,1.145,0,0,0-1.173,1.173h0a1.145,1.145,0,0,0,1.173,1.173h17.6a1.145,1.145,0,0,0,1.173-1.173h0A1.259,1.259,0,0,0,379.368,167.5Z" transform="translate(-360.6 -162.724)" fill="#364154"/>
              <path id="Trazado_720131" data-name="Trazado 720131" d="M379.368,173.2h-17.6a1.173,1.173,0,1,0,0,2.346h17.6a1.145,1.145,0,0,0,1.173-1.173A1.259,1.259,0,0,0,379.368,173.2Z" transform="translate(-360.6 -163.648)" fill="#364154"/>
            </g>
            <path id="Trazado_720132" data-name="Trazado 720132" d="M328.3,166.819h9.719V157.1A9.726,9.726,0,0,0,328.3,166.819Z" transform="translate(-324.155 -153.088)" fill="#00a3fe"/>
            <path id="Trazado_720133" data-name="Trazado 720133" d="M347.739,169.1H328.3a9.726,9.726,0,0,0,9.719,9.719h0A9.726,9.726,0,0,0,347.739,169.1Z" transform="translate(-324.155 -155.033)" fill="#364154"/>
            <g id="Grupo_1082483" data-name="Grupo 1082483" transform="translate(6.323 8.704)">
              <path id="Trazado_720134" data-name="Trazado 720134" d="M336.765,162.7h-5.279a.587.587,0,1,0,0,1.173h5.279a.587.587,0,0,0,0-1.173Z" transform="translate(-330.9 -162.7)" fill="#eaeaea"/>
              <path id="Trazado_720135" data-name="Trazado 720135" d="M332.76,165.1h-1.173a.587.587,0,1,0,0,1.173h1.173a.573.573,0,0,0,.587-.587A.63.63,0,0,0,332.76,165.1Z" transform="translate(-330.916 -163.089)" fill="#eaeaea"/>
            </g>
            <g id="Grupo_1082484" data-name="Grupo 1082484" transform="translate(14.199 16.413)">
              <path id="Trazado_720136" data-name="Trazado 720136" d="M346.165,171.9h-5.279a.587.587,0,1,0,0,1.173h5.279a.573.573,0,0,0,.587-.587A.706.706,0,0,0,346.165,171.9Z" transform="translate(-340.3 -171.9)" fill="#eaeaea"/>
              <path id="Trazado_720137" data-name="Trazado 720137" d="M342.06,174.3h-1.173a.573.573,0,0,0-.587.586h0a.573.573,0,0,0,.587.587h1.173a.573.573,0,0,0,.587-.587h0A.573.573,0,0,0,342.06,174.3Z" transform="translate(-340.3 -172.289)" fill="#eaeaea"/>
            </g>
          </g>
          <g id="Grupo_1082488" data-name="Grupo 1082488" transform="translate(60.829 3.258)">
            <circle id="Elipse_6572" data-name="Elipse 6572" cx="10.641" cy="10.641" r="10.641" fill="#00a3fe"/>
            <g id="Grupo_1082486" data-name="Grupo 1082486" transform="translate(27.985 4.692)">
              <path id="Trazado_720138" data-name="Trazado 720138" d="M289.773,164.146h17.6a1.173,1.173,0,0,0,0-2.346h-17.6a1.145,1.145,0,0,0-1.173,1.173A1.2,1.2,0,0,0,289.773,164.146Z" transform="translate(-288.6 -161.8)" fill="#364154"/>
              <path id="Trazado_720139" data-name="Trazado 720139" d="M307.368,167.5h-17.6a1.173,1.173,0,0,0,0,2.346h17.6a1.145,1.145,0,0,0,1.173-1.173A1.2,1.2,0,0,0,307.368,167.5Z" transform="translate(-288.6 -162.724)" fill="#364154"/>
              <path id="Trazado_720140" data-name="Trazado 720140" d="M307.368,173.2h-17.6a1.145,1.145,0,0,0-1.173,1.173h0a1.145,1.145,0,0,0,1.173,1.173h17.6a1.145,1.145,0,0,0,1.173-1.173h0A1.259,1.259,0,0,0,307.368,173.2Z" transform="translate(-288.6 -163.648)" fill="#364154"/>
            </g>
            <path id="Trazado_720141" data-name="Trazado 720141" d="M266.019,169.084,256.3,169v.084a9.726,9.726,0,0,0,9.719,9.719,9.919,9.919,0,0,0,5.195-1.508Z" transform="translate(-255.378 -158.275)" fill="#364154"/>
            <g id="Grupo_1082487" data-name="Grupo 1082487" transform="translate(5.195 13.825)">
              <path id="Trazado_720142" data-name="Trazado 720142" d="M267.265,172.7h-5.279a.573.573,0,0,0-.587.587h0a.573.573,0,0,0,.587.586h5.279a.573.573,0,0,0,.586-.586h0A.706.706,0,0,0,267.265,172.7Z" transform="translate(-261.4 -172.7)" fill="#eaeaea"/>
              <path id="Trazado_720143" data-name="Trazado 720143" d="M263.16,175.1h-1.173a.587.587,0,1,0,0,1.173h1.173a.573.573,0,0,0,.587-.587A.706.706,0,0,0,263.16,175.1Z" transform="translate(-261.4 -173.089)" fill="#eaeaea"/>
            </g>
          </g>
          <g id="Grupo_1082491" data-name="Grupo 1082491" transform="translate(0 3.258)">
            <circle id="Elipse_6573" data-name="Elipse 6573" cx="10.641" cy="10.641" r="10.641" fill="#364154"/>
            <path id="Trazado_720144" data-name="Trazado 720144" d="M193.419,157.3a9.741,9.741,0,0,0-4.692,18.266c1.592-2.849,4.692-8.546,4.692-8.546l4.608,8.546a9.712,9.712,0,0,0-4.608-18.266Z" transform="translate(-182.778 -156.378)" fill="#00a3fe"/>
            <g id="Grupo_1082489" data-name="Grupo 1082489" transform="translate(27.901 4.692)">
              <path id="Trazado_720145" data-name="Trazado 720145" d="M234.668,161.8h-17.6a1.145,1.145,0,0,0-1.173,1.173h0a1.145,1.145,0,0,0,1.173,1.173h17.6a1.145,1.145,0,0,0,1.173-1.173h0A1.145,1.145,0,0,0,234.668,161.8Z" transform="translate(-215.9 -161.8)" fill="#364154"/>
              <path id="Trazado_720146" data-name="Trazado 720146" d="M234.668,167.5h-17.6a1.173,1.173,0,1,0,0,2.346h17.6a1.173,1.173,0,0,0,0-2.346Z" transform="translate(-215.9 -162.724)" fill="#364154"/>
              <path id="Trazado_720147" data-name="Trazado 720147" d="M234.668,173.2h-17.6a1.173,1.173,0,1,0,0,2.346h17.6a1.173,1.173,0,0,0,0-2.346Z" transform="translate(-215.9 -163.648)" fill="#364154"/>
            </g>
            <g id="Grupo_1082490" data-name="Grupo 1082490" transform="translate(5.111 5.949)">
              <path id="Trazado_720148" data-name="Trazado 720148" d="M194.565,163.3h-5.279a.587.587,0,1,0,0,1.173h5.279a.587.587,0,1,0,0-1.173Z" transform="translate(-188.7 -163.3)" fill="#eaeaea"/>
              <path id="Trazado_720149" data-name="Trazado 720149" d="M190.56,165.7h-1.173a.573.573,0,0,0-.587.587h0a.573.573,0,0,0,.587.586h1.173a.573.573,0,0,0,.587-.586h0A.706.706,0,0,0,190.56,165.7Z" transform="translate(-188.716 -163.689)" fill="#eaeaea"/>
            </g>
          </g>
        </g>
        <g id="Grupo_1082493" data-name="Grupo 1082493" transform="translate(76.894 16.674)">
          <path id="Trazado_720150" data-name="Trazado 720150" d="M278.334,133.354h88.647a3.952,3.952,0,0,0,3.854-3.016L384.911,72.86A3.922,3.922,0,0,0,381.057,68H292.745a4.024,4.024,0,0,0-3.854,3.016l-14.411,57.478A3.994,3.994,0,0,0,278.334,133.354Z" transform="translate(-274.374 -68)" fill="#b8c1c9"/>
          <path id="Trazado_720151" data-name="Trazado 720151" d="M372.4,116.9s-13.909-10.641-26.225-1.341c-12.4,9.3-29.074.838-36.447,0-12.819-1.424-24.215,2.849-28.4,7.625L277.8,137.431h89.652Z" transform="translate(-274.929 -75.093)" fill="#00a3fe"/>
          <path id="Trazado_720152" data-name="Trazado 720152" d="M377.3,102.6h.754L383.5,80.4h-.754Z" transform="translate(-291.061 -70.01)" fill="#fff"/>
          <path id="Trazado_720153" data-name="Trazado 720153" d="M342.1,114h.754L348.3,91.8h-.67Z" transform="translate(-285.354 -71.859)" fill="#fff"/>
          <path id="Trazado_720154" data-name="Trazado 720154" d="M310.2,108h.67l5.53-22.2h-.67Z" transform="translate(-280.182 -70.886)" fill="#fff"/>
          <path id="Trazado_720155" data-name="Trazado 720155" d="M373.516,84.273h5.279a.8.8,0,0,0,.754-.587h0a.424.424,0,0,0-.419-.587h-5.279a.8.8,0,0,0-.754.587h0A.457.457,0,0,0,373.516,84.273Z" transform="translate(-290.377 -70.448)" fill="#fff"/>
          <path id="Trazado_720156" data-name="Trazado 720156" d="M372.916,86.773h5.279a.8.8,0,0,0,.754-.587h0a.424.424,0,0,0-.419-.587h-5.279a.8.8,0,0,0-.754.587h0A.457.457,0,0,0,372.916,86.773Z" transform="translate(-290.279 -70.853)" fill="#fff"/>
          <path id="Trazado_720157" data-name="Trazado 720157" d="M338.316,97.773h5.279a.8.8,0,0,0,.754-.586h0a.424.424,0,0,0-.419-.587h-5.279a.8.8,0,0,0-.754.587h0A.457.457,0,0,0,338.316,97.773Z" transform="translate(-284.67 -72.637)" fill="#fff"/>
          <path id="Trazado_720158" data-name="Trazado 720158" d="M337.716,100.173h5.279a.8.8,0,0,0,.754-.587h0a.424.424,0,0,0-.419-.587h-5.279a.8.8,0,0,0-.754.587h0A.457.457,0,0,0,337.716,100.173Z" transform="translate(-284.573 -73.026)" fill="#fff"/>
          <path id="Trazado_720159" data-name="Trazado 720159" d="M306.915,87.773h5.279a.8.8,0,0,0,.754-.587h0a.424.424,0,0,0-.419-.587H307.25a.8.8,0,0,0-.754.587h0A.424.424,0,0,0,306.915,87.773Z" transform="translate(-279.578 -71.016)" fill="#fff"/>
          <path id="Trazado_720160" data-name="Trazado 720160" d="M306.315,90.173h5.279a.8.8,0,0,0,.754-.587h0a.424.424,0,0,0-.419-.587H306.65a.8.8,0,0,0-.754.587h0A.424.424,0,0,0,306.315,90.173Z" transform="translate(-279.481 -71.405)" fill="#fff"/>
        </g>
        <path id="Trazado_720161" data-name="Trazado 720161" d="M188.8,134.91h13.909L217.12,77.6H203.63Z" transform="translate(-183.605 -52.883)" fill="#00a3fe"/>
        <path id="Trazado_720162" data-name="Trazado 720162" d="M210,137.942h13.909L234.3,96.3H220.306Z" transform="translate(-187.042 -55.915)" fill="#00a3fe"/>
        <path id="Trazado_720163" data-name="Trazado 720163" d="M231.1,132.8h13.992l17.176-68.2H248.36Z" transform="translate(-190.463 -50.775)" fill="#00a3fe"/>
        <g id="Grupo_1082494" data-name="Grupo 1082494" transform="translate(61.081 9.552)">
          <path id="Trazado_720164" data-name="Trazado 720164" d="M258.768,78.035a3.268,3.268,0,1,1,3.268-3.268A3.327,3.327,0,0,1,258.768,78.035Zm0-5.279a2.011,2.011,0,1,0,2.011,2.011A1.985,1.985,0,0,0,258.768,72.757Z" transform="translate(-255.5 -61.446)" fill="#364154"/>
          <path id="Trazado_720165" data-name="Trazado 720165" d="M260.882,70.811a.64.64,0,0,1-.419-.168.658.658,0,0,1,0-.922L270.686,59.5H382.793a.661.661,0,0,1,.67.67.617.617,0,0,1-.67.67h-111.6l-9.8,9.8A1.191,1.191,0,0,1,260.882,70.811Z" transform="translate(-256.274 -59.5)" fill="#364154"/>
        </g>
        <path id="Trazado_720166" data-name="Trazado 720166" d="M385.226,55.138H279.319a3.54,3.54,0,0,1-3.519-3.519h0a3.54,3.54,0,0,1,3.519-3.519H385.226a3.54,3.54,0,0,1,3.519,3.519h0A3.487,3.487,0,0,1,385.226,55.138Z" transform="translate(-197.71 -48.1)" fill="#00a3fe"/>
      </g>
      <g id="Grupo_1082497" data-name="Grupo 1082497" transform="translate(0 69.594)">
        <g id="Grupo_1082496" data-name="Grupo 1082496" transform="translate(0 6.554)">
          <path id="Trazado_720167" data-name="Trazado 720167" d="M35.4,267.9l2.43,10.39H41.6l.084-10.39Z" transform="translate(-14.705 -129.805)" fill="#ff7955"/>
          <path id="Trazado_720168" data-name="Trazado 720168" d="M72.6,268.141l7.038,9.971,2.765-3.519L78.13,266.8Z" transform="translate(-20.736 -129.627)" fill="#ff7955"/>
          <path id="Trazado_720169" data-name="Trazado 720169" d="M44.3,104.27a6.749,6.749,0,0,0-3.854-.754,2.437,2.437,0,0,1,.838-.419,6.414,6.414,0,0,0-2.178.587c-9.217-3.6-10.725,10.054-10.473,13.238.168,3.184-3.1,4.189-7.96,6.7C11.454,128.4,10.7,134.769,10.7,134.769c.084.084.168.084.251.168.419-.754,1.424-2.262,2.178-2.43,0,.084-.922,2.011-1.257,3.1,2.681,2.095,7.792,6.619,11.311,9.887a5.1,5.1,0,0,1,.251-2.011l.419,2.6c1.927,1.76,3.184,2.933,3.184,2.933-.251-2.6,11.563-16,17.679-20.109,1.508-2.178,2.011-6.116,2.095-6.368a15.483,15.483,0,0,1-1.257,5.781C50.666,123.458,47.65,106.2,44.3,104.27Z" transform="translate(-10.7 -103.083)" fill="#131f2d"/>
          <path id="Trazado_720170" data-name="Trazado 720170" d="M49.114,132.333s-2.933,1.592-5.195.922c-2.095-.587-3.519-3.351-3.519-3.351.922-.168,1.173-1.424,1.173-6.7l.419.084,6.871,1.341s-.168,2.178-.168,4.189C48.611,130.573,48.695,132.165,49.114,132.333Z" transform="translate(-15.515 -106.345)" fill="#ff7955"/>
          <path id="Trazado_720171" data-name="Trazado 720171" d="M41.6,106.88a5.453,5.453,0,0,1,7.625-.168C49.141,106.629,46.711,106.21,41.6,106.88Z" transform="translate(-15.71 -103.431)" fill="#e58638"/>
          <path id="Trazado_720172" data-name="Trazado 720172" d="M49.071,124.741s-.168,2.178-.168,4.189c-3.854-.084-5.865-3.6-6.7-5.53Z" transform="translate(-15.807 -106.377)" fill="#ef6343"/>
          <path id="Trazado_720173" data-name="Trazado 720173" d="M40.9,119.787a20.744,20.744,0,0,1-2.514-5.865c-.335-1.927.67-9.133,7.876-8.044a9.1,9.1,0,0,1,4.022,1.508c1.592,1.089,3.854,3.351,1.257,9.552l-.67,2.095Z" transform="translate(-15.18 -103.519)" fill="#131f2d"/>
          <path id="Trazado_720174" data-name="Trazado 720174" d="M75.393,257.609l-3.6.084-3.938.084a77.466,77.466,0,0,1-14.16-26.225c-.084-.335-.251-.754-.335-1.173-2.765-8.127-8.546-18.266-11.563-27.482-.5-1.508-.922-2.849-1.341-4.189-.084-.419-.251-.838-.335-1.257A102.828,102.828,0,0,1,36.6,179.1l21.952.168A405.442,405.442,0,0,0,75.393,257.609Z" transform="translate(-14.899 -115.408)" fill="#364154"/>
          <path id="Trazado_720175" data-name="Trazado 720175" d="M53.636,158.92c-.084,10.473,1.508,14.914,1.508,14.914a29.374,29.374,0,0,1-20.528,1.257c-.168,0-9.217-2.095-9.217-2.095.168-.419,1.843-7.457,2.011-7.876,2.346-5.027,4.189-7.289,4.441-8.8a33.955,33.955,0,0,0,.251-8.714,69.781,69.781,0,0,0-2.681-13.741,72.43,72.43,0,0,0,9.049-3.1,7.206,7.206,0,0,0,4.86,1.843c2.262-.084,2.933-1.005,2.849-2.011,2.346,1.341,4.273,2.6,4.273,2.6,2.011,3.519,6.116,6.871,6.368,12.233C56.9,146.687,53.636,158.669,53.636,158.92Z" transform="translate(-13.083 -107.545)" fill="#657285"/>
          <path id="Trazado_720176" data-name="Trazado 720176" d="M70.393,143.4c-3.184-3.77-11.563-11.9-20.193-12.9L57.657,145a6.4,6.4,0,0,0,2.6,3.938,43.63,43.63,0,0,0,12.233,5.111,63.633,63.633,0,0,0,10.976-6.7c2.011-1.424,5.53-7.038,5.53-7.038l-.922-3.184s-5.949,3.352-8.044,4.273c-1.173.587-4.022,1.843-5.949,2.765A3.082,3.082,0,0,1,70.393,143.4Z" transform="translate(-17.104 -107.528)" fill="#00a3fe"/>
          <path id="Trazado_720177" data-name="Trazado 720177" d="M50.13,124.343s-9.049.168-9.049-5.53c0-5.614-1.173-9.384,4.608-9.719s6.871,1.843,7.373,3.687C53.482,114.623,52.476,124.091,50.13,124.343Z" transform="translate(-15.61 -104.052)" fill="#ff7955"/>
          <path id="Trazado_720178" data-name="Trazado 720178" d="M49.23,108.663s-2.514,6.619-6.284,7.625-5.446,0-5.446,0a18.934,18.934,0,0,0,2.262-6.7C39.762,109.5,47.387,105.479,49.23,108.663Z" transform="translate(-15.045 -103.79)" fill="#131f2d"/>
          <path id="Trazado_720179" data-name="Trazado 720179" d="M50.8,109.293a7.945,7.945,0,0,1,2.262,2.933c.419,1.424.67,4.357,1.508,4.273,0,0,1.843-4.525-.251-7.038C52.141,106.78,50.8,109.293,50.8,109.293Z" transform="translate(-17.201 -103.917)" fill="#131f2d"/>
          <path id="Trazado_720180" data-name="Trazado 720180" d="M95.4,137.625a5.63,5.63,0,0,1,6.368-3.938c.587.168,2.262.838,1.173,2.681-.838,1.341-1.173.67-2.43,2.43a4.154,4.154,0,0,1-4.189,2.011Z" transform="translate(-24.432 -108.034)" fill="#ff7955"/>
          <path id="Trazado_720181" data-name="Trazado 720181" d="M38.092,279.6a9.171,9.171,0,0,1-.5,4.273s-.587,2.765,2.095,2.849,3.351-.168,3.1-1.927l-.922-4.608Z" transform="translate(-15.051 -131.702)" fill="#ff7955"/>
          <path id="Trazado_720182" data-name="Trazado 720182" d="M42.975,288.706a.259.259,0,0,0-.168.084H37.445a.259.259,0,0,0-.168-.084,12.842,12.842,0,0,1,.168-4.022c3.1,2.849,5.027-.084,5.027-.084A12.611,12.611,0,0,1,42.975,288.706Z" transform="translate(-14.99 -132.512)" fill="#131f2d"/>
          <path id="Trazado_720183" data-name="Trazado 720183" d="M90.106,284.479s-5.027-5.53-6.535-8.379l-3.77,1.927,8.379,7.792,1.927-.251Z" transform="translate(-21.903 -131.134)" fill="#ff7955"/>
          <path id="Trazado_720184" data-name="Trazado 720184" d="M93.03,287.768H86.159a9.914,9.914,0,0,1-2.011-3.184,3.355,3.355,0,0,0-2.262-1.508v4.608H80.462l-1.341-4.943c-.922-1.592-.084-3.1.587-4.441.754,0,2.681.5,6.368,4.692a5.244,5.244,0,0,0,3.938,1.843H90.1C92.192,285.925,92.862,287.181,93.03,287.768Z" transform="translate(-21.727 -131.491)" fill="#131f2d"/>
          <path id="Trazado_720185" data-name="Trazado 720185" d="M50.2,130.5s5.279,12.9,5.362,15.584c.168,2.6.587,42.815.587,42.815s-.335,1.843,3.268,1.089c3.519-.754,4.441-1.508,4.441-1.508s-3.351-24.8-2.43-33.431-7.122-22.706-7.122-22.706Z" transform="translate(-17.104 -107.528)" fill="#00a3fe"/>
          <path id="Trazado_720186" data-name="Trazado 720186" d="M72.472,260.873l-3.938.084a77.466,77.466,0,0,1-14.16-26.225c-.084-.335-.251-.754-.335-1.173-2.765-8.127-8.546-18.266-11.563-27.482-.5-1.508-.922-2.849-1.341-4.189-.084-.419-.251-.838-.335-1.257l3.268-2.43s9.719,15.668,12.736,30.5C59.317,241.518,69.79,257.019,72.472,260.873Z" transform="translate(-15.58 -118.505)" fill="#131f2d"/>
          <path id="Trazado_720187" data-name="Trazado 720187" d="M41.757,229.328c.084,7.206-.335,23.712-1.257,30.582H34.217c-2.346-11.9-4.022-21.7-5.195-30.247-1.005-6.954-1.843-12.9-2.6-18.1-.67-5.195-1.173-9.468-1.341-13.155,0-.587-.084-1.173-.084-1.676v-1.592L43.936,193.3C43.685,205.868,41.757,225.139,41.757,229.328Z" transform="translate(-13.018 -117.71)" fill="#364154"/>
          <path id="Trazado_720188" data-name="Trazado 720188" d="M37.082,260.8H34.233c-2.346-11.9-4.022-21.7-5.195-30.247-1.005-6.954-1.843-12.9-2.6-18.1-.67-5.195-1.173-9.468-1.341-13.155l6.954,4.106S27.614,205,29.289,216.812C30.965,228.709,34.736,259.124,37.082,260.8Z" transform="translate(-13.035 -118.683)" fill="#131f2d"/>
          <path id="Trazado_720189" data-name="Trazado 720189" d="M37.176,188.11s-1.341,4.86-5.949,4.189C26.619,191.713,20,188.948,20,188.948s2.011-6.2,4.441-14.411c2.933-9.887,6.619-22.706,8.379-30.75a39.4,39.4,0,0,0,.922-5.53L37.6,130.8s5.7,12.819,6.033,16.087C43.963,150.071,37.176,188.11,37.176,188.11Z" transform="translate(-12.208 -107.577)" fill="#00a3fe"/>
          <path id="Trazado_720190" data-name="Trazado 720190" d="M33.417,146.384,38.444,130.8a87.232,87.232,0,0,0-9.636,3.519s-2.011,2.6-3.268,8.546c0,0-1.341,14.328,1.592,19.522,0,0,9.217,1.843,24.047-3.268v-3.351s-16.171.838-19.522,1.257Z" transform="translate(-13.057 -107.577)" fill="#ff7955"/>
          <path id="Trazado_720191" data-name="Trazado 720191" d="M37.784,156.187c-.168,5.195-1.424,15.417-12.4,20.863H25.3c2.933-9.887,6.619-22.706,8.379-30.75C35.69,149.233,37.952,153.254,37.784,156.187Z" transform="translate(-13.067 -110.09)" fill="#016eb9"/>
          <path id="Trazado_720192" data-name="Trazado 720192" d="M38.359,130.8s-9.384.67-11.646,5.7-3.016,21.785-.084,26.728c0,0,3.938,1.089,10.976-.168a.308.308,0,0,0,.251-.084s2.262-5.446.251-6.535c0,0-5.865.335-5.279-1.676C33.415,152.836,38.359,130.8,38.359,130.8Z" transform="translate(-12.971 -107.577)" fill="#00a3fe"/>
          <path id="Trazado_720193" data-name="Trazado 720193" d="M54.3,160.448a9.217,9.217,0,0,0,1.592-3.184c.251-1.592,1.089-2.765,3.351-3.1,2.262-.251,3.184-.335,3.184.335a16.84,16.84,0,0,1-5.027,7.625C54.216,164.721,54.3,160.448,54.3,160.448Z" transform="translate(-17.769 -111.335)" fill="#ff7955"/>
        </g>
        <path id="Trazado_720194" data-name="Trazado 720194" d="M99.129,132.16a.308.308,0,0,0,.251-.084L158.7,96.048a.431.431,0,1,0-.419-.754L98.961,131.322a.518.518,0,0,0-.168.587C98.794,132.076,98.961,132.16,99.129,132.16Z" transform="translate(-24.977 -95.261)" fill="#163560"/>
      </g>
      <g id="Grupo_1082499" data-name="Grupo 1082499" transform="translate(308.496 72.797)">
        <path id="Trazado_720195" data-name="Trazado 720195" d="M455.08,189.619s-.5,4.608-1.005,5.53a19.471,19.471,0,0,1-3.687,4.189c-.922.587.587-3.687.419-4.525s-.754,1.508-1.173,1.592-.335-2.011-.335-2.765,2.011-2.681,2.765-4.273C452.734,187.692,455.08,189.619,455.08,189.619Z" transform="translate(-390.304 -113.61)" fill="#ff7955"/>
        <path id="Trazado_720196" data-name="Trazado 720196" d="M386.691,137.244l-1.089-2.011s.5-3.6-3.938-5.865a2.23,2.23,0,0,0-2.6.67c-.838,1.257,1.592,1.005,1.508,3.1a3.779,3.779,0,0,0,2.262,4.022l1.173,1.341Z" transform="translate(-378.89 -103.966)" fill="#ff7955"/>
        <path id="Trazado_720197" data-name="Trazado 720197" d="M429.769,132.966a35.424,35.424,0,0,1-25.052,25.052c-6.619,1.927-21.617-19.858-21.617-19.858s.5-2.011,3.854-1.508c0,0,14.663,9.719,16.506,10.725,1.676.922,12.4-11.982,17.26-14.076A12.4,12.4,0,0,1,429.769,132.966Z" transform="translate(-379.572 -104.464)" fill="#131f2d"/>
        <g id="Grupo_1082498" data-name="Grupo 1082498" transform="translate(27.826 71.233)">
          <path id="Trazado_720198" data-name="Trazado 720198" d="M467.151,274.773s2.6,2.43,2.095,4.106-2.849,2.849-3.184,4.943-1.592,3.184-2.765,3.184h-5.53s-.838-1.508,1.173-1.927c2.095-.419,2.849-2.933,2.681-5.195a34.924,34.924,0,0,1,.168-5.279l4.357-1.005Z" transform="translate(-419.476 -198.61)" fill="#131f2d"/>
          <path id="Trazado_720199" data-name="Trazado 720199" d="M427.517,281.995s.5,5.446-.67,6.033H412.1s0-1.676,2.346-2.095,6.535-1.76,7.289-4.86C422.406,277.973,427.517,281.995,427.517,281.995Z" transform="translate(-412.1 -199.632)" fill="#131f2d"/>
          <path id="Trazado_720200" data-name="Trazado 720200" d="M415.6,190.057s.754,9.552,1.676,21.114c1.257,15.668,2.765,34.855,2.933,38.458.251,6.284,1.257,16.422,1.257,16.422s2.43,2.43,7.29,1.424a163.017,163.017,0,0,0,5.614-29.661,2.319,2.319,0,0,1,.084-.754c1.173-15.5,2.933-48.261,2.933-48.261Z" transform="translate(-412.667 -184.862)" fill="#00a3fe"/>
          <path id="Trazado_720201" data-name="Trazado 720201" d="M415.6,190.057s.754,9.552,1.676,21.114l17.093,26.644a2.319,2.319,0,0,1,.084-.754c1.173-15.5,2.933-48.261,2.933-48.261Z" transform="translate(-412.667 -184.862)" fill="#016eb9"/>
          <path id="Trazado_720202" data-name="Trazado 720202" d="M419.9,190.384s14.076,34.688,23.293,50.943c9.217,16.339,12.149,20.863,12.149,20.863s5.279-2.095,5.781-3.519c0,0-3.519-31.5-9.719-39.129-3.519-4.357-7.625-17.344-7.792-21.868s-1.257-13.574-1.257-13.574Z" transform="translate(-413.365 -184.1)" fill="#00a3fe"/>
        </g>
        <path id="Trazado_720203" data-name="Trazado 720203" d="M439,125.679s-9.468,4.608-15,2.849a12.942,12.942,0,0,1,3.687-2.933c-.168-1.089-.335-2.095-.419-2.849a24.114,24.114,0,0,1-.251-2.933l3.687-2.849,3.519-2.765A14.088,14.088,0,0,0,439,125.679Z" transform="translate(-386.204 -101.534)" fill="#ff7955"/>
        <path id="Trazado_720204" data-name="Trazado 720204" d="M442.511,176.419c0,.587-1.257,1.257-1.76,1.508a40.027,40.027,0,0,1-12.149,3.435c-5.111.5-11.06-.587-13.155-.587a.761.761,0,0,1-.587-.251c-.168-.084-.251-6.2-.168-13.909v-1.005c.084-3.016.168-6.2.335-9.3.335-6.954.838-13.657,1.76-17.344a18.69,18.69,0,0,1,5.949-9.3l1.927-1.676a9.534,9.534,0,0,0,5.865-.67c2.178-1.089,4.524-2.178,4.943-1.927,2.849,2.095,4.776,6.787,5.865,12.819a61.218,61.218,0,0,1,.838,11.4c0,1.508-.084,3.016-.168,4.525a137,137,0,0,0,.335,19.522C442.427,174.827,442.511,175.749,442.511,176.419Z" transform="translate(-384.689 -103.343)" fill="#364154"/>
        <path id="Trazado_720205" data-name="Trazado 720205" d="M444.5,178.572c-33.264-.084-6.116-36.112-6.116-36.112l5.362-1.76a93.538,93.538,0,0,1,.587,12.233c0,1.592,0,3.268-.084,4.86C443.91,166.506,444.329,174.131,444.5,178.572Z" transform="translate(-386.843 -105.83)" fill="#131f2d"/>
        <path id="Trazado_720206" data-name="Trazado 720206" d="M434.906,117.668s-2.43,4.357-6.954,5.614a24.111,24.111,0,0,1-.251-2.933l3.687-2.849Z" transform="translate(-386.803 -102.069)" fill="#ef6343"/>
        <path id="Trazado_720207" data-name="Trazado 720207" d="M425.355,117.842s9.049,1.508,9.887-4.106,2.6-9.133-3.184-10.306-7.206.754-7.96,2.6C423.428,107.788,423.009,117.339,425.355,117.842Z" transform="translate(-386.134 -99.73)" fill="#ff7955"/>
        <path id="Trazado_720208" data-name="Trazado 720208" d="M438.03,102.114c.084-.084.251-.168.67-.168a1.4,1.4,0,0,0-.754-.251,2.1,2.1,0,0,0-1.424-1.843,1.21,1.21,0,0,1,.587.922c-1.173-1.173-3.687-2.095-10.641-1.508-9.133.754-6.116,6.619-4.943,7.289s4.189-1.257,6.368-1.005c2.178.168,2.6,3.351,3.351,3.77s.419-.335,1.508-.754c1.005-.419,1.089,1.257.838,2.346s1.089,2.514,1.089,2.514l1.424-1.508c1.424-1.508,2.765-7.96,2.095-9.3C438.113,102.365,438.113,102.2,438.03,102.114Z" transform="translate(-385.57 -99.083)" fill="#131f2d"/>
        <path id="Trazado_720209" data-name="Trazado 720209" d="M438.662,125.3s5.7,2.681,8.462,6.871c4.273,6.452,9.217,30.08,9.3,32.258s-3.6,17.6-3.6,17.6-3.77-.251-4.692-2.178c0,0,.754-15.836.251-16.841s-15.668-21.282-13.909-25.639C436.148,133.176,438.662,125.3,438.662,125.3Z" transform="translate(-387.878 -103.334)" fill="#364154"/>
        <path id="Trazado_720210" data-name="Trazado 720210" d="M386.364,135.6s.335-1.257-.5-1.76c-.838-.586-1.676-2.095-2.011-1.843-.754.419.419,1.76.168,3.351C383.934,135.933,385.275,137.441,386.364,135.6Z" transform="translate(-379.653 -104.415)" fill="#ff7955"/>
      </g>
      <path id="Trazado_720211" data-name="Trazado 720211" d="M16.835,290.305h394.47c.168,0,.335-.168.335-.5h0c0-.251-.168-.5-.335-.5H16.835c-.168,0-.335.168-.335.5h0C16.5,290.054,16.668,290.305,16.835,290.305Z" transform="translate(-11.64 -57.126)" fill="#364154"/>
    </g>
  </g>
</svg>
